{
.appVersion = "3148";
.formatVersion = 3;
axes = (
{
name = Weight;
tag = wght;
},
{
name = Slant;
tag = slnt;
}
);
customParameters = (
{
name = "Variable Font Origin";
value = m01;
}
);
date = "2022-10-25 08:18:05 +0000";
familyName = "Uncut Sans";
featurePrefixes = (
{
automatic = 1;
code = "languagesystem DFLT dflt;

languagesystem latn dflt;
languagesystem latn AZE;
languagesystem latn CRT;
languagesystem latn KAZ;
languagesystem latn TAT;
languagesystem latn TRK;
languagesystem latn ROM;
languagesystem latn MOL;
languagesystem latn CAT;
languagesystem latn NLD;
";
name = Languagesystems;
}
);
features = (
{
automatic = 1;
code = "feature locl;
feature subs;
feature sinf;
feature sups;
feature numr;
feature dnom;
feature frac;
feature ordn;
feature pnum;
feature tnum;
feature case;
feature zero;
feature ss01;
feature ss02;
feature ss03;
feature ss04;
feature ss05;
feature ss06;
feature ss07;
feature ss08;
";
tag = aalt;
},
{
automatic = 1;
code = "lookup locl_latn_0 {
	script latn;
	language AZE;
	sub i by idotaccent;
	language CRT;
	sub i by idotaccent;
	language KAZ;
	sub i by idotaccent;
	language TAT;
	sub i by idotaccent;
	language TRK;
	sub i by idotaccent;
} locl_latn_0;

lookup locl_latn_1 {
	script latn;
	language ROM;
	sub Scedilla by Scommaaccent;
	sub scedilla by scommaaccent;
	sub Tcedilla by Tcommaaccent;
	sub tcedilla by tcommaaccent;
	language MOL;
	sub Scedilla by Scommaaccent;
	sub scedilla by scommaaccent;
	sub Tcedilla by Tcommaaccent;
	sub tcedilla by tcommaaccent;
} locl_latn_1;

lookup locl_latn_2 {
	script latn;
	language CAT;
	sub  l' periodcentered' l by ldot;
	sub  L' periodcentered' L by Ldot;
} locl_latn_2;

lookup locl_latn_3 {
	script latn;
	language NLD;
	sub iacute j' by jacute;
	sub Iacute J' by Jacute;
} locl_latn_3;
";
tag = locl;
},
{
automatic = 1;
code = "sub zero by zeroinferior;
sub one by oneinferior;
sub two by twoinferior;
sub three by threeinferior;
sub four by fourinferior;
sub five by fiveinferior;

glyphs = (
{
glyphname = A;
kernLeft = A;
kernRight = A;
lastChange = "2022-11-25 14:12:14 +0000";
layers = (
{
layerId = m01;
shapes = (
{
closed = 1;
nodes = (
(99,0,l),
(333,678,l),
(303,678,l),
(536,0,l),
(615,0,l),
(374,700,l),
(261,700,l),
(20,0,l)
);
},
{
closed = 1;
nodes = (
(474,226,l),
(474,299,l),
(161,299,l),
(161,226,l)
);
}
);
width = 635;
},
{
layerId = m005;
shapes = (
{
closed = 1;
nodes = (
(150,0,l),
(378,678,l),
(313,678,l),
(539,0,l),
(679,0,l),
(445,700,l),
(244,700,l),
(10,0,l)
);
},
{
closed = 1;
nodes = (
(531,206,l),
(531,319,l),
(158,319,l),
(158,206,l)
);
}
);
width = 689;
},
{
layerId = m007;
shapes = (
{
closed = 1;
nodes = (
(83,0,l),
(320,678,l),
(308,678,l),
(544,0,l),
(602,0,l),
(358,700,l),
(269,700,l),
(25,0,l)
);
},
{
closed = 1;
nodes = (
(475,236,l),
(475,289,l),
(152,289,l),
(152,236,l)
);
}
);
width = 627;
},
{
layerId = m004;
shapes = (
{
closed = 1;
nodes = (
(53,0,l),
(419,678,l),
(389,678,l),
(490,0,l),
(566,0,l),
(461,700,l),
(348,700,l),
(-29,0,l)
);
},
{
closed = 1;
nodes = (
(472,226,l),
(486,299,l),
(173,299,l),
(159,226,l)
);
}
);
width = 635;
},
{
layerId = m008;
shapes = (
{
closed = 1;
nodes = (
(106,0,l),
(466,678,l),
(401,678,l),
(495,0,l),
(630,0,l),
(532,700,l),
(331,700,l),
(-39,0,l)
);
},
{
closed = 1;
nodes = (
(527,206,l),
(549,319,l),
(176,319,l),
(154,206,l)
);
}
);
width = 689;
},
{
layerId = m006;
shapes = (
{
closed = 1;
nodes = (
(37,0,l),
(406,678,l),
(394,678,l),
(498,0,l),
(553,0,l),
(445,700,l),
(356,700,l),
(-24,0,l)
);
},
{
closed = 1;
nodes = (
(475,236,l),
(485,289,l),
(162,289,l),
(152,236,l)
);
}
);
width = 627;
}
);
unicode = 65;
},
{
glyphname = AE;
kernLeft = A;
kernRight = E;
lastChange = "2022-11-25 14:12:14 +0000";
layers = (
{
layerId = m01;
shapes = (
{
closed = 1;
nodes = (
(795,627,l),
(795,700,l),
(364,700,l),
(364,627,l)
);
},
{
ref = A;
},
{
closed = 1;
nodes = (
(795,0,l),
(795,73,l),
(549,73,l),
(549,0,l)
);
},
{
closed = 1;
nodes = (
(735,327,l),
(735,400,l),
(445,400,l),
(445,327,l)
);
}
);
width = 850;
},
{
layerId = m005;
shapes = (
{
closed = 1;
nodes = (
(825,587,l),
(825,700,l),
(415,700,l),
(415,587,l)
);
},
{
ref = A;
},
{
closed = 1;
nodes = (
(825,0,l),
(825,113,l),
(566,113,l),
(566,0,l)
);
},
{
closed = 1;
nodes = (
(765,307,l),
(765,420,l),
(495,420,l),
(495,307,l)
);
}
);
width = 870;
},
{
layerId = m007;
shapes = (
{
closed = 1;
nodes = (
(785,647,l),
(785,700,l),
(344,700,l),
(344,647,l)
);
},
{
ref = A;
},
{
closed = 1;
nodes = (
(785,0,l),
(785,53,l),
(559,53,l),
(559,0,l)
);
},
{
closed = 1;
nodes = (
(725,337,l),
(725,390,l),
(445,390,l),
(445,337,l)
);
}
);
width = 845;
},
{
layerId = m004;
shapes = (
{
closed = 1;
nodes = (
(849,627,l),
(863,700,l),
(432,700,l),
(418,627,l)
);
},
{
ref = A;
},
{
closed = 1;
nodes = (
(727,0,l),
(741,73,l),
(495,73,l),
(481,0,l)
);
},
{
closed = 1;
nodes = (
(731,327,l),
(745,400,l),
(455,400,l),
(441,327,l)
);
}
);
width = 831;
},
{
layerId = m008;
shapes = (
{
closed = 1;
nodes = (
(871,587,l),
(893,700,l),
(483,700,l),
(461,587,l)
);
},
{
ref = A;
},
{
closed = 1;
nodes = (
(757,0,l),
(779,113,l),
(520,113,l),
(498,0,l)
);
},
{
closed = 1;
nodes = (
(757,307,l),
(779,420,l),
(509,420,l),
(487,307,l)
);
}
);
width = 851;
},
{
layerId = m006;
shapes = (
{
closed = 1;
nodes = (
(843,647,l),
(853,700,l),
(412,700,l),
(402,647,l)
);
},
{
ref = A;
},
{
closed = 1;
nodes = (
(717,0,l),
(727,53,l),
(501,53,l),
(491,0,l)
);
},
{
closed = 1;
nodes = (
(722,337,l),
(733,390,l),
(453,390,l),
(442,337,l)
);
}
);
width = 826;
}
);
metricLeft = A;
metricRight = E;
unicode = 198;
},
{
glyphname = B;
kernLeft = H;
kernRight = B;
lastChange = "2022-12-03 11:09:19 +0000";
layers = (
{
layerId = m01;
shapes = (
{
closed = 1;
nodes = (
(315,0,ls),
(446,0,o),
(536,80,o),
(536,196,cs),
(536,293,o),
(468,361,o),
(373,361,c),
(373,357,l),
(447,357,o),
(496,418,o),
(496,510,cs),
(496,623,o),
(406,700,o),
(275,700,cs),
(98,700,l),
(98,627,l),
(275,627,ls),
(361,627,o),
(418,580,o),
(418,510,cs),
(418,440,o),
(360,392,o),
(275,392,cs),
(98,392,l),
(98,319,l),
(315,319,ls),
(400,319,o),
(458,269,o),
(458,196,cs),
(458,123,o),
(400,73,o),
(315,73,cs),
(118,73,l),
(118,0,l)
);
},
{
closed = 1;
nodes = (
(158,0,l),
(158,700,l),
(85,700,l),
(85,0,l)
);
}
);
width = 596;
},
{
layerId = m005;
shapes = (
{
closed = 1;
nodes = (
(315,0,ls),
(435,0,o),
(586,36,o),
(586,206,cs),
(586,306,o),
(503,371,o),
(373,371,c),
(373,348,l),
(483,348,o),
(546,410,o),
(546,500,cs),
(546,650,o),
(425,700,o),
(275,700,cs),
(88,700,l),
(88,587,l),
(275,587,ls),
(365,587,o),
(408,563,o),
(408,500,cs),
(408,437,o),
(365,411,o),
(275,411,cs),
(88,411,l),
(88,299,l),
(315,299,ls),
(395,299,o),
(448,276,o),
(448,206,cs),
(448,136,o),
(395,113,o),
(315,113,cs),
(108,113,l),
(108,0,l)
);
},
{
closed = 1;
nodes = (
(208,0,l),
(208,700,l),
(75,700,l),
(75,0,l)
);
}
);
width = 636;
},
{
layerId = m007;
shapes = (
{
closed = 1;
nodes = (
(300,0,ls),
(399,0,o),
(521,39,o),
(521,191,cs),
(521,294,o),
(448,361,o),
(338,361,c),
(338,357,l),
(438,357,o),
(481,441,o),
(481,515,cs),
(481,648,o),
(368,700,o),
(260,700,cs),
(103,700,l),
(103,647,l),
(260,647,ls),
(364,647,o),
(423,601,o),
(423,515,cs),
(423,429,o),
(364,382,o),
(260,382,cs),
(103,382,l),
(103,329,l),
(300,329,ls),
(394,329,o),
(463,288,o),
(463,191,cs),
(463,94,o),
(394,53,o),
(300,53,cs),
(123,53,l),
(123,0,l)
);
},
{
closed = 1;
nodes = (
(143,0,l),
(143,700,l),
(90,700,l),
(90,0,l)
);
}
);
width = 586;
},
{
layerId = m004;
shapes = (
{
closed = 1;
nodes = (
(256,0,ls),
(389,0,o),
(499,65,o),
(523,184,cs),
(543,287,o),
(486,361,o),
(394,361,c),
(393,357,l),
(477,357,o),
(530,428,o),
(545,503,cs),
(569,629,o),
(473,700,o),
(352,700,cs),
(185,700,l),
(171,627,l),
(338,627,ls),
(418,627,o),
(483,588,o),
(467,507,cs),
(452,427,o),
(376,392,o),
(292,392,cs),
(125,392,l),
(111,319,l),
(318,319,ls),
(401,319,o),
(463,277,o),
(447,193,cs),
(431,111,o),
(356,73,o),
(270,73,cs),
(83,73,l),
(69,0,l)
);
},
{
closed = 1;
nodes = (
(109,0,l),
(245,700,l),
(172,700,l),
(36,0,l)
);
}
);
width = 596;
},
{
layerId = m008;
shapes = (
{
closed = 1;
nodes = (
(286,0,ls),
(420,0,o),
(547,54,o),
(572,181,cs),
(594,292,o),
(520,367,o),
(412,367,c),
(412,352,l),
(507,352,o),
(577,407,o),
(594,498,cs),
(620,635,o),
(499,700,o),
(362,700,cs),
(175,700,l),
(153,587,l),
(340,587,ls),
(405,587,o),
(468,564,o),
(455,497,cs),
(443,432,o),
(375,411,o),
(306,411,cs),
(119,411,l),
(97,299,l),
(324,299,ls),
(393,299,o),
(452,273,o),
(438,204,cs),
(425,136,o),
(359,113,o),
(288,113,cs),
(81,113,l),
(59,0,l)
);
},
{
closed = 1;
nodes = (
(159,0,l),
(295,700,l),
(162,700,l),
(26,0,l)
);
}
);
width = 635;
},
{
layerId = m006;
shapes = (
{
closed = 1;
nodes = (
(251,0,ls),
(381,0,o),
(485,63,o),
(507,181,cs),
(528,291,o),
(461,361,o),
(359,361,c),
(358,357,l),
(451,357,o),
(515,424,o),
(532,510,cs),
(555,632,o),
(467,700,o),
(347,700,cs),
(190,700,l),
(180,647,l),
(337,647,ls),
(424,647,o),
(491,600,o),
(473,511,cs),
(456,425,o),
(376,382,o),
(285,382,cs),
(128,382,l),
(118,329,l),
(315,329,ls),
(404,329,o),
(468,278,o),
(450,187,cs),
(433,99,o),
(354,53,o),
(261,53,cs),
(84,53,l),
(74,0,l)
);
},
{
closed = 1;
nodes = (
(94,0,l),
(230,700,l),
(177,700,l),
(41,0,l)
);
}
);
width = 585;
}
);
metricLeft = H;
unicode = 66;
},
{
glyphname = C;
kernLeft = O;
kernRight = O;
lastChange = "2022-12-03 11:09:32 +0000";
layers = (
{
layerId = m01;
shapes = (
{
closed = 1;
nodes = (
(547,-16,o),
(661,103,o),
(677,267,c),
(598,277,l),
(587,153,o),
(506,57,o),
(382,57,cs),
(225,57,o),
(138,193,o),
(138,350,cs),
(138,507,o),
(225,642,o),
(382,642,cs),
(507,642,o),
(583,542,o),
(597,418,c),
(677,428,l),
(662,593,o),
(548,716,o),
(382,716,cs),
(181,716,o),
(60,551,o),
(60,350,cs),
(60,149,o),
(181,-16,o),
(382,-16,cs)
);
}
);
width = 742;
},
{
layerId = m005;
shapes = (
{
closed = 1;
nodes = (
(577,-16,o),
(715,98,o),
(719,273,c),
(581,283,l),
(575,177,o),
(508,97,o),
(402,97,cs),
(264,97,o),
(188,212,o),
(188,350,cs),
(188,488,o),
(264,602,o),
(402,602,cs),
(509,602,o),
(575,519,o),
(581,412,c),
(719,422,l),
(715,598,o),
(578,716,o),
(402,716,cs),
(191,716,o),
(50,561,o),
(50,350,cs),
(50,139,o),
(191,-16,o),
(402,-16,cs)
);
}
);
width = 774;
},
{
layerId = m007;
shapes = (
{
closed = 1;
nodes = (
(535,-16,o),
(643,101,o),
(661,258,c),
(602,266,l),
(586,139,o),
(505,37,o),
(377,37,cs),
(211,37,o),
(123,184,o),
(123,350,cs),
(123,516,o),
(211,662,o),
(377,662,cs),
(505,662,o),
(583,555,o),
(601,428,c),
(661,437,l),
(643,595,o),
(536,716,o),
(377,716,cs),
(178,716,o),
(65,549,o),
(65,350,cs),
(65,151,o),
(178,-16,o),
(377,-16,cs)
);
}
);
width = 731;
},
{
layerId = m004;
shapes = (
{
closed = 1;
nodes = (
(513,-16,o),
(633,109,o),
(680,267,c),
(603,277,l),
(568,156,o),
(481,57,o),
(355,57,cs),
(228,57,o),
(157,171,o),
(157,298,cs),
(157,478,o),
(253,642,o),
(433,642,cs),
(556,642,o),
(632,539,o),
(639,417,c),
(721,427,l),
(715,589,o),
(605,716,o),
(442,716,cs),
(215,716,o),
(79,523,o),
(79,296,cs),
(79,128,o),
(180,-16,o),
(348,-16,cs)
);
}
);
width = 752;
},
{
layerId = m008;
shapes = (
{
closed = 1;
nodes = (
(549,-16,o),
(692,101,o),
(737,273,c),
(601,284,l),
(571,178,o),
(491,97,o),
(386,97,cs),
(273,97,o),
(209,190,o),
(209,313,cs),
(209,458,o),
(297,602,o),
(447,602,cs),
(562,602,o),
(629,517,o),
(632,412,c),
(773,422,l),
(775,596,o),
(642,716,o),
(458,716,cs),
(232,716,o),
(71,534,o),
(71,313,cs),
(71,120,o),
(193,-16,o),
(378,-16,cs)
);
}
);
width = 795;
},
{
layerId = m006;
shapes = (
{
closed = 1;
nodes = (
(495,-16,o),
(611,106,o),
(658,259,c),
(601,266,l),
(563,142,o),
(474,37,o),
(345,37,cs),
(217,37,o),
(138,142,o),
(138,270,cs),
(138,472,o),
(241,662,o),
(443,662,cs),
(564,662,o),
(630,549,o),
(639,428,c),
(702,437,l),
(692,586,o),
(603,716,o),
(453,716,cs),
(215,716,o),
(80,508,o),
(80,270,cs),
(80,113,o),
(178,-16,o),
(335,-16,cs)
);
}
);
width = 736;
}
);
metricLeft = O;
metricRight = "=O+5";
unicode = 67;
},
{
glyphname = D;
kernLeft = H;
kernRight = O;
lastChange = "2022-12-03 11:09:32 +0000";
layers = (
{
layerId = m01;
shapes = (
{
closed = 1;
nodes = (
(285,0,ls),
(494,0,o),
(603,120,o),
(603,350,cs),
(603,580,o),
(494,700,o),
(285,700,cs),
(143,700,l),
(143,627,l),
(285,627,ls),
(447,627,o),
(525,537,o),
(525,350,cs),
(525,163,o),
(447,73,o),
(285,73,cs),
(143,73,l),
(143,0,l)
);
},
{
closed = 1;
nodes = (
(163,0,l),
(163,700,l),
(85,700,l),
(85,0,l)
);
}
);
width = 663;
},
{
layerId = m005;
shapes = (
{
closed = 1;
nodes = (
(305,0,ls),
(533,0,o),
(653,120,o),
(653,350,cs),
(653,580,o),
(533,700,o),
(305,700,cs),
(133,700,l),
(133,587,l),
(305,587,ls),
(455,587,o),
(515,519,o),
(515,350,cs),
(515,181,o),
(455,113,o),
(305,113,cs),
(133,113,l),
(133,0,l)
);
},
{
closed = 1;
nodes = (
(213,0,l),
(213,700,l),
(75,700,l),
(75,0,l)
);
}
);
width = 703;
},
{
layerId = m007;
shapes = (
{
closed = 1;
nodes = (
(280,0,ls),
(486,0,o),
(588,116,o),
(588,350,cs),
(588,584,o),
(486,700,o),
(280,700,cs),
(138,700,l),
(138,647,l),
(280,647,ls),
(449,647,o),
(530,551,o),
(530,350,cs),
(530,149,o),
(449,53,o),
(280,53,cs),
(138,53,l),
(138,0,l)
);
},
{
closed = 1;
nodes = (
(148,0,l),
(148,700,l),
(90,700,l),
(90,0,l)
);
}
);
width = 653;
},
{
layerId = m004;
shapes = (
{
closed = 1;
nodes = (
(236,0,ls),
(444,0,o),
(582,146,o),
(619,336,cs),
(658,539,o),
(565,700,o),
(372,700,cs),
(230,700,l),
(216,627,l),
(358,627,ls),
(512,627,o),
(574,502,o),
(543,345,cs),
(514,193,o),
(410,73,o),
(250,73,cs),
(108,73,l),
(94,0,l)
);
},
{
closed = 1;
nodes = (
(114,0,l),
(250,700,l),
(172,700,l),
(36,0,l)
);
}
);
width = 662;
},
{
layerId = m008;
shapes = (
{
closed = 1;
nodes = (
(276,0,ls),
(476,0,o),
(626,119,o),
(665,319,cs),
(706,525,o),
(605,700,o),
(392,700,cs),
(220,700,l),
(198,587,l),
(370,587,ls),
(505,587,o),
(561,483,o),
(534,346,cs),
(507,210,o),
(412,113,o),
(268,113,cs),
(106,113,l),
(84,0,l)
);
},
{
closed = 1;
nodes = (
(164,0,l),
(300,700,l),
(162,700,l),
(26,0,l)
);
}
);
width = 702;
},
{
layerId = m006;
shapes = (
{
closed = 1;
nodes = (
(231,0,ls),
(436,0,o),
(568,149,o),
(604,337,cs),
(643,537,o),
(558,700,o),
(367,700,cs),
(225,700,l),
(215,647,l),
(357,647,ls),
(518,647,o),
(580,508,o),
(547,341,cs),
(516,183,o),
(411,53,o),
(241,53,cs),
(99,53,l),
(89,0,l)
);
},
{
closed = 1;
nodes = (
(99,0,l),
(235,700,l),
(177,700,l),
(41,0,l)
);
}
);
width = 652;
}
);
metricLeft = H;
metricRight = O;
unicode = 68;
},
{
glyphname = Eth;
kernLeft = H;
kernRight = O;
lastChange = "2022-12-03 14:03:22 +0000";
layers = (
{
layerId = m01;
shapes = (
{
closed = 1;
nodes = (
(315,320,l),
(315,380,l),
(15,380,l),
(15,320,l)
);
},
{
ref = D;
}
);
width = 663;
},
{
layerId = m005;
shapes = (
{
closed = 1;
nodes = (
(325,305,l),
(325,395,l),
(5,395,l),
(5,305,l)
);
},
{
pos = (-5,0);
ref = D;
}
);
width = 698;
},
{
layerId = m007;
shapes = (
{
closed = 1;
nodes = (
(310,330,l),
(310,370,l),
(20,370,l),
(20,330,l)
);
},
{
ref = D;
}
);
width = 653;
},
{
layerId = m004;
shapes = (
{
closed = 1;
nodes = (
(329,320,l),
(341,380,l),
(41,380,l),
(29,320,l)
);
},
{
pos = (20,0);
ref = D;
}
);
width = 682;
},
{
layerId = m008;
shapes = (
{
closed = 1;
nodes = (
(336,305,l),
(354,395,l),
(34,395,l),
(16,305,l)
);
},
{
pos = (15,0);
ref = D;
}
);
width = 717;
},
{
layerId = m006;
shapes = (
{
closed = 1;
nodes = (
(326,330,l),
(334,370,l),
(44,370,l),
(36,330,l)
);
},
{
pos = (20,0);
ref = D;
}
);
width = 672;
}
);
metricLeft = "=D-70";
metricRight = D;
unicode = 208;
},
{
glyphname = Dcroat;
kernLeft = H;
kernRight = O;
lastChange = "2022-12-03 14:03:22 +0000";
layers = (
{
layerId = m01;
shapes = (
{
closed = 1;
nodes = (
(305,323,l),
(305,377,l),
(15,377,l),
(15,323,l)
);
},
{
pos = (20,0);
ref = D;
}
);
width = 683;
},
{
layerId = m005;
shapes = (
{
closed = 1;
nodes = (
(333,294,l),
(333,407,l),
(5,407,l),
(5,294,l)
);
},
{
pos = (15,0);
ref = D;
}
);
width = 718;
},
{
layerId = m007;
shapes = (
{
closed = 1;
nodes = (
(310,330,l),
(310,370,l),
(20,370,l),
(20,330,l)
);
},
{
pos = (15,0);
ref = D;
}
);
width = 668;
},
{
layerId = m004;
shapes = (
{
closed = 1;
nodes = (
(320,323,l),
(330,377,l),
(40,377,l),
(30,323,l)
);
},
{
pos = (40,0);
ref = D;
}
);
width = 702;
},
{
layerId = m008;
shapes = (
{
closed = 1;
nodes = (
(336,305,l),
(354,395,l),
(34,395,l),
(16,305,l)
);
},
{
pos = (35,0);
ref = D;
}
);
width = 737;
},
{
layerId = m006;
shapes = (
{
closed = 1;
nodes = (
(326,330,l),
(334,370,l),
(44,370,l),
(36,330,l)
);
},
{
pos = (35,0);
ref = D;
}
);
width = 687;
}
);
metricLeft = "=D-70";
metricRight = D;
unicode = 272;
},
{
glyphname = E;
kernLeft = H;
kernRight = E;
lastChange = "2022-11-25 14:12:14 +0000";
layers = (
{
layerId = m01;
shapes = (
{
closed = 1;
nodes = (
(163,0,l),
(163,700,l),
(85,700,l),
(85,0,l)
);
},
{
closed = 1;
nodes = (
(493,0,l),
(493,73,l),
(153,73,l),
(153,0,l)
);
},
{
closed = 1;
nodes = (
(433,327,l),
(433,400,l),
(153,400,l),
(153,327,l)
);
},
{
closed = 1;
nodes = (
(493,627,l),
(493,700,l),
(153,700,l),
(153,627,l)
);
}
);
width = 548;
},
{
layerId = m005;
shapes = (
{
closed = 1;
nodes = (
(213,0,l),
(213,700,l),
(75,700,l),
(75,0,l)
);
},
{
closed = 1;
nodes = (
(543,0,l),
(543,113,l),
(143,113,l),
(143,0,l)
);
},
{
closed = 1;
nodes = (
(483,307,l),
(483,420,l),
(143,420,l),
(143,307,l)
);
},
{
closed = 1;
nodes = (
(543,587,l),
(543,700,l),
(143,700,l),
(143,587,l)
);
}
);
width = 588;
},
{
layerId = m007;
shapes = (
{
closed = 1;
nodes = (
(148,0,l),
(148,700,l),
(90,700,l),
(90,0,l)
);
},
{
closed = 1;
nodes = (
(478,0,l),
(478,53,l),
(138,53,l),
(138,0,l)
);
},
{
closed = 1;
nodes = (
(418,337,l),
(418,390,l),
(138,390,l),
(138,337,l)
);
},
{
closed = 1;
nodes = (
(478,647,l),
(478,700,l),
(138,700,l),
(138,647,l)
);
}
);
width = 538;
},
{
layerId = m004;
shapes = (
{
closed = 1;
nodes = (
(114,0,l),
(250,700,l),
(172,700,l),
(36,0,l)
);
},
{
closed = 1;
nodes = (
(444,0,l),
(458,73,l),
(118,73,l),
(104,0,l)
);
},
{
closed = 1;
nodes = (
(448,327,l),
(462,400,l),
(182,400,l),
(168,327,l)
);
},
{
closed = 1;
nodes = (
(566,627,l),
(580,700,l),
(240,700,l),
(226,627,l)
);
}
);
width = 548;
},
{
layerId = m008;
shapes = (
{
closed = 1;
nodes = (
(164,0,l),
(300,700,l),
(162,700,l),
(26,0,l)
);
},
{
closed = 1;
nodes = (
(494,0,l),
(516,113,l),
(116,113,l),
(94,0,l)
);
},
{
closed = 1;
nodes = (
(494,307,l),
(516,420,l),
(176,420,l),
(154,307,l)
);
},
{
closed = 1;
nodes = (
(608,587,l),
(630,700,l),
(230,700,l),
(208,587,l)
);
}
);
width = 588;
},
{
layerId = m006;
shapes = (
{
closed = 1;
nodes = (
(99,0,l),
(235,700,l),
(177,700,l),
(41,0,l)
);
},
{
closed = 1;
nodes = (
(429,0,l),
(439,53,l),
(99,53,l),
(89,0,l)
);
},
{
closed = 1;
nodes = (
(434,337,l),
(445,390,l),
(165,390,l),
(154,337,l)
);
},
{
closed = 1;
nodes = (
(555,647,l),
(565,700,l),
(225,700,l),
(215,647,l)
);
}
);
width = 538;
}
);
metricLeft = H;
unicode = 69;
},
{
glyphname = F;
kernLeft = H;
kernRight = F;
lastChange = "2022-11-25 14:12:14 +0000";
layers = (
{
layerId = m01;
shapes = (
{
closed = 1;
nodes = (
(163,0,l),
(163,700,l),
(85,700,l),
(85,0,l)
);
},
{
closed = 1;
nodes = (
(443,327,l),
(443,400,l),
(153,400,l),
(153,327,l)
);
},
{
closed = 1;
nodes = (
(493,627,l),
(493,700,l),
(153,700,l),
(153,627,l)
);
}
);
width = 533;
},
{
layerId = m005;
shapes = (
{
closed = 1;
nodes = (
(213,0,l),
(213,700,l),
(75,700,l),
(75,0,l)
);
},
{
closed = 1;
nodes = (
(493,307,l),
(493,420,l),
(143,420,l),
(143,307,l)
);
},
{
closed = 1;
nodes = (
(543,587,l),
(543,700,l),
(143,700,l),
(143,587,l)
);
}
);
width = 573;
},
{
layerId = m007;
shapes = (
{
closed = 1;
nodes = (
(148,0,l),
(148,700,l),
(90,700,l),
(90,0,l)
);
},
{
closed = 1;
nodes = (
(428,337,l),
(428,390,l),
(138,390,l),
(138,337,l)
);
},
{
closed = 1;
nodes = (
(478,647,l),
(478,700,l),
(138,700,l),
(138,647,l)
);
}
);
width = 523;
},
{
layerId = m004;
shapes = (
{
closed = 1;
nodes = (
(114,0,l),
(250,700,l),
(172,700,l),
(36,0,l)
);
},
{
closed = 1;
nodes = (
(458,327,l),
(472,400,l),
(182,400,l),
(168,327,l)
);
},
{
closed = 1;
nodes = (
(566,627,l),
(580,700,l),
(240,700,l),
(226,627,l)
);
}
);
width = 533;
},
{
layerId = m008;
shapes = (
{
closed = 1;
nodes = (
(160,0,l),
(300,700,l),
(162,700,l),
(26,0,l)
);
},
{
closed = 1;
nodes = (
(504,307,l),
(526,420,l),
(176,420,l),
(154,307,l)
);
},
{
closed = 1;
nodes = (
(608,587,l),
(630,700,l),
(230,700,l),
(208,587,l)
);
}
);
width = 573;
},
{
layerId = m006;
shapes = (
{
closed = 1;
nodes = (
(99,0,l),
(235,700,l),
(177,700,l),
(41,0,l)
);
},
{
closed = 1;
nodes = (
(444,337,l),
(455,390,l),
(165,390,l),
(154,337,l)
);
},
{
closed = 1;
nodes = (
(555,647,l),
(565,700,l),
(225,700,l),
(215,647,l)
);
}
);
width = 523;
}
);
metricLeft = H;
unicode = 70;
},
{
glyphname = G;
kernLeft = O;
kernRight = G;
lastChange = "2022-12-03 11:09:32 +0000";
layers = (
{
layerId = m01;
shapes = (
{
closed = 1;
nodes = (
(561,-16,o),
(665,132,o),
(665,311,c),
(657,262,l),
(642,0,l),
(715,0,l),
(715,354,l),
(387,354,l),
(387,281,l),
(630,281,l),
(611,151,o),
(514,57,o),
(382,57,cs),
(225,57,o),
(138,193,o),
(138,350,cs),
(138,507,o),
(225,642,o),
(382,642,cs),
(511,642,o),
(604,550,o),
(612,421,c),
(690,431,l),
(678,599,o),
(551,715,o),
(382,715,cs),
(181,715,o),
(60,551,o),
(60,350,cs),
(60,149,o),
(181,-16,o),
(382,-16,cs)
);
}
);
width = 785;
},
{
layerId = m005;
shapes = (
{
closed = 1;
nodes = (
(578,-16,o),
(677,126,o),
(685,301,c),
(665,291,l),
(631,0,l),
(765,0,l),
(765,354,l),
(377,354,l),
(377,241,l),
(615,241,l),
(600,141,o),
(503,97,o),
(402,97,cs),
(264,97,o),
(188,212,o),
(188,350,cs),
(188,488,o),
(264,602,o),
(402,602,cs),
(512,602,o),
(596,534,o),
(602,425,c),
(741,435,l),
(736,613,o),
(580,715,o),
(402,715,cs),
(191,715,o),
(50,561,o),
(50,350,cs),
(50,138,o),
(190,-16,o),
(402,-16,cs)
);
}
);
width = 825;
},
{
layerId = m007;
shapes = (
{
closed = 1;
nodes = (
(553,-16,o),
(655,126,o),
(670,301,c),
(662,309,l),
(648,0,l),
(700,0,l),
(700,344,l),
(392,344,l),
(392,291,l),
(636,291,l),
(621,148,o),
(521,37,o),
(377,37,cs),
(211,37,o),
(123,184,o),
(123,350,cs),
(123,516,o),
(211,662,o),
(377,662,cs),
(510,662,o),
(602,565,o),
(616,432,c),
(674,440,l),
(657,601,o),
(538,715,o),
(377,715,cs),
(179,715,o),
(65,548,o),
(65,350,cs),
(65,152,o),
(179,-16,o),
(377,-16,cs)
);
}
);
width = 775;
},
{
layerId = m004;
shapes = (
{
closed = 1;
nodes = (
(522,-16,o),
(641,133,o),
(675,311,c),
(658,262,l),
(592,0,l),
(665,0,l),
(734,354,l),
(406,354,l),
(392,281,l),
(635,281,l),
(591,155,o),
(491,57,o),
(357,57,cs),
(231,57,o),
(156,164,o),
(156,290,cs),
(156,480,o),
(271,642,o),
(461,642,cs),
(583,642,o),
(662,543,o),
(664,421,c),
(744,431,l),
(739,592,o),
(626,715,o),
(465,715,cs),
(231,715,o),
(78,529,o),
(78,295,cs),
(78,129,o),
(175,-16,o),
(341,-16,cs)
);
}
);
width = 784;
},
{
layerId = m008;
shapes = (
{
closed = 1;
nodes = (
(528,-16,o),
(640,122,o),
(677,287,c),
(651,245,l),
(580,0,l),
(714,0,l),
(791,354,l),
(403,354,l),
(381,241,l),
(619,241,l),
(563,158,o),
(480,97,o),
(387,97,cs),
(271,97,o),
(209,193,o),
(209,313,cs),
(209,466,o),
(310,602,o),
(463,602,cs),
(577,602,o),
(652,527,o),
(657,424,c),
(797,434,l),
(790,604,o),
(654,715,o),
(472,715,cs),
(246,715,o),
(71,545,o),
(71,314,cs),
(71,130,o),
(182,-16,o),
(357,-16,cs)
);
}
);
width = 831;
},
{
layerId = m006;
shapes = (
{
closed = 1;
nodes = (
(519,-16,o),
(640,127,o),
(687,298,c),
(661,249,l),
(602,0,l),
(654,0,l),
(719,334,l),
(411,334,l),
(401,281,l),
(646,281,l),
(604,145,o),
(500,37,o),
(364,37,cs),
(222,37,o),
(143,155,o),
(143,307,cs),
(143,486,o),
(252,662,o),
(437,662,cs),
(577,662,o),
(664,561,o),
(671,432,c),
(731,440,l),
(722,596,o),
(614,715,o),
(443,715,cs),
(228,715,o),
(85,525,o),
(85,306,cs),
(85,130,o),
(177,-16,o),
(349,-16,cs)
);
}
);
width = 778;
}
);
metricLeft = O;
metricRight = "=H-15";
unicode = 71;
},
{
glyphname = H;
kernLeft = H;
kernRight = H;
lastChange = "2022-11-25 14:12:14 +0000";
layers = (
{
layerId = m01;
shapes = (
{
closed = 1;
nodes = (
(581,0,l),
(581,700,l),
(503,700,l),
(503,0,l)
);
},
{
closed = 1;
nodes = (
(163,0,l),
(163,700,l),
(85,700,l),
(85,0,l)
);
},
{
closed = 1;
nodes = (
(513,327,l),
(513,400,l),
(153,400,l),
(153,327,l)
);
}
);
width = 666;
},
{
layerId = m005;
shapes = (
{
closed = 1;
nodes = (
(631,0,l),
(631,700,l),
(493,700,l),
(493,0,l)
);
},
{
closed = 1;
nodes = (
(213,0,l),
(213,700,l),
(75,700,l),
(75,0,l)
);
},
{
closed = 1;
nodes = (
(563,307,l),
(563,420,l),
(143,420,l),
(143,307,l)
);
}
);
width = 706;
},
{
layerId = m007;
shapes = (
{
closed = 1;
nodes = (
(566,0,l),
(566,700,l),
(508,700,l),
(508,0,l)
);
},
{
closed = 1;
nodes = (
(148,0,l),
(148,700,l),
(90,700,l),
(90,0,l)
);
},
{
closed = 1;
nodes = (
(528,337,l),
(528,390,l),
(128,390,l),
(128,337,l)
);
}
);
width = 656;
},
{
layerId = m004;
shapes = (
{
closed = 1;
nodes = (
(532,0,l),
(668,700,l),
(590,700,l),
(454,0,l)
);
},
{
closed = 1;
nodes = (
(114,0,l),
(250,700,l),
(172,700,l),
(36,0,l)
);
},
{
closed = 1;
nodes = (
(528,327,l),
(542,400,l),
(182,400,l),
(168,327,l)
);
}
);
width = 666;
},
{
layerId = m008;
shapes = (
{
closed = 1;
nodes = (
(582,0,l),
(718,700,l),
(580,700,l),
(444,0,l)
);
},
{
closed = 1;
nodes = (
(164,0,l),
(300,700,l),
(162,700,l),
(26,0,l)
);
},
{
closed = 1;
nodes = (
(574,307,l),
(596,420,l),
(176,420,l),
(154,307,l)
);
}
);
width = 706;
},
{
layerId = m006;
shapes = (
{
closed = 1;
nodes = (
(517,0,l),
(653,700,l),
(595,700,l),
(459,0,l)
);
},
{
closed = 1;
nodes = (
(99,0,l),
(235,700,l),
(177,700,l),
(41,0,l)
);
},
{
closed = 1;
nodes = (
(544,337,l),
(555,390,l),
(155,390,l),
(144,337,l)
);
}
);
width = 656;
}
);
unicode = 72;
},
{
glyphname = Hbar;
kernLeft = H;
kernRight = H;
lastChange = "2022-11-25 14:12:14 +0000";
layers = (
{
layerId = m01;
shapes = (
{
closed = 1;
nodes = (
(656,530,l),
(656,590,l),
(20,590,l),
(20,530,l)
);
},
{
pos = (5,0);
ref = H;
}
);
width = 676;
},
{
layerId = m005;
shapes = (
{
closed = 1;
nodes = (
(676,520,l),
(676,600,l),
(10,600,l),
(10,520,l)
);
},
{
pos = (-10,0);
ref = H;
}
);
width = 686;
},
{
layerId = m007;
shapes = (
{
closed = 1;
nodes = (
(641,540,l),
(641,580,l),
(25,580,l),
(25,540,l)
);
},
{
pos = (5,0);
ref = H;
}
);
width = 666;
},
{
layerId = m004;
shapes = (
{
closed = 1;
nodes = (
(710,530,l),
(722,590,l),
(86,590,l),
(74,530,l)
);
},
{
pos = (9,0);
ref = H;
}
);
width = 676;
},
{
layerId = m008;
shapes = (
{
closed = 1;
nodes = (
(718,520,l),
(734,600,l),
(78,600,l),
(62,520,l)
);
},
{
pos = (-11,0);
ref = H;
}
);
width = 676;
},
{
layerId = m006;
shapes = (
{
closed = 1;
nodes = (
(697,540,l),
(705,580,l),
(89,580,l),
(81,540,l)
);
},
{
pos = (9,0);
ref = H;
}
);
width = 666;
}
);
metricLeft = "=H-65";
metricRight = "=H-65";
unicode = 294;
},
{
glyphname = I;
kernLeft = H;
kernRight = H;
lastChange = "2022-11-25 14:12:14 +0000";
layers = (
{
layerId = m01;
shapes = (
{
closed = 1;
nodes = (
(163,0,l),
(163,700,l),
(85,700,l),
(85,0,l)
);
}
);
width = 248;
},
{
layerId = m005;
shapes = (
{
closed = 1;
nodes = (
(213,0,l),
(213,700,l),
(75,700,l),
(75,0,l)
);
}
);
width = 288;
},
{
layerId = m007;
shapes = (
{
closed = 1;
nodes = (
(148,0,l),
(148,700,l),
(90,700,l),
(90,0,l)
);
}
);
width = 238;
},
{
layerId = m004;
shapes = (
{
closed = 1;
nodes = (
(114,0,l),
(250,700,l),
(172,700,l),
(36,0,l)
);
}
);
width = 248;
},
{
layerId = m008;
shapes = (
{
closed = 1;
nodes = (
(164,0,l),
(300,700,l),
(162,700,l),
(26,0,l)
);
}
);
width = 288;
},
{
layerId = m006;
shapes = (
{
closed = 1;
nodes = (
(99,0,l),
(235,700,l),
(177,700,l),
(41,0,l)
);
}
);
width = 238;
}
);
metricLeft = H;
metricRight = H;
unicode = 73;
},
{
glyphname = J;
kernLeft = J;
kernRight = U;
lastChange = "2022-12-03 11:08:38 +0000";
layers = (
{
layerId = m01;
shapes = (
{
closed = 1;
nodes = (
(389,-16,o),
(475,75,o),
(475,212,cs),
(475,700,l),
(397,700,l),
(397,212,ls),
(397,119,o),
(342,57,o),
(258,57,cs),
(174,57,o),
(118,119,o),
(118,212,cs),
(118,270,l),
(40,270,l),
(40,212,ls),
(40,75,o),
(127,-16,o),
(258,-16,cs)
);
}
);
width = 555;
},
{
layerId = m005;
shapes = (
{
closed = 1;
nodes = (
(423,-16,o),
(525,70,o),
(525,242,cs),
(525,700,l),
(387,700,l),
(387,242,ls),
(387,138,o),
(343,97,o),
(278,97,cs),
(213,97,o),
(168,138,o),
(168,242,cs),
(168,270,l),
(30,270,l),
(30,242,ls),
(30,70,o),
(132,-16,o),
(278,-16,cs)
);
}
);
width = 595;
},
{
layerId = m007;
shapes = (
{
closed = 1;
nodes = (
(383,-16,o),
(460,62,o),
(460,202,cs),
(460,700,l),
(402,700,l),
(402,202,ls),
(402,92,o),
(343,37,o),
(253,37,cs),
(163,37,o),
(103,92,o),
(103,202,cs),
(103,270,l),
(45,270,l),
(45,202,ls),
(45,62,o),
(123,-16,o),
(253,-16,cs)
);
}
);
width = 545;
},
{
layerId = m004;
shapes = (
{
closed = 1;
nodes = (
(327,-16,o),
(432,26,o),
(468,212,cs),
(563,700,l),
(485,700,l),
(390,212,ls),
(369,104,o),
(307,57,o),
(227,57,cs),
(147,57,o),
(91,104,o),
(111,212,cs),
(122,270,l),
(44,270,l),
(33,212,ls),
(9,84,o),
(87,-16,o),
(217,-16,cs)
);
}
);
width = 556;
},
{
layerId = m008;
shapes = (
{
closed = 1;
nodes = (
(397,-16,o),
(488,55,o),
(524,242,cs),
(613,700,l),
(475,700,l),
(386,242,ls),
(365,134,o),
(319,97,o),
(263,97,cs),
(199,97,o),
(149,144,o),
(167,242,cs),
(172,270,l),
(34,270,l),
(29,242,ls),
(4,104,o),
(81,-16,o),
(260,-16,cs)
);
}
);
width = 596;
},
{
layerId = m006;
shapes = (
{
closed = 1;
nodes = (
(335,-16,o),
(420,45,o),
(451,202,cs),
(548,700,l),
(490,700,l),
(393,202,ls),
(368,74,o),
(297,37,o),
(222,37,cs),
(137,37,o),
(71,84,o),
(94,202,cs),
(107,270,l),
(49,270,l),
(36,202,ls),
(12,74,o),
(85,-16,o),
(222,-16,cs)
);
}
);
width = 546;
}
);
unicode = 74;
},
{
glyphname = K;
kernLeft = H;
kernRight = K;
lastChange = "2022-11-25 14:12:14 +0000";
layers = (
{
layerId = m01;
shapes = (
{
closed = 1;
nodes = (
(557,700,l),
(467,700,l),
(101,280,l),
(154,234,l)
);
},
{
closed = 1;
nodes = (
(163,0,l),
(163,700,l),
(85,700,l),
(85,0,l)
);
},
{
closed = 1;
nodes = (
(586,0,l),
(307,422,l),
(239,392,l),
(496,0,l)
);
}
);
width = 606;
},
{
layerId = m005;
shapes = (
{
closed = 1;
nodes = (
(628,700,l),
(470,700,l),
(86,279,l),
(178,199,l)
);
},
{
closed = 1;
nodes = (
(213,0,l),
(213,700,l),
(75,700,l),
(75,0,l)
);
},
{
closed = 1;
nodes = (
(652,0,l),
(340,451,l),
(222,399,l),
(497,0,l)
);
}
);
width = 662;
},
{
layerId = m007;
shapes = (
{
closed = 1;
nodes = (
(530,700,l),
(467,700,l),
(110,281,l),
(148,248,l)
);
},
{
closed = 1;
nodes = (
(148,0,l),
(148,700,l),
(90,700,l),
(90,0,l)
);
},
{
closed = 1;
nodes = (
(562,0,l),
(280,437,l),
(249,388,l),
(496,0,l)
);
}
);
width = 587;
},
{
layerId = m004;
shapes = (
{
closed = 1;
nodes = (
(644,700,l),
(544,700,l),
(96,280,l),
(150,234,l)
);
},
{
closed = 1;
nodes = (
(114,0,l),
(250,700,l),
(172,700,l),
(36,0,l)
);
},
{
closed = 1;
nodes = (
(537,0,l),
(340,422,l),
(266,392,l),
(447,0,l)
);
}
);
width = 606;
},
{
layerId = m008;
shapes = (
{
closed = 1;
nodes = (
(715,700,l),
(542,700,l),
(114,313,l),
(168,199,l)
);
},
{
closed = 1;
nodes = (
(164,0,l),
(300,700,l),
(162,700,l),
(26,0,l)
);
},
{
closed = 1;
nodes = (
(603,0,l),
(379,451,l),
(251,399,l),
(448,0,l)
);
}
);
width = 662;
},
{
layerId = m006;
shapes = (
{
closed = 1;
nodes = (
(617,700,l),
(549,700,l),
(111,281,l),
(147,248,l)
);
},
{
closed = 1;
nodes = (
(99,0,l),
(235,700,l),
(177,700,l),
(41,0,l)
);
},
{
closed = 1;
nodes = (
(513,0,l),
(316,437,l),
(275,388,l),
(447,0,l)
);
}
);
width = 587;
}
);
metricLeft = H;
unicode = 75;
},
{
glyphname = L;
kernLeft = H;
kernRight = L;
lastChange = "2022-11-25 14:12:14 +0000";
layers = (
{
layerId = m01;
shapes = (
{
closed = 1;
nodes = (
(163,0,l),
(163,700,l),
(85,700,l),
(85,0,l)
);
},
{
closed = 1;
nodes = (
(488,0,l),
(488,73,l),
(148,73,l),
(148,0,l)
);
}
);
width = 508;
},
{
layerId = m005;
shapes = (
{
closed = 1;
nodes = (
(213,0,l),
(213,700,l),
(75,700,l),
(75,0,l)
);
},
{
closed = 1;
nodes = (
(538,0,l),
(538,113,l),
(138,113,l),
(138,0,l)
);
}
);
width = 548;
},
{
layerId = m007;
shapes = (
{
closed = 1;
nodes = (
(148,0,l),
(148,700,l),
(90,700,l),
(90,0,l)
);
},
{
closed = 1;
nodes = (
(473,0,l),
(473,53,l),
(133,53,l),
(133,0,l)
);
}
);
width = 498;
},
{
layerId = m004;
shapes = (
{
closed = 1;
nodes = (
(114,0,l),
(250,700,l),
(172,700,l),
(36,0,l)
);
},
{
closed = 1;
nodes = (
(439,0,l),
(453,73,l),
(113,73,l),
(99,0,l)
);
}
);
width = 508;
},
{
layerId = m008;
shapes = (
{
closed = 1;
nodes = (
(164,0,l),
(300,700,l),
(162,700,l),
(26,0,l)
);
},
{
closed = 1;
nodes = (
(489,0,l),
(511,113,l),
(111,113,l),
(89,0,l)
);
}
);
width = 548;
},
{
layerId = m006;
shapes = (
{
closed = 1;
nodes = (
(99,0,l),
(235,700,l),
(177,700,l),
(41,0,l)
);
},
{
closed = 1;
nodes = (
(424,0,l),
(434,53,l),
(94,53,l),
(84,0,l)
);
}
);
width = 498;
}
);
metricLeft = H;
unicode = 76;
},
{
glyphname = Lslash;
kernLeft = H;
kernRight = L;
lastChange = "2022-11-25 14:12:14 +0000";
layers = (
{
layerId = m01;
shapes = (
{
closed = 1;
nodes = (
(345,390,l),
(345,450,l),
(5,310,l),
(5,250,l)
);
},
{
ref = L;
}
);
width = 508;
},
{
layerId = m005;
shapes = (
{
closed = 1;
nodes = (
(355,373,l),
(355,475,l),
(-5,327,l),
(-5,225,l)
);
},
{
pos = (6,0);
ref = L;
}
);
width = 554;
},
{
layerId = m007;
shapes = (
{
closed = 1;
nodes = (
(330,402,l),
(330,440,l),
(10,298,l),
(10,260,l)
);
},
{
ref = L;
}
);
width = 498;
},
{
layerId = m004;
shapes = (
{
closed = 1;
nodes = (
(373,390,l),
(384,450,l),
(17,310,l),
(6,250,l)
);
},
{
pos = (5,0);
ref = L;
}
);
width = 513;
},
{
layerId = m008;
shapes = (
{
closed = 1;
nodes = (
(378,373,l),
(398,475,l),
(10,327,l),
(-10,225,l)
);
},
{
pos = (10,0);
ref = L;
}
);
width = 558;
},
{
layerId = m006;
shapes = (
{
closed = 1;
nodes = (
(359,402,l),
(366,440,l),
(19,298,l),
(12,260,l)
);
},
{
pos = (4,0);
ref = L;
}
);
width = 502;
}
);
metricLeft = "=L-80";
metricRight = L;
unicode = 321;
},
{
glyphname = M;
kernLeft = H;
kernRight = H;
lastChange = "2022-11-25 14:12:14 +0000";
layers = (
{
layerId = m01;
shapes = (
{
closed = 1;
nodes = (
(163,0,l),
(163,612,l),
(165,612,l),
(386,0,l),
(462,0,l),
(683,612,l),
(685,612,l),
(685,0,l),
(763,0,l),
(763,700,l),
(641,700,l),
(425,101,l),
(423,101,l),
(206,700,l),
(85,700,l),
(85,0,l)
);
}
);
width = 848;
},
{
layerId = m005;
shapes = (
{
closed = 1;
nodes = (
(213,0,l),
(213,572,l),
(172,572,l),
(393,0,l),
(495,0,l),
(716,572,l),
(675,572,l),
(675,0,l),
(813,0,l),
(813,700,l),
(633,700,l),
(417,131,l),
(471,131,l),
(254,700,l),
(75,700,l),
(75,0,l)
);
}
);
width = 888;
},
{
layerId = m007;
shapes = (
{
closed = 1;
nodes = (
(148,0,l),
(148,632,l),
(145,632,l),
(386,0,l),
(432,0,l),
(673,632,l),
(670,632,l),
(670,0,l),
(728,0,l),
(728,700,l),
(641,700,l),
(405,81,l),
(413,81,l),
(176,700,l),
(90,700,l),
(90,0,l)
);
}
);
width = 818;
},
{
layerId = m004;
shapes = (
{
closed = 1;
nodes = (
(114,0,l),
(233,612,l),
(235,612,l),
(337,0,l),
(413,0,l),
(753,612,l),
(755,612,l),
(636,0,l),
(714,0,l),
(850,700,l),
(728,700,l),
(396,101,l),
(394,101,l),
(293,700,l),
(172,700,l),
(36,0,l)
);
}
);
width = 848;
},
{
layerId = m008;
shapes = (
{
closed = 1;
nodes = (
(159,0,l),
(270,572,l),
(229,572,l),
(339,0,l),
(446,0,l),
(778,572,l),
(732,572,l),
(621,0,l),
(764,0,l),
(900,700,l),
(715,700,l),
(388,131,l),
(442,131,l),
(336,700,l),
(162,700,l),
(26,0,l)
);
}
);
width = 888;
},
{
layerId = m006;
shapes = (
{
closed = 1;
nodes = (
(99,0,l),
(222,632,l),
(219,632,l),
(337,0,l),
(383,0,l),
(747,632,l),
(744,632,l),
(621,0,l),
(679,0,l),
(815,700,l),
(728,700,l),
(372,81,l),
(380,81,l),
(263,700,l),
(177,700,l),
(41,0,l)
);
}
);
width = 818;
}
);
metricLeft = H;
metricRight = H;
unicode = 77;
},
{
glyphname = N;
kernLeft = H;
kernRight = H;
lastChange = "2022-11-25 14:12:14 +0000";
layers = (
{
layerId = m01;
shapes = (
{
closed = 1;
nodes = (
(611,0,l),
(184,700,l),
(105,700,l),
(532,0,l)
);
},
{
closed = 1;
nodes = (
(164,0,l),
(164,700,l),
(85,700,l),
(85,0,l)
);
},
{
closed = 1;
nodes = (
(631,0,l),
(631,700,l),
(552,700,l),
(552,0,l)
);
}
);
width = 716;
},
{
layerId = m005;
shapes = (
{
closed = 1;
nodes = (
(665,0,l),
(224,700,l),
(81,700,l),
(522,0,l)
);
},
{
closed = 1;
nodes = (
(214,0,l),
(214,700,l),
(75,700,l),
(75,0,l)
);
},
{
closed = 1;
nodes = (
(671,0,l),
(671,700,l),
(532,700,l),
(532,0,l)
);
}
);
width = 746;
},
{
layerId = m007;
shapes = (
{
closed = 1;
nodes = (
(593,0,l),
(168,700,l),
(108,700,l),
(533,0,l)
);
},
{
closed = 1;
nodes = (
(149,0,l),
(149,700,l),
(90,700,l),
(90,0,l)
);
},
{
closed = 1;
nodes = (
(611,0,l),
(611,700,l),
(552,700,l),
(552,0,l)
);
}
);
width = 701;
},
{
layerId = m004;
shapes = (
{
closed = 1;
nodes = (
(562,0,l),
(271,700,l),
(192,700,l),
(483,0,l)
);
},
{
closed = 1;
nodes = (
(115,0,l),
(251,700,l),
(172,700,l),
(36,0,l)
);
},
{
closed = 1;
nodes = (
(582,0,l),
(718,700,l),
(639,700,l),
(503,0,l)
);
}
);
width = 716;
},
{
layerId = m008;
shapes = (
{
closed = 1;
nodes = (
(611,0,l),
(306,700,l),
(163,700,l),
(468,0,l)
);
},
{
closed = 1;
nodes = (
(160,0,l),
(296,700,l),
(162,700,l),
(26,0,l)
);
},
{
closed = 1;
nodes = (
(622,0,l),
(758,700,l),
(614,700,l),
(478,0,l)
);
}
);
width = 746;
},
{
layerId = m006;
shapes = (
{
closed = 1;
nodes = (
(544,0,l),
(255,700,l),
(195,700,l),
(484,0,l)
);
},
{
closed = 1;
nodes = (
(100,0,l),
(236,700,l),
(177,700,l),
(41,0,l)
);
},
{
closed = 1;
nodes = (
(562,0,l),
(698,700,l),
(639,700,l),
(503,0,l)
);
}
);
width = 701;
}
);
metricLeft = H;
metricRight = H;
unicode = 78;
},
{
glyphname = Eng;
kernLeft = H;
kernRight = H;
lastChange = "2022-11-29 23:47:55 +0000";
layers = (
{
layerId = m01;
shapes = (
{
closed = 1;
nodes = (
(491,-200,ls),
(585,-200,o),
(631,-154,o),
(631,-60,cs),
(631,0,l),
(556,0,l),
(556,-67,ls),
(556,-107,o),
(536,-127,o),
(496,-127,cs),
(406,-127,l),
(406,-200,l)
);
},
{
ref = N;
}
);
width = 716;
},
{
layerId = m005;
shapes = (
{
closed = 1;
nodes = (
(501,-200,ls),
(615,-200,o),
(671,-147,o),
(671,-40,cs),
(671,0,l),
(536,0,l),
(536,-27,ls),
(536,-67,o),
(516,-87,o),
(476,-87,cs),
(386,-87,l),
(386,-200,l)
);
},
{
ref = N;
}
);
width = 746;
},
{
layerId = m007;
shapes = (
{
closed = 1;
nodes = (
(481,-200,ls),
(568,-200,o),
(611,-157,o),
(611,-70,cs),
(611,0,l),
(556,0,l),
(556,-77,ls),
(556,-124,o),
(533,-147,o),
(486,-147,cs),
(406,-147,l),
(406,-200,l)
);
},
{
ref = N;
}
);
width = 701;
},
{
layerId = m004;
shapes = (
{
closed = 1;
nodes = (
(403,-200,ls),
(497,-200,o),
(552,-151,o),
(570,-60,cs),
(582,0,l),
(507,0,l),
(494,-67,ls),
(486,-109,o),
(462,-127,o),
(422,-127,cs),
(332,-127,l),
(318,-200,l)
);
},
{
ref = N;
}
);
width = 716;
},
{
layerId = m008;
shapes = (
{
closed = 1;
nodes = (
(433,-200,ls),
(534,-200,o),
(592,-156,o),
(609,-67,cs),
(622,0,l),
(487,0,l),
(482,-27,ls),
(475,-65,o),
(453,-87,o),
(420,-87,cs),
(320,-87,l),
(298,-200,l)
);
},
{
ref = N;
}
);
width = 746;
},
{
layerId = m006;
shapes = (
{
closed = 1;
nodes = (
(393,-200,ls),
(481,-200,o),
(531,-156,o),
(548,-70,cs),
(562,0,l),
(507,0,l),
(492,-77,ls),
(483,-124,o),
(455,-147,o),
(408,-147,cs),
(328,-147,l),
(318,-200,l)
);
},
{
ref = N;
}
);
width = 701;
}
);
metricLeft = N;
metricRight = H;
unicode = 330;
},
{
glyphname = O;
kernLeft = O;
kernRight = O;
lastChange = "2022-12-03 11:09:09 +0000";
layers = (
{
layerId = m01;
shapes = (
{
closed = 1;
nodes = (
(583,-16,o),
(704,149,o),
(704,350,cs),
(704,551,o),
(583,716,o),
(382,716,cs),
(181,716,o),
(60,551,o),
(60,350,cs),
(60,149,o),
(181,-16,o),
(382,-16,cs)
);
},
{
closed = 1;
nodes = (
(225,57,o),
(138,193,o),
(138,350,cs),
(138,507,o),
(225,643,o),
(382,643,cs),
(539,643,o),
(626,507,o),
(626,350,cs),
(626,193,o),
(539,57,o),
(382,57,cs)
);
}
);
width = 764;
},
{
layerId = m005;
shapes = (
{
closed = 1;
nodes = (
(613,-16,o),
(754,139,o),
(754,350,cs),
(754,561,o),
(613,716,o),
(402,716,cs),
(191,716,o),
(50,561,o),
(50,350,cs),
(50,139,o),
(191,-16,o),
(402,-16,cs)
);
},
{
closed = 1;
nodes = (
(264,97,o),
(188,212,o),
(188,350,cs),
(188,488,o),
(264,603,o),
(402,603,cs),
(540,603,o),
(616,488,o),
(616,350,cs),
(616,212,o),
(540,97,o),
(402,97,cs)
);
}
);
width = 804;
},
{
layerId = m007;
shapes = (
{
closed = 1;
nodes = (
(576,-16,o),
(689,151,o),
(689,350,cs),
(689,549,o),
(576,716,o),
(377,716,cs),
(178,716,o),
(65,549,o),
(65,350,cs),
(65,151,o),
(178,-16,o),
(377,-16,cs)
);
},
{
closed = 1;
nodes = (
(211,37,o),
(123,184,o),
(123,350,cs),
(123,516,o),
(211,663,o),
(377,663,cs),
(543,663,o),
(631,516,o),
(631,350,cs),
(631,184,o),
(543,37,o),
(377,37,cs)
);
}
);
width = 754;
},
{
layerId = m004;
shapes = (
{
closed = 1;
nodes = (
(579,-16,o),
(722,182,o),
(722,395,cs),
(722,581,o),
(623,716,o),
(440,716,cs),
(221,716,o),
(78,509,o),
(78,296,cs),
(78,110,o),
(183,-16,o),
(359,-16,cs)
);
},
{
closed = 1;
nodes = (
(233,57,o),
(156,151,o),
(156,298,cs),
(156,461,o),
(259,643,o),
(433,643,cs),
(572,643,o),
(644,537,o),
(644,394,cs),
(644,225,o),
(542,57,o),
(365,57,cs)
);
}
);
width = 763;
},
{
layerId = m008;
shapes = (
{
closed = 1;
nodes = (
(612,-16,o),
(775,157,o),
(775,378,cs),
(775,573,o),
(648,716,o),
(451,716,cs),
(229,716,o),
(71,535,o),
(71,317,cs),
(71,120,o),
(200,-16,o),
(394,-16,cs)
);
},
{
closed = 1;
nodes = (
(278,97,o),
(209,191,o),
(209,318,cs),
(209,461,o),
(297,603,o),
(445,603,cs),
(570,603,o),
(637,503,o),
(637,378,cs),
(637,232,o),
(546,97,o),
(400,97,cs)
);
}
);
width = 808;
},
{
layerId = m006;
shapes = (
{
closed = 1;
nodes = (
(572,-16,o),
(707,187,o),
(707,396,cs),
(707,580,o),
(614,716,o),
(434,716,cs),
(218,716,o),
(83,505,o),
(83,295,cs),
(83,112,o),
(182,-16,o),
(355,-16,cs)
);
},
{
closed = 1;
nodes = (
(220,37,o),
(141,142,o),
(141,299,cs),
(141,471,o),
(245,663,o),
(428,663,cs),
(576,663,o),
(649,546,o),
(649,394,cs),
(649,217,o),
(547,37,o),
(362,37,cs)
);
}
);
width = 753;
}
);
unicode = 79;
},
{
glyphname = Oslash;
kernLeft = O;
kernRight = O;
lastChange = "2022-11-29 07:47:54 +0000";
layers = (
{
layerId = m01;
shapes = (
{
closed = 1;
nodes = (
(98,-66,l),
(753,765,l),
(665,765,l),
(10,-66,l)
);
},
{
ref = O;
}
);
width = 763;
},
{
layerId = m005;
shapes = (
{
closed = 1;
nodes = (
(119,-66,l),
(765,765,l),
(646,765,l),
(0,-66,l)
);
},
{
pos = (-19,0);
ref = O;
}
);
width = 765;
},
{
layerId = m007;
shapes = (
{
closed = 1;
nodes = (
(77,-56,l),
(716,755,l),
(654,755,l),
(15,-56,l)
);
},
{
pos = (-11,0);
ref = O;
}
);
width = 731;
},
{
layerId = m004;
shapes = (
{
closed = 1;
nodes = (
(37,-66,l),
(854,765,l),
(766,765,l),
(-51,-66,l)
);
},
{
pos = (2,0);
ref = O;
}
);
width = 764;
},
{
layerId = m008;
shapes = (
{
closed = 1;
nodes = (
(58,-66,l),
(866,765,l),
(747,765,l),
(-61,-66,l)
);
},
{
pos = (-18,0);
ref = O;
}
);
width = 766;
},
{
layerId = m006;
shapes = (
{
closed = 1;
nodes = (
(18,-56,l),
(815,755,l),
(753,755,l),
(-44,-56,l)
);
},
{
pos = (-9,0);
ref = O;
}
);
width = 732;
}
);
metricLeft = "=O-50";
metricRight = "=O-50";
unicode = 216;
},
{
glyphname = P;
kernLeft = H;
kernRight = P;
lastChange = "2022-11-29 07:26:51 +0000";
layers = (
{
layerId = m01;
shapes = (
{
closed = 1;
nodes = (
(325,309,ls),
(450,309,o),
(536,389,o),
(536,504,cs),
(536,621,o),
(451,700,o),
(325,700,cs),
(118,700,l),
(118,627,l),
(325,627,ls),
(405,627,o),
(458,578,o),
(458,504,cs),
(458,431,o),
(404,382,o),
(325,382,cs),
(118,382,l),
(118,309,l)
);
},
{
closed = 1;
nodes = (
(163,0,l),
(163,700,l),
(85,700,l),
(85,0,l)
);
}
);
width = 576;
},
{
layerId = m005;
shapes = (
{
closed = 1;
nodes = (
(315,268,ls),
(460,268,o),
(586,339,o),
(586,484,cs),
(586,629,o),
(460,700,o),
(315,700,cs),
(108,700,l),
(108,587,l),
(315,587,ls),
(387,587,o),
(448,556,o),
(448,484,cs),
(448,412,o),
(387,381,o),
(315,381,cs),
(108,381,l),
(108,268,l)
);
},
{
closed = 1;
nodes = (
(213,0,l),
(213,700,l),
(75,700,l),
(75,0,l)
);
}
);
width = 616;
},
{
layerId = m007;
shapes = (
{
closed = 1;
nodes = (
(300,329,ls),
(435,329,o),
(521,401,o),
(521,514,cs),
(521,632,o),
(440,700,o),
(300,700,cs),
(123,700,l),
(123,647,l),
(300,647,ls),
(406,647,o),
(463,601,o),
(463,514,cs),
(463,427,o),
(407,382,o),
(300,382,cs),
(123,382,l),
(123,329,l)
);
},
{
closed = 1;
nodes = (
(148,0,l),
(148,700,l),
(90,700,l),
(90,0,l)
);
}
);
width = 566;
},
{
layerId = m004;
shapes = (
{
closed = 1;
nodes = (
(316,309,ls),
(476,309,o),
(562,386,o),
(582,487,cs),
(604,602,o),
(532,700,o),
(392,700,cs),
(205,700,l),
(191,627,l),
(378,627,ls),
(468,627,o),
(522,583,o),
(506,500,cs),
(490,416,o),
(420,382,o),
(330,382,cs),
(143,382,l),
(129,309,l)
);
},
{
closed = 1;
nodes = (
(114,0,l),
(250,700,l),
(172,700,l),
(36,0,l)
);
}
);
width = 576;
},
{
layerId = m008;
shapes = (
{
closed = 1;
nodes = (
(318,268,ls),
(478,268,o),
(601,327,o),
(629,470,cs),
(656,612,o),
(562,700,o),
(402,700,cs),
(195,700,l),
(173,587,l),
(380,587,ls),
(460,587,o),
(509,562,o),
(493,483,cs),
(477,406,o),
(420,381,o),
(340,381,cs),
(133,381,l),
(111,268,l)
);
},
{
closed = 1;
nodes = (
(164,0,l),
(300,700,l),
(162,700,l),
(26,0,l)
);
}
);
width = 616;
},
{
layerId = m006;
shapes = (
{
closed = 1;
nodes = (
(315,329,ls),
(438,329,o),
(548,388,o),
(571,509,cs),
(594,625,o),
(505,700,o),
(387,700,cs),
(210,700,l),
(200,647,l),
(377,647,ls),
(462,647,o),
(531,603,o),
(515,519,cs),
(497,428,o),
(417,382,o),
(325,382,cs),
(148,382,l),
(138,329,l)
);
},
{
closed = 1;
nodes = (
(99,0,l),
(235,700,l),
(177,700,l),
(41,0,l)
);
}
);
width = 566;
}
);
metricLeft = H;
unicode = 80;
},
{
glyphname = Thorn;
kernLeft = H;
kernRight = o;
lastChange = "2022-11-29 07:28:35 +0000";
layers = (
{
layerId = m01;
shapes = (
{
closed = 1;
nodes = (
(325,155,ls),
(450,155,o),
(536,235,o),
(536,350,cs),
(536,467,o),
(451,546,o),
(325,546,cs),
(118,546,l),
(118,473,l),
(325,473,ls),
(405,473,o),
(458,424,o),
(458,350,cs),
(458,277,o),
(404,228,o),
(325,228,cs),
(118,228,l),
(118,155,l)
);
},
{
closed = 1;
nodes = (
(163,0,l),
(163,700,l),
(85,700,l),
(85,0,l)
);
}
);
width = 596;
},
{
layerId = m005;
shapes = (
{
closed = 1;
nodes = (
(315,134,ls),
(460,134,o),
(586,205,o),
(586,350,cs),
(586,495,o),
(460,566,o),
(315,566,cs),
(108,566,l),
(108,453,l),
(315,453,ls),
(387,453,o),
(448,422,o),
(448,350,cs),
(448,278,o),
(387,247,o),
(315,247,cs),
(108,247,l),
(108,134,l)
);
},
{
closed = 1;
nodes = (
(213,0,l),
(213,700,l),
(75,700,l),
(75,0,l)
);
}
);
width = 636;
},
{
layerId = m007;
shapes = (
{
closed = 1;
nodes = (
(300,165,ls),
(435,165,o),
(521,237,o),
(521,350,cs),
(521,468,o),
(440,536,o),
(300,536,cs),
(123,536,l),
(123,483,l),
(300,483,ls),
(406,483,o),
(463,437,o),
(463,350,cs),
(463,263,o),
(407,218,o),
(300,218,cs),
(123,218,l),
(123,165,l)
);
},
{
closed = 1;
nodes = (
(148,0,l),
(148,700,l),
(90,700,l),
(90,0,l)
);
}
);
width = 586;
},
{
layerId = m004;
shapes = (
{
closed = 1;
nodes = (
(286,155,ls),
(446,155,o),
(532,232,o),
(552,333,cs),
(574,448,o),
(502,546,o),
(362,546,cs),
(175,546,l),
(161,473,l),
(348,473,ls),
(438,473,o),
(492,429,o),
(476,346,cs),
(460,262,o),
(390,228,o),
(300,228,cs),
(113,228,l),
(99,155,l)
);
},
{
closed = 1;
nodes = (
(114,0,l),
(250,700,l),
(172,700,l),
(36,0,l)
);
}
);
width = 596;
},
{
layerId = m008;
shapes = (
{
closed = 1;
nodes = (
(292,134,ls),
(452,134,o),
(575,193,o),
(603,336,cs),
(630,478,o),
(536,566,o),
(376,566,cs),
(169,566,l),
(147,453,l),
(354,453,ls),
(434,453,o),
(483,428,o),
(467,349,cs),
(451,272,o),
(394,247,o),
(314,247,cs),
(107,247,l),
(85,134,l)
);
},
{
closed = 1;
nodes = (
(164,0,l),
(300,700,l),
(162,700,l),
(26,0,l)
);
}
);
width = 636;
},
{
layerId = m006;
shapes = (
{
closed = 1;
nodes = (
(283,165,ls),
(406,165,o),
(516,224,o),
(539,345,cs),
(562,461,o),
(473,536,o),
(355,536,cs),
(178,536,l),
(168,483,l),
(345,483,ls),
(430,483,o),
(499,439,o),
(483,355,cs),
(465,264,o),
(385,218,o),
(293,218,cs),
(116,218,l),
(106,165,l)
);
},
{
closed = 1;
nodes = (
(99,0,l),
(235,700,l),
(177,700,l),
(41,0,l)
);
}
);
width = 586;
}
);
metricLeft = H;
metricRight = B;
unicode = 222;
},
{
glyphname = Q;
kernLeft = O;
kernRight = Q;
lastChange = "2022-11-29 07:47:54 +0000";
layers = (
{
layerId = m01;
shapes = (
{
closed = 1;
nodes = (
(751,-66,l),
(416,346,l),
(328,346,l),
(663,-66,l)
);
},
{
ref = O;
}
);
width = 791;
},
{
layerId = m005;
shapes = (
{
closed = 1;
nodes = (
(781,-66,l),
(463,366,l),
(308,366,l),
(626,-66,l)
);
},
{
ref = O;
}
);
width = 811;
},
{
layerId = m007;
shapes = (
{
closed = 1;
nodes = (
(730,-66,l),
(401,346,l),
(339,346,l),
(668,-66,l)
);
},
{
ref = O;
}
);
width = 775;
},
{
layerId = m004;
shapes = (
{
closed = 1;
nodes = (
(690,-66,l),
(435,346,l),
(347,346,l),
(602,-66,l)
);
},
{
ref = O;
}
);
width = 791;
},
{
layerId = m008;
shapes = (
{
closed = 1;
nodes = (
(720,-66,l),
(486,366,l),
(351,366,l),
(585,-66,l)
);
},
{
ref = O;
}
);
width = 811;
},
{
layerId = m006;
shapes = (
{
closed = 1;
nodes = (
(669,-66,l),
(420,346,l),
(358,346,l),
(607,-66,l)
);
},
{
ref = O;
}
);
width = 775;
}
);
metricLeft = O;
metricRight = "=O-20";
unicode = 81;
},
{
glyphname = R;
kernLeft = H;
kernRight = R;
lastChange = "2022-11-30 00:24:38 +0000";
layers = (
{
layerId = m01;
shapes = (
{
closed = 1;
nodes = (
(163,0,l),
(163,309,l),
(326,309,ls),
(420,309,o),
(450,279,o),
(456,174,cs),
(466,0,l),
(546,0,l),
(536,159,ls),
(527,309,o),
(493,342,o),
(350,342,c),
(350,340,l),
(467,340,o),
(536,397,o),
(536,504,cs),
(536,621,o),
(451,700,o),
(325,700,cs),
(85,700,l),
(85,0,l)
);
},
{
closed = 1;
nodes = (
(163,627,l),
(325,627,ls),
(405,627,o),
(458,578,o),
(458,504,cs),
(458,431,o),
(404,382,o),
(325,382,cs),
(163,382,l)
);
}
);
width = 611;
},
{
layerId = m005;
shapes = (
{
closed = 1;
nodes = (
(213,0,l),
(213,268,l),
(315,268,ls),
(435,268,o),
(440,233,o),
(446,153,cs),
(457,0,l),
(597,0,l),
(586,140,ls),
(573,309,o),
(540,322,o),
(360,322,c),
(360,317,l),
(460,317,o),
(586,340,o),
(586,486,cs),
(586,624,o),
(475,700,o),
(315,700,cs),
(75,700,l),
(75,0,l)
);
},
{
closed = 1;
nodes = (
(213,587,l),
(315,587,ls),
(395,587,o),
(448,554,o),
(448,484,cs),
(448,414,o),
(395,381,o),
(315,381,cs),
(213,381,l)
);
}
);
width = 652;
},
{
layerId = m007;
shapes = (
{
closed = 1;
nodes = (
(148,0,l),
(148,329,l),
(321,329,ls),
(445,329,o),
(457,268,o),
(461,185,cs),
(470,0,l),
(530,0,l),
(521,168,ls),
(513,317,o),
(481,352,o),
(355,352,c),
(355,350,l),
(443,350,o),
(521,401,o),
(521,516,cs),
(521,643,o),
(427,700,o),
(300,700,cs),
(90,700,l),
(90,0,l)
);
},
{
closed = 1;
nodes = (
(148,647,l),
(300,647,ls),
(394,647,o),
(463,611,o),
(463,514,cs),
(463,417,o),
(394,382,o),
(300,382,cs),
(148,382,l)
);
}
);
width = 600;
},
{
layerId = m004;
shapes = (
{
closed = 1;
nodes = (
(114,0,l),
(174,309,l),
(337,309,ls),
(423,309,o),
(455,275,o),
(444,194,cs),
(417,0,l),
(497,0,l),
(520,179,ls),
(536,294,o),
(490,342,o),
(367,342,c),
(367,340,l),
(484,340,o),
(565,401,o),
(583,495,cs),
(604,602,o),
(532,700,o),
(392,700,cs),
(172,700,l),
(36,0,l)
);
},
{
closed = 1;
nodes = (
(236,627,l),
(378,627,ls),
(474,627,o),
(522,581,o),
(507,504,cs),
(492,428,o),
(426,382,o),
(330,382,cs),
(188,382,l)
);
}
);
width = 611;
},
{
layerId = m008;
shapes = (
{
closed = 1;
nodes = (
(164,0,l),
(216,268,l),
(318,268,ls),
(402,268,o),
(434,240,o),
(427,173,cs),
(408,0,l),
(548,0,l),
(564,160,ls),
(576,275,o),
(520,324,o),
(374,324,c),
(373,315,l),
(514,315,o),
(610,378,o),
(632,493,cs),
(657,619,o),
(572,700,o),
(402,700,cs),
(162,700,l),
(26,0,l)
);
},
{
closed = 1;
nodes = (
(278,587,l),
(380,587,ls),
(464,587,o),
(506,549,o),
(493,484,cs),
(480,419,o),
(423,381,o),
(340,381,cs),
(238,381,l)
);
}
);
width = 652;
},
{
layerId = m006;
shapes = (
{
closed = 1;
nodes = (
(99,0,l),
(163,329,l),
(336,329,ls),
(429,329,o),
(463,292,o),
(451,205,cs),
(421,0,l),
(481,0,l),
(508,188,ls),
(524,303,o),
(484,352,o),
(374,352,c),
(374,350,l),
(475,350,o),
(553,414,o),
(572,513,cs),
(595,630,o),
(506,700,o),
(387,700,cs),
(177,700,l),
(41,0,l)
);
},
{
closed = 1;
nodes = (
(225,647,l),
(377,647,ls),
(463,647,o),
(530,598,o),
(514,514,cs),
(497,425,o),
(416,382,o),
(325,382,cs),
(173,382,l)
);
}
);
width = 600;
}
);
metricLeft = H;
unicode = 82;
},
{
glyphname = S;
kernLeft = S;
kernRight = S;
lastChange = "2022-12-03 16:34:48 +0000";
layers = (
{
layerId = m01;
shapes = (
{
closed = 1;
nodes = (
(426,-16,o),
(541,52,o),
(541,181,cs),
(541,425,o),
(162,364,o),
(162,529,cs),
(162,596,o),
(224,643,o),
(293,643,cs),
(375,643,o),
(436,578,o),
(436,498,c),
(514,508,l),
(514,623,o),
(418,716,o),
(295,716,cs),
(181,716,o),
(84,636,o),
(84,520,cs),
(84,290,o),
(463,372,o),
(463,181,cs),
(463,98,o),
(383,57,o),
(310,57,cs),
(196,57,o),
(123,155,o),
(123,276,c),
(45,266,l),
(45,110,o),
(152,-16,o),
(310,-16,cs)
);
}
);
width = 591;
},
{
layerId = m005;
shapes = (
{
closed = 1;
nodes = (
(467,-16,o),
(591,67,o),
(591,201,cs),
(591,443,o),
(212,382,o),
(212,520,cs),
(212,569,o),
(260,603,o),
(313,603,cs),
(378,603,o),
(425,553,o),
(425,491,c),
(563,501,l),
(563,620,o),
(454,716,o),
(316,716,cs),
(184,716,o),
(74,627,o),
(74,502,cs),
(74,269,o),
(453,355,o),
(453,191,cs),
(453,129,o),
(389,97,o),
(330,97,cs),
(235,97,o),
(174,180,o),
(174,273,c),
(35,263,l),
(35,113,o),
(160,-16,o),
(330,-16,cs)
);
}
);
width = 631;
},
{
layerId = m007;
shapes = (
{
closed = 1;
nodes = (
(416,-16,o),
(526,51,o),
(526,171,cs),
(526,406,o),
(147,362,o),
(147,538,cs),
(147,611,o),
(213,663,o),
(289,663,cs),
(376,663,o),
(441,594,o),
(441,509,c),
(499,517,l),
(499,627,o),
(408,716,o),
(290,716,cs),
(181,716,o),
(89,641,o),
(89,533,cs),
(89,313,o),
(468,368,o),
(468,171,cs),
(468,84,o),
(384,37,o),
(305,37,cs),
(189,37,o),
(112,139,o),
(108,265,c),
(50,257,l),
(53,106,o),
(156,-16,o),
(305,-16,cs)
);
}
);
width = 581;
},
{
layerId = m004;
shapes = (
{
closed = 1;
nodes = (
(419,-16,o),
(523,67,o),
(523,191,cs),
(523,401,o),
(231,391,o),
(231,528,cs),
(231,593,o),
(298,643,o),
(366,643,cs),
(444,643,o),
(494,578,o),
(494,498,c),
(574,508,l),
(574,623,o),
(481,716,o),
(366,716,cs),
(254,716,o),
(159,628,o),
(153,528,cs),
(143,345,o),
(446,350,o),
(446,191,cs),
(446,116,o),
(378,57,o),
(302,57,cs),
(203,57,o),
(128,155,o),
(128,276,c),
(48,266,l),
(48,110,o),
(157,-16,o),
(302,-16,cs)
);
}
);
width = 588;
},
{
layerId = m008;
shapes = (
{
closed = 1;
nodes = (
(445,-16,o),
(589,47,o),
(589,201,cs),
(589,427,o),
(286,384,o),
(286,508,cs),
(286,556,o),
(332,603,o),
(388,603,cs),
(445,603,o),
(491,553,o),
(491,491,c),
(631,501,l),
(631,620,o),
(530,716,o),
(388,716,cs),
(263,716,o),
(148,640,o),
(148,508,cs),
(148,295,o),
(451,351,o),
(451,201,cs),
(451,134,o),
(390,97,o),
(330,97,cs),
(240,97,o),
(180,180,o),
(180,283,c),
(39,273,l),
(39,113,o),
(142,-16,o),
(320,-16,cs)
);
}
);
width = 643;
},
{
layerId = m006;
shapes = (
{
closed = 1;
nodes = (
(401,-16,o),
(516,49,o),
(516,181,cs),
(516,393,o),
(226,387,o),
(226,538,cs),
(226,616,o),
(304,663,o),
(375,663,cs),
(461,663,o),
(511,593,o),
(511,507,c),
(570,517,l),
(570,627,o),
(493,716,o),
(375,716,cs),
(272,716,o),
(170,649,o),
(170,538,cs),
(170,351,o),
(460,359,o),
(460,181,cs),
(460,84,o),
(371,37,o),
(293,37,cs),
(178,37,o),
(110,140,o),
(110,267,c),
(51,257,l),
(51,106,o),
(144,-16,o),
(293,-16,cs)
);
}
);
width = 588;
}
);
unicode = 83;
},
{
glyphname = Germandbls;
kernLeft = H;
kernRight = B;
lastChange = "2022-12-03 10:57:43 +0000";
layers = (
{
layerId = m01;
shapes = (
{
closed = 1;
nodes = (
(373,0,ls),
(509,0,o),
(625,71,o),
(625,207,cs),
(625,344,o),
(505,410,o),
(368,410,c),
(384,379,l),
(557,587,ls),
(599,638,o),
(571,700,o),
(505,700,cs),
(115,700,l),
(115,627,l),
(494,627,l),
(323,413,l),
(323,337,l),
(373,337,ls),
(464,337,o),
(547,298,o),
(547,207,cs),
(547,116,o),
(464,78,o),
(373,78,cs),
(293,78,l),
(293,0,l)
);
},
{
closed = 1;
nodes = (
(163,0,l),
(163,700,l),
(85,700,l),
(85,0,l)
);
}
);
width = 690;
},
{
layerId = m005;
shapes = (
{
closed = 1;
nodes = (
(393,0,ls),
(541,0,o),
(675,64,o),
(675,212,cs),
(675,357,o),
(538,407,o),
(393,407,c),
(388,321,l),
(583,536,ls),
(647,607,o),
(620,700,o),
(525,700,cs),
(105,700,l),
(105,587,l),
(475,587,l),
(313,406,l),
(313,306,l),
(393,306,ls),
(467,306,o),
(537,286,o),
(537,212,cs),
(537,138,o),
(467,118,o),
(393,118,cs),
(303,118,l),
(303,0,l)
);
},
{
closed = 1;
nodes = (
(213,0,l),
(213,700,l),
(75,700,l),
(75,0,l)
);
}
);
width = 730;
},
{
layerId = m007;
shapes = (
{
closed = 1;
nodes = (
(338,0,ls),
(471,0,o),
(580,74,o),
(580,207,cs),
(580,339,o),
(472,410,o),
(340,410,c),
(334,387,l),
(514,603,ls),
(551,647,o),
(528,700,o),
(470,700,cs),
(120,700,l),
(120,647,l),
(480,647,l),
(298,419,l),
(298,357,l),
(348,357,ls),
(444,357,o),
(522,303,o),
(522,207,cs),
(522,111,o),
(444,58,o),
(348,58,cs),
(268,58,l),
(268,0,l)
);
},
{
closed = 1;
nodes = (
(148,0,l),
(148,700,l),
(90,700,l),
(90,0,l)
);
}
);
width = 650;
},
{
layerId = m004;
shapes = (
{
closed = 1;
nodes = (
(324,0,ls),
(462,0,o),
(588,57,o),
(613,189,cs),
(640,329,o),
(527,407,o),
(389,407,c),
(409,379,l),
(622,587,ls),
(670,634,o),
(659,700,o),
(592,700,cs),
(202,700,l),
(188,627,l),
(567,627,l),
(354,413,l),
(339,337,l),
(389,337,ls),
(478,337,o),
(556,294,o),
(538,203,cs),
(520,115,o),
(433,78,o),
(339,78,cs),
(259,78,l),
(244,0,l)
);
},
{
closed = 1;
nodes = (
(114,0,l),
(250,700,l),
(172,700,l),
(36,0,l)
);
}
);
width = 690;
},
{
layerId = m008;
shapes = (
{
closed = 1;
nodes = (
(384,0,ls),
(517,0,o),
(637,58,o),
(662,187,cs),
(687,321,o),
(587,407,o),
(453,407,c),
(401,321,l),
(638,536,ls),
(711,602,o),
(700,700,o),
(602,700,cs),
(192,700,l),
(170,587,l),
(540,587,l),
(343,406,l),
(323,306,l),
(403,306,ls),
(476,306,o),
(543,281,o),
(529,208,cs),
(515,137,o),
(442,118,o),
(367,118,cs),
(277,118,l),
(254,0,l)
);
},
{
closed = 1;
nodes = (
(164,0,l),
(300,700,l),
(162,700,l),
(26,0,l)
);
}
);
width = 729;
},
{
layerId = m006;
shapes = (
{
closed = 1;
nodes = (
(289,0,ls),
(423,0,o),
(543,64,o),
(569,193,cs),
(594,320,o),
(508,410,o),
(381,410,c),
(369,395,l),
(582,603,ls),
(624,644,o),
(615,700,o),
(557,700,cs),
(207,700,l),
(197,647,l),
(552,647,l),
(325,419,l),
(313,357,l),
(368,357,ls),
(460,357,o),
(531,303,o),
(513,207,cs),
(495,114,o),
(409,58,o),
(310,58,cs),
(230,58,l),
(219,0,l)
);
},
{
closed = 1;
nodes = (
(99,0,l),
(235,700,l),
(177,700,l),
(41,0,l)
);
}
);
width = 650;
}
);
metricLeft = H;
metricRight = "=B+5";
unicode = 7838;
},
{
glyphname = T;
kernLeft = T;
kernRight = T;
lastChange = "2022-11-25 14:12:14 +0000";
layers = (
{
layerId = m01;
shapes = (
{
closed = 1;
nodes = (
(348,0,l),
(348,627,l),
(270,627,l),
(270,0,l)
);
},
{
closed = 1;
nodes = (
(598,627,l),
(598,700,l),
(20,700,l),
(20,627,l)
);
}
);
width = 618;
},
{
layerId = m005;
shapes = (
{
closed = 1;
nodes = (
(398,0,l),
(398,627,l),
(260,627,l),
(260,0,l)
);
},
{
closed = 1;
nodes = (
(648,587,l),
(648,700,l),
(10,700,l),
(10,587,l)
);
}
);
width = 658;
},
{
layerId = m007;
shapes = (
{
closed = 1;
nodes = (
(333,0,l),
(333,657,l),
(275,657,l),
(275,0,l)
);
},
{
closed = 1;
nodes = (
(583,647,l),
(583,700,l),
(25,700,l),
(25,647,l)
);
}
);
width = 608;
},
{
layerId = m004;
shapes = (
{
closed = 1;
nodes = (
(299,0,l),
(421,627,l),
(343,627,l),
(221,0,l)
);
},
{
closed = 1;
nodes = (
(671,627,l),
(685,700,l),
(107,700,l),
(93,627,l)
);
}
);
width = 618;
},
{
layerId = m008;
shapes = (
{
closed = 1;
nodes = (
(350,0,l),
(472,627,l),
(334,627,l),
(212,0,l)
);
},
{
closed = 1;
nodes = (
(714,587,l),
(736,700,l),
(98,700,l),
(76,587,l)
);
}
);
width = 659;
},
{
layerId = m006;
shapes = (
{
closed = 1;
nodes = (
(284,0,l),
(412,657,l),
(354,657,l),
(226,0,l)
);
},
{
closed = 1;
nodes = (
(660,647,l),
(670,700,l),
(112,700,l),
(102,647,l)
);
}
);
width = 608;
}
);
unicode = 84;
},
{
glyphname = Tbar;
kernLeft = T;
kernRight = T;
lastChange = "2022-11-25 14:12:14 +0000";
layers = (
{
layerId = m01;
shapes = (
{
closed = 1;
nodes = (
(479,320,l),
(479,380,l),
(139,380,l),
(139,320,l)
);
},
{
ref = T;
}
);
width = 618;
},
{
layerId = m005;
shapes = (
{
closed = 1;
nodes = (
(509,305,l),
(509,395,l),
(149,395,l),
(149,305,l)
);
},
{
ref = T;
}
);
width = 658;
},
{
layerId = m007;
shapes = (
{
closed = 1;
nodes = (
(464,330,l),
(464,370,l),
(144,370,l),
(144,330,l)
);
},
{
ref = T;
}
);
width = 608;
},
{
layerId = m004;
shapes = (
{
closed = 1;
nodes = (
(473,320,l),
(485,380,l),
(145,380,l),
(133,320,l)
);
},
{
ref = T;
}
);
width = 618;
},
{
layerId = m008;
shapes = (
{
closed = 1;
nodes = (
(500,305,l),
(518,395,l),
(158,395,l),
(140,305,l)
);
},
{
ref = T;
}
);
width = 659;
},
{
layerId = m006;
shapes = (
{
closed = 1;
nodes = (
(460,330,l),
(468,370,l),
(148,370,l),
(140,330,l)
);
},
{
ref = T;
}
);
width = 608;
}
);
metricLeft = T;
metricRight = T;
unicode = 358;
},
{
glyphname = U;
kernLeft = U;
kernRight = U;
lastChange = "2022-12-03 11:10:27 +0000";
layers = (
{
layerId = m01;
shapes = (
{
closed = 1;
nodes = (
(479,-16,o),
(575,84,o),
(575,242,cs),
(575,700,l),
(497,700,l),
(497,242,ls),
(497,128,o),
(432,57,o),
(328,57,cs),
(223,57,o),
(158,128,o),
(158,242,cs),
(158,700,l),
(80,700,l),
(80,242,ls),
(80,84,o),
(176,-16,o),
(328,-16,cs)
);
}
);
width = 655;
},
{
layerId = m005;
shapes = (
{
closed = 1;
nodes = (
(503,-16,o),
(625,80,o),
(625,272,cs),
(625,700,l),
(487,700,l),
(487,272,ls),
(487,139,o),
(426,97,o),
(348,97,cs),
(270,97,o),
(208,140,o),
(208,272,cs),
(208,700,l),
(70,700,l),
(70,272,ls),
(70,80,o),
(193,-16,o),
(348,-16,cs)
);
}
);
width = 695;
},
{
layerId = m007;
shapes = (
{
closed = 1;
nodes = (
(459,-16,o),
(560,67,o),
(560,242,cs),
(560,700,l),
(502,700,l),
(502,242,ls),
(502,96,o),
(417,37,o),
(323,37,cs),
(229,37,o),
(143,96,o),
(143,242,cs),
(143,700,l),
(85,700,l),
(85,242,ls),
(85,67,o),
(187,-16,o),
(323,-16,cs)
);
}
);
width = 645;
},
{
layerId = m004;
shapes = (
{
closed = 1;
nodes = (
(440,-16,o),
(544,91,o),
(573,242,cs),
(662,700,l),
(584,700,l),
(495,242,ls),
(474,138,o),
(406,57,o),
(299,57,cs),
(193,57,o),
(136,137,o),
(156,242,cs),
(245,700,l),
(167,700,l),
(78,242,ls),
(49,98,o),
(139,-16,o),
(292,-16,cs)
);
}
);
width = 655;
},
{
layerId = m008;
shapes = (
{
closed = 1;
nodes = (
(474,-16,o),
(595,98,o),
(629,272,cs),
(712,700,l),
(573,700,l),
(490,272,ls),
(471,174,o),
(416,97,o),
(323,97,cs),
(225,97,o),
(193,182,o),
(211,272,cs),
(294,700,l),
(157,700,l),
(74,272,ls),
(44,115,o),
(137,-16,o),
(311,-16,cs)
);
}
);
width = 695;
},
{
layerId = m006;
shapes = (
{
closed = 1;
nodes = (
(425,-16,o),
(529,91,o),
(558,242,cs),
(647,700,l),
(589,700,l),
(500,242,ls),
(477,125,o),
(401,37,o),
(285,37,cs),
(166,37,o),
(119,129,o),
(141,242,cs),
(230,700,l),
(172,700,l),
(83,242,ls),
(56,101,o),
(127,-16,o),
(279,-16,cs)
);
}
);
width = 645;
}
);
unicode = 85;
},
{
glyphname = V;
kernLeft = V;
kernRight = V;
lastChange = "2022-11-25 14:12:14 +0000";
layers = (
{
layerId = m01;
shapes = (
{
closed = 1;
nodes = (
(355,0,l),
(588,700,l),
(510,700,l),
(289,36,l),
(318,36,l),
(98,700,l),
(20,700,l),
(253,0,l)
);
}
);
width = 608;
},
{
layerId = m005;
shapes = (
{
closed = 1;
nodes = (
(407,0,l),
(654,700,l),
(519,700,l),
(285,36,l),
(379,36,l),
(145,700,l),
(10,700,l),
(257,0,l)
);
}
);
width = 664;
},
{
layerId = m007;
shapes = (
{
closed = 1;
nodes = (
(333,0,l),
(559,700,l),
(502,700,l),
(288,36,l),
(295,36,l),
(82,700,l),
(25,700,l),
(251,0,l)
);
}
);
width = 584;
},
{
layerId = m004;
shapes = (
{
closed = 1;
nodes = (
(306,0,l),
(675,700,l),
(595,700,l),
(245,36,l),
(271,36,l),
(180,700,l),
(107,700,l),
(204,0,l)
);
}
);
width = 608;
},
{
layerId = m008;
shapes = (
{
closed = 1;
nodes = (
(358,0,l),
(741,700,l),
(596,700,l),
(233,36,l),
(327,36,l),
(222,700,l),
(97,700,l),
(208,0,l)
);
}
);
width = 664;
},
{
layerId = m006;
shapes = (
{
closed = 1;
nodes = (
(284,0,l),
(646,700,l),
(584,700,l),
(241,36,l),
(253,36,l),
(169,700,l),
(112,700,l),
(202,0,l)
);
}
);
width = 584;
}
);
unicode = 86;
},
{
glyphname = W;
kernLeft = V;
kernRight = V;
lastChange = "2022-11-25 14:12:14 +0000";
layers = (
{
layerId = m01;
shapes = (
{
closed = 1;
nodes = (
(310,0,l),
(438,587,l),
(418,587,l),
(546,0,l),
(649,0,l),
(821,700,l),
(748,700,l),
(585,38,l),
(606,38,l),
(462,700,l),
(394,700,l),
(250,38,l),
(271,38,l),
(108,700,l),
(35,700,l),
(207,0,l)
);
}
);
width = 856;
},
{
layerId = m005;
shapes = (
{
closed = 1;
nodes = (
(351,0,l),
(488,587,l),
(438,587,l),
(575,0,l),
(748,0,l),
(900,700,l),
(768,700,l),
(625,38,l),
(676,38,l),
(523,700,l),
(403,700,l),
(250,38,l),
(301,38,l),
(158,700,l),
(25,700,l),
(177,0,l)
);
}
);
width = 925;
},
{
layerId = m007;
shapes = (
{
closed = 1;
nodes = (
(276,0,l),
(410,587,l),
(409,587,l),
(543,0,l),
(612,0,l),
(779,700,l),
(726,700,l),
(572,38,l),
(589,38,l),
(439,700,l),
(380,700,l),
(230,38,l),
(251,38,l),
(93,700,l),
(40,700,l),
(207,0,l)
);
}
);
width = 819;
},
{
layerId = m004;
shapes = (
{
closed = 1;
nodes = (
(261,0,l),
(503,587,l),
(483,587,l),
(497,0,l),
(600,0,l),
(908,700,l),
(832,700,l),
(540,38,l),
(560,38,l),
(545,700,l),
(477,700,l),
(204,38,l),
(226,38,l),
(192,700,l),
(122,700,l),
(158,0,l)
);
}
);
width = 856;
},
{
layerId = m008;
shapes = (
{
closed = 1;
nodes = (
(297,0,l),
(548,587,l),
(498,587,l),
(521,0,l),
(699,0,l),
(987,700,l),
(850,700,l),
(578,38,l),
(629,38,l),
(605,700,l),
(485,700,l),
(203,38,l),
(254,38,l),
(240,700,l),
(112,700,l),
(128,0,l)
);
}
);
width = 925;
},
{
layerId = m006;
shapes = (
{
closed = 1;
nodes = (
(227,0,l),
(475,587,l),
(474,587,l),
(494,0,l),
(563,0,l),
(866,700,l),
(806,700,l),
(523,38,l),
(546,38,l),
(525,700,l),
(467,700,l),
(188,38,l),
(212,38,l),
(183,700,l),
(127,700,l),
(158,0,l)
);
}
);
width = 819;
}
);
metricLeft = "=V+15";
metricRight = "=V+15";
unicode = 87;
},
{
glyphname = X;
kernLeft = X;
kernRight = X;
lastChange = "2022-11-25 14:12:14 +0000";
layers = (
{
layerId = m01;
shapes = (
{
closed = 1;
nodes = (
(20,700,l),
(106,700,l),
(577,0,l),
(491,0,l)
);
},
{
closed = 1;
nodes = (
(491,700,l),
(577,700,l),
(106,0,l),
(20,0,l)
);
}
);
width = 597;
},
{
layerId = m005;
shapes = (
{
closed = 1;
nodes = (
(10,700,l),
(164,700,l),
(652,0,l),
(498,0,l)
);
},
{
closed = 1;
nodes = (
(498,700,l),
(652,700,l),
(164,0,l),
(10,0,l)
);
}
);
width = 662;
},
{
layerId = m007;
shapes = (
{
closed = 1;
nodes = (
(25,700,l),
(87,700,l),
(544,0,l),
(482,0,l)
);
},
{
closed = 1;
nodes = (
(482,700,l),
(544,700,l),
(87,0,l),
(25,0,l)
);
}
);
width = 569;
},
{
layerId = m004;
shapes = (
{
closed = 1;
nodes = (
(67,0,l),
(674,700,l),
(578,700,l),
(-29,0,l)
);
},
{
closed = 1;
nodes = (
(528,0,l),
(193,700,l),
(117,700,l),
(452,0,l)
);
}
);
width = 607;
},
{
layerId = m008;
shapes = (
{
closed = 1;
nodes = (
(125,0,l),
(749,700,l),
(585,700,l),
(-39,0,l)
);
},
{
closed = 1;
nodes = (
(603,0,l),
(251,700,l),
(107,700,l),
(459,0,l)
);
}
);
width = 672;
},
{
layerId = m006;
shapes = (
{
closed = 1;
nodes = (
(43,0,l),
(636,700,l),
(569,700,l),
(-24,0,l)
);
},
{
closed = 1;
nodes = (
(500,0,l),
(179,700,l),
(122,700,l),
(443,0,l)
);
}
);
width = 574;
}
);
metricLeft = V;
metricRight = V;
unicode = 88;
},
{
glyphname = Y;
kernLeft = Y;
kernRight = Y;
lastChange = "2022-11-25 14:12:14 +0000";
layers = (
{
layerId = m01;
shapes = (
{
closed = 1;
nodes = (
(227,0,l),
(532,700,l),
(450,700,l),
(145,0,l)
);
},
{
closed = 1;
nodes = (
(300,246,l),
(102,700,l),
(20,700,l),
(253,165,l)
);
}
);
width = 552;
},
{
layerId = m005;
shapes = (
{
closed = 1;
nodes = (
(275,0,l),
(598,700,l),
(455,700,l),
(132,0,l)
);
},
{
closed = 1;
nodes = (
(361,245,l),
(154,700,l),
(10,700,l),
(279,104,l)
);
}
);
width = 608;
},
{
layerId = m007;
shapes = (
{
closed = 1;
nodes = (
(208,0,l),
(505,700,l),
(447,700,l),
(150,0,l)
);
},
{
closed = 1;
nodes = (
(277,247,l),
(83,700,l),
(25,700,l),
(244,187,l)
);
}
);
width = 530;
},
{
layerId = m004;
shapes = (
{
closed = 1;
nodes = (
(178,0,l),
(619,700,l),
(533,700,l),
(92,0,l)
);
},
{
closed = 1;
nodes = (
(295,246,l),
(185,700,l),
(107,700,l),
(236,165,l)
);
}
);
width = 552;
},
{
layerId = m008;
shapes = (
{
closed = 1;
nodes = (
(221,0,l),
(680,700,l),
(527,700,l),
(68,0,l)
);
},
{
closed = 1;
nodes = (
(345,245,l),
(226,700,l),
(97,700,l),
(250,104,l)
);
}
);
width = 603;
},
{
layerId = m006;
shapes = (
{
closed = 1;
nodes = (
(159,0,l),
(592,700,l),
(534,700,l),
(101,0,l)
);
},
{
closed = 1;
nodes = (
(276,247,l),
(170,700,l),
(112,700,l),
(231,187,l)
);
}
);
width = 530;
}
);
metricLeft = V;
metricRight = V;
unicode = 89;
},
{
glyphname = Z;
kernLeft = Z;
kernRight = Z;
lastChange = "2022-11-25 14:12:14 +0000";
layers = (
{
layerId = m01;
shapes = (
{
closed = 1;
nodes = (
(156,73,l),
(510,627,l),
(424,627,l),
(70,73,l)
);
},
{
closed = 1;
nodes = (
(510,0,l),
(510,73,l),
(70,73,l),
(70,0,l)
);
},
{
closed = 1;
nodes = (
(510,627,l),
(510,700,l),
(70,700,l),
(70,627,l)
);
}
);
width = 580;
},
{
layerId = m005;
shapes = (
{
closed = 1;
nodes = (
(210,113,l),
(550,587,l),
(400,587,l),
(60,113,l)
);
},
{
closed = 1;
nodes = (
(550,0,l),
(550,113,l),
(60,113,l),
(60,0,l)
);
},
{
closed = 1;
nodes = (
(550,587,l),
(550,700,l),
(60,700,l),
(60,587,l)
);
}
);
width = 610;
},
{
layerId = m007;
shapes = (
{
closed = 1;
nodes = (
(138,53,l),
(505,647,l),
(442,647,l),
(75,53,l)
);
},
{
closed = 1;
nodes = (
(505,0,l),
(505,53,l),
(75,53,l),
(75,0,l)
);
},
{
closed = 1;
nodes = (
(505,647,l),
(505,700,l),
(75,700,l),
(75,647,l)
);
}
);
width = 580;
},
{
layerId = m004;
shapes = (
{
closed = 1;
nodes = (
(124,73,l),
(584,627,l),
(496,627,l),
(36,73,l)
);
},
{
closed = 1;
nodes = (
(462,0,l),
(476,73,l),
(36,73,l),
(22,0,l)
);
},
{
closed = 1;
nodes = (
(584,627,l),
(598,700,l),
(158,700,l),
(144,627,l)
);
}
);
width = 581;
},
{
layerId = m008;
shapes = (
{
closed = 1;
nodes = (
(184,113,l),
(616,587,l),
(466,587,l),
(34,113,l)
);
},
{
closed = 1;
nodes = (
(502,0,l),
(524,113,l),
(34,113,l),
(12,0,l)
);
},
{
closed = 1;
nodes = (
(616,587,l),
(638,700,l),
(148,700,l),
(126,587,l)
);
}
);
width = 611;
},
{
layerId = m006;
shapes = (
{
closed = 1;
nodes = (
(100,53,l),
(583,647,l),
(520,647,l),
(37,53,l)
);
},
{
closed = 1;
nodes = (
(457,0,l),
(467,53,l),
(37,53,l),
(27,0,l)
);
},
{
closed = 1;
nodes = (
(583,647,l),
(593,700,l),
(163,700,l),
(153,647,l)
);
}
);
width = 581;
}
);
unicode = 90;
},
{
glyphname = R.ss01;
kernLeft = H;
kernRight = R;
lastChange = "2022-11-29 07:28:49 +0000";
layers = (
{
layerId = m01;
shapes = (
{
closed = 1;
nodes = (
(325,309,ls),
(450,309,o),
(536,389,o),
(536,504,cs),
(536,621,o),
(451,700,o),
(325,700,cs),
(118,700,l),
(118,627,l),
(325,627,ls),
(405,627,o),
(458,578,o),
(458,504,cs),
(458,431,o),
(404,382,o),
(325,382,cs),
(118,382,l),
(118,309,l)
);
},
{
closed = 1;
nodes = (
(163,0,l),
(163,700,l),
(85,700,l),
(85,0,l)
);
},
{
closed = 1;
nodes = (
(550,0,l),
(366,350,l),
(282,343,l),
(461,0,l)
);
}
);
width = 595;
},
{
layerId = m005;
shapes = (
{
closed = 1;
nodes = (
(315,268,ls),
(460,268,o),
(586,339,o),
(586,484,cs),
(586,629,o),
(460,700,o),
(315,700,cs),
(108,700,l),
(108,587,l),
(315,587,ls),
(387,587,o),
(448,556,o),
(448,484,cs),
(448,412,o),
(387,381,o),
(315,381,cs),
(108,381,l),
(108,268,l)
);
},
{
closed = 1;
nodes = (
(213,0,l),
(213,700,l),
(75,700,l),
(75,0,l)
);
},
{
closed = 1;
nodes = (
(597,0,l),
(391,372,l),
(245,359,l),
(443,0,l)
);
}
);
width = 632;
},
{
layerId = m007;
shapes = (
{
closed = 1;
nodes = (
(300,329,ls),
(435,329,o),
(521,401,o),
(521,514,cs),
(521,632,o),
(440,700,o),
(300,700,cs),
(123,700,l),
(123,647,l),
(300,647,ls),
(406,647,o),
(463,601,o),
(463,514,cs),
(463,427,o),
(407,382,o),
(300,382,cs),
(123,382,l),
(123,329,l)
);
},
{
closed = 1;
nodes = (
(148,0,l),
(148,700,l),
(90,700,l),
(90,0,l)
);
},
{
closed = 1;
nodes = (
(528,0,l),
(355,349,l),
(291,344,l),
(460,0,l)
);
}
);
width = 578;
},
{
layerId = m004;
shapes = (
{
closed = 1;
nodes = (
(316,309,ls),
(476,309,o),
(562,386,o),
(582,487,cs),
(604,602,o),
(532,700,o),
(392,700,cs),
(205,700,l),
(191,627,l),
(378,627,ls),
(468,627,o),
(522,583,o),
(506,500,cs),
(490,416,o),
(420,382,o),
(330,382,cs),
(143,382,l),
(129,309,l)
);
},
{
closed = 1;
nodes = (
(114,0,l),
(250,700,l),
(172,700,l),
(36,0,l)
);
},
{
closed = 1;
nodes = (
(501,0,l),
(385,350,l),
(305,343,l),
(417,0,l)
);
}
);
width = 595;
},
{
layerId = m008;
shapes = (
{
closed = 1;
nodes = (
(318,268,ls),
(478,268,o),
(601,327,o),
(629,470,cs),
(656,612,o),
(562,700,o),
(402,700,cs),
(195,700,l),
(173,587,l),
(380,587,ls),
(460,587,o),
(509,562,o),
(493,483,cs),
(477,406,o),
(420,381,o),
(340,381,cs),
(133,381,l),
(111,268,l)
);
},
{
closed = 1;
nodes = (
(164,0,l),
(300,700,l),
(162,700,l),
(26,0,l)
);
},
{
closed = 1;
nodes = (
(548,0,l),
(414,372,l),
(266,359,l),
(394,0,l)
);
}
);
width = 632;
},
{
layerId = m006;
shapes = (
{
closed = 1;
nodes = (
(315,329,ls),
(438,329,o),
(548,388,o),
(571,509,cs),
(594,625,o),
(505,700,o),
(387,700,cs),
(210,700,l),
(200,647,l),
(377,647,ls),
(462,647,o),
(531,603,o),
(515,519,cs),
(497,428,o),
(417,382,o),
(325,382,cs),
(148,382,l),
(138,329,l)
);
},
{
closed = 1;
nodes = (
(99,0,l),
(235,700,l),
(177,700,l),
(41,0,l)
);
},
{
closed = 1;
nodes = (
(479,0,l),
(374,349,l),
(309,344,l),
(411,0,l)
);
}
);
width = 578;
}
);
metricLeft = R;
metricRight = "=R-20";
},
{
glyphname = Y.ss02;
kernLeft = Yalt;
kernRight = Yalt;
lastChange = "2022-11-25 14:12:14 +0000";
layers = (
{
layerId = m01;
shapes = (
{
closed = 1;
nodes = (
(588,700,l),
(500,700,l),
(267,315,l),
(333,279,l)
);
},
{
closed = 1;
nodes = (
(333,0,l),
(333,317,l),
(255,317,l),
(255,0,l)
);
},
{
closed = 1;
nodes = (
(321,315,l),
(88,700,l),
(0,700,l),
(255,279,l)
);
}
);
width = 588;
},
{
layerId = m005;
shapes = (
{
closed = 1;
nodes = (
(666,700,l),
(514,700,l),
(265,319,l),
(379,257,l)
);
},
{
closed = 1;
nodes = (
(397,0,l),
(397,337,l),
(259,337,l),
(259,0,l)
);
},
{
closed = 1;
nodes = (
(391,319,l),
(142,700,l),
(-10,700,l),
(277,257,l)
);
}
);
width = 656;
},
{
layerId = m007;
shapes = (
{
closed = 1;
nodes = (
(557,700,l),
(493,700,l),
(268,319,l),
(297,260,l)
);
},
{
closed = 1;
nodes = (
(310,0,l),
(310,324,l),
(252,324,l),
(252,0,l)
);
},
{
closed = 1;
nodes = (
(294,319,l),
(69,700,l),
(5,700,l),
(265,260,l)
);
}
);
width = 562;
},
{
layerId = m004;
shapes = (
{
closed = 1;
nodes = (
(675,700,l),
(583,700,l),
(275,315,l),
(338,279,l)
);
},
{
closed = 1;
nodes = (
(284,0,l),
(346,317,l),
(268,317,l),
(206,0,l)
);
},
{
closed = 1;
nodes = (
(329,315,l),
(171,700,l),
(87,700,l),
(260,279,l)
);
}
);
width = 588;
},
{
layerId = m008;
shapes = (
{
closed = 1;
nodes = (
(753,700,l),
(591,700,l),
(268,319,l),
(380,257,l)
);
},
{
closed = 1;
nodes = (
(348,0,l),
(413,337,l),
(275,337,l),
(210,0,l)
);
},
{
closed = 1;
nodes = (
(394,319,l),
(219,700,l),
(77,700,l),
(278,257,l)
);
}
);
width = 656;
},
{
layerId = m006;
shapes = (
{
closed = 1;
nodes = (
(644,700,l),
(580,700,l),
(281,319,l),
(299,260,l)
);
},
{
closed = 1;
nodes = (
(261,0,l),
(324,324,l),
(266,324,l),
(203,0,l)
);
},
{
closed = 1;
nodes = (
(307,319,l),
(156,700,l),
(92,700,l),
(267,260,l)
);
}
);
width = 562;
}
);
metricLeft = "=Y-20";
metricRight = "=Y-20";
},
{
glyphname = Oslash.ss03;
kernLeft = O;
kernRight = O;
lastChange = "2022-11-29 07:47:54 +0000";
layers = (
{
layerId = m01;
shapes = (
{
closed = 1;
nodes = (
(98,0,l),
(753,700,l),
(665,700,l),
(10,0,l)
);
},
{
ref = O;
}
);
width = 763;
},
{
layerId = m005;
shapes = (
{
closed = 1;
nodes = (
(129,0,l),
(795,700,l),
(666,700,l),
(0,0,l)
);
},
{
pos = (-4,0);
ref = O;
}
);
width = 795;
},
{
layerId = m007;
shapes = (
{
closed = 1;
nodes = (
(76,0,l),
(712,700,l),
(651,700,l),
(15,0,l)
);
},
{
pos = (-13,0);
ref = O;
}
);
width = 727;
},
{
layerId = m004;
shapes = (
{
closed = 1;
nodes = (
(53,0,l),
(844,700,l),
(752,700,l),
(-39,0,l)
);
},
{
pos = (7,0);
ref = O;
}
);
width = 767;
},
{
layerId = m008;
shapes = (
{
closed = 1;
nodes = (
(90,0,l),
(892,700,l),
(753,700,l),
(-49,0,l)
);
},
{
pos = (1,0);
ref = O;
}
);
width = 805;
},
{
layerId = m006;
shapes = (
{
closed = 1;
nodes = (
(27,0,l),
(799,700,l),
(738,700,l),
(-34,0,l)
);
},
{
pos = (-13,0);
ref = O;
}
);
width = 727;
}
);
metricLeft = "=O-50";
metricRight = "=O-50";
},
{
glyphname = Q.ss03;
kernLeft = O;
kernRight = Q;
lastChange = "2022-12-03 14:03:22 +0000";
layers = (
{
layerId = m01;
shapes = (
{
closed = 1;
nodes = (
(717,0,l),
(416,346,l),
(328,346,l),
(629,0,l)
);
},
{
ref = O;
}
);
width = 772;
},
{
layerId = m005;
shapes = (
{
closed = 1;
nodes = (
(801,0,l),
(473,346,l),
(318,346,l),
(646,0,l)
);
},
{
ref = O;
}
);
width = 846;
},
{
layerId = m007;
shapes = (
{
closed = 1;
nodes = (
(685,0,l),
(401,346,l),
(340,346,l),
(624,0,l)
);
},
{
ref = O;
}
);
width = 749;
},
{
layerId = m004;
shapes = (
{
closed = 1;
nodes = (
(649,0,l),
(415,346,l),
(327,346,l),
(561,0,l)
);
},
{
ref = O;
}
);
width = 758;
},
{
layerId = m008;
shapes = (
{
closed = 1;
nodes = (
(733,0,l),
(472,346,l),
(337,346,l),
(598,0,l)
);
},
{
ref = O;
}
);
width = 827;
},
{
layerId = m006;
shapes = (
{
closed = 1;
nodes = (
(637,0,l),
(420,346,l),
(359,346,l),
(576,0,l)
);
},
{
ref = O;
}
);
width = 748;
}
);
metricLeft = Q;
metricRight = "=Q+15";
},
{
glyphname = a;
kernLeft = a;
kernRight = u;
lastChange = "2022-12-03 14:58:55 +0000";
layers = (
{
layerId = m01;
shapes = (
{
closed = 1;
nodes = (
(323,-16,o),
(396,63,o),
(396,180,c),
(386,140,l),
(386,0,l),
(461,0,l),
(461,331,ls),
(461,453,o),
(397,516,o),
(275,516,cs),
(163,516,o),
(63,460,o),
(63,348,c),
(136,338,l),
(136,409,o),
(198,443,o),
(269,443,cs),
(319,443,o),
(371,430,o),
(383,381,cs),
(396,323,o),
(328,310,o),
(269,307,cs),
(130,301,o),
(50,241,o),
(50,142,cs),
(50,50,o),
(119,-16,o),
(217,-16,cs)
);
},
{
closed = 1;
nodes = (
(169,57,o),
(128,90,o),
(128,143,cs),
(128,200,o),
(175,237,o),
(274,240,cs),
(337,242,o),
(401,260,o),
(401,323,c),
(386,313,l),
(386,243,ls),
(386,126,o),
(330,57,o),
(235,57,cs)
);
}
);
width = 526;
},
{
layerId = m005;
shapes = (
{
closed = 1;
nodes = (
(322,-16,o),
(386,60,o),
(386,180,c),
(376,141,l),
(376,0,l),
(511,0,l),
(511,326,ls),
(511,449,o),
(438,516,o),
(302,516,cs),
(175,516,o),
(54,459,o),
(54,332,c),
(188,322,l),
(188,376,o),
(231,403,o),
(285,403,cs),
(324,403,o),
(365,393,o),
(374,355,cs),
(387,303,o),
(318,299,o),
(264,296,cs),
(122,289,o),
(40,232,o),
(40,139,cs),
(40,49,o),
(116,-16,o),
(220,-16,cs)
);
},
{
closed = 1;
nodes = (
(208,97,o),
(178,114,o),
(178,147,cs),
(178,199,o),
(243,203,o),
(295,210,cs),
(365,218,o),
(406,268,o),
(406,338,c),
(376,318,l),
(376,243,ls),
(376,161,o),
(323,97,o),
(241,97,cs)
);
}
);
width = 566;
},
{
layerId = m007;
shapes = (
{
closed = 1;
nodes = (
(322,-16,o),
(401,66,o),
(401,180,c),
(391,129,l),
(391,0,l),
(446,0,l),
(446,331,ls),
(446,454,o),
(388,516,o),
(273,516,cs),
(167,516,o),
(72,463,o),
(68,357,c),
(121,349,l),
(127,424,o),
(190,463,o),
(265,463,cs),
(325,463,o),
(381,440,o),
(388,381,cs),
(395,318,o),
(329,300,o),
(266,297,cs),
(134,291,o),
(55,232,o),
(55,138,cs),
(55,47,o),
(120,-16,o),
(214,-16,cs)
);
},
{
closed = 1;
nodes = (
(165,37,o),
(113,75,o),
(113,139,cs),
(113,226,o),
(208,248,o),
(295,251,cs),
(354,253,o),
(406,280,o),
(406,339,c),
(391,299,l),
(391,233,ls),
(391,128,o),
(334,37,o),
(229,37,cs)
);
}
);
width = 516;
},
{
layerId = m004;
shapes = (
{
closed = 1;
nodes = (
(294,-16,o),
(362,72,o),
(383,180,c),
(365,140,l),
(338,0,l),
(413,0,l),
(476,323,ls),
(498,437,o),
(429,516,o),
(304,516,cs),
(195,516,o),
(104,455,o),
(83,348,c),
(154,338,l),
(167,408,o),
(229,443,o),
(300,443,cs),
(354,443,o),
(407,426,o),
(409,372,cs),
(412,314,o),
(358,305,o),
(300,304,cs),
(179,299,o),
(56,276,o),
(32,158,cs),
(12,58,o),
(82,-16,o),
(184,-16,cs)
);
},
{
closed = 1;
nodes = (
(143,57,o),
(98,92,o),
(109,148,cs),
(123,217,o),
(190,238,o),
(260,240,cs),
(333,242,o),
(407,252,o),
(421,323,c),
(399,313,l),
(385,243,ls),
(365,141,o),
(304,57,o),
(200,57,cs)
);
}
);
width = 527;
},
{
layerId = m008;
shapes = (
{
closed = 1;
nodes = (
(277,-16,o),
(352,69,o),
(373,180,c),
(355,141,l),
(328,0,l),
(463,0,l),
(519,291,ls),
(547,438,o),
(471,516,o),
(327,516,cs),
(202,516,o),
(94,454,o),
(71,332,c),
(203,322,l),
(213,376,o),
(260,403,o),
(315,403,cs),
(353,403,o),
(394,393,o),
(395,355,cs),
(398,301,o),
(330,299,o),
(276,296,cs),
(160,290,o),
(41,256,o),
(19,142,cs),
(2,49,o),
(69,-16,o),
(164,-16,cs)
);
},
{
closed = 1;
nodes = (
(186,97,o),
(151,113,o),
(159,151,cs),
(170,201,o),
(221,201,o),
(272,208,cs),
(335,216,o),
(394,240,o),
(404,303,c),
(387,303,l),
(375,243,ls),
(359,162,o),
(307,97,o),
(224,97,cs)
);
}
);
width = 567;
},
{
layerId = m006;
shapes = (
{
closed = 1;
nodes = (
(292,-16,o),
(366,70,o),
(388,180,c),
(368,129,l),
(343,0,l),
(398,0,l),
(464,339,ls),
(484,443,o),
(422,516,o),
(305,516,cs),
(200,516,o),
(113,459,o),
(89,357,c),
(141,347,l),
(160,421,o),
(223,463,o),
(299,463,cs),
(359,463,o),
(415,440,o),
(415,380,cs),
(415,312,o),
(347,300,o),
(279,298,cs),
(167,293,o),
(58,260,o),
(36,150,cs),
(18,55,o),
(83,-16,o),
(180,-16,cs)
);
},
{
closed = 1;
nodes = (
(134,37,o),
(80,77,o),
(93,143,cs),
(108,222,o),
(185,247,o),
(265,249,cs),
(338,252,o),
(412,267,o),
(425,339,c),
(401,299,l),
(388,233,ls),
(367,128,o),
(309,37,o),
(201,37,cs)
);
}
);
width = 517;
}
);
metricRight = "=u-10";
unicode = 97;
},
{
glyphname = ae;
kernLeft = a;
kernRight = o;
lastChange = "2022-11-29 07:40:17 +0000";
layers = (
{
layerId = m01;
shapes = (
{
closed = 1;
nodes = (
(725,-16,o),
(804,45,o),
(824,144,c),
(746,154,l),
(731,95,o),
(686,57,o),
(625,57,cs),
(527,57,o),
(464,132,o),
(464,230,c),
(827,230,l),
(827,248,ls),
(827,411,o),
(742,516,o),
(608,516,cs),
(474,516,o),
(386,411,o),
(386,252,cs),
(386,102,o),
(474,-16,o),
(624,-16,cs)
);
},
{
closed = 1;
nodes = (
(169,57,o),
(128,90,o),
(128,143,cs),
(128,200,o),
(175,232,o),
(264,235,cs),
(350,238,o),
(396,268,o),
(396,323,c),
(386,313,l),
(386,243,ls),
(386,126,o),
(330,57,o),
(235,57,cs)
);
},
{
closed = 1;
nodes = (
(332,-16,o),
(426,73,o),
(426,180,c),
(461,331,l),
(461,453,o),
(397,516,o),
(275,516,cs),
(149,516,o),
(63,448,o),
(63,348,c),
(136,338,l),
(136,405,o),
(184,443,o),
(270,443,cs),
(338,443,o),
(378,419,o),
(383,374,cs),
(388,331,o),
(356,311,o),
(274,307,cs),
(131,301,o),
(50,241,o),
(50,142,cs),
(50,49,o),
(120,-16,o),
(218,-16,cs)
);
},
{
closed = 1;
nodes = (
(464,383,o),
(523,443,o),
(608,443,cs),
(692,443,o),
(749,382,o),
(749,298,c),
(464,298,l)
);
}
);
width = 867;
},
{
layerId = m005;
shapes = (
{
closed = 1;
nodes = (
(762,-16,o),
(870,33,o),
(887,147,c),
(751,157,l),
(734,114,o),
(693,97,o),
(647,97,cs),
(578,97,o),
(525,141,o),
(525,210,c),
(887,210,l),
(887,248,ls),
(887,418,o),
(778,516,o),
(638,516,cs),
(498,516,o),
(386,418,o),
(386,248,cs),
(386,94,o),
(493,-16,o),
(647,-16,cs)
);
},
{
closed = 1;
nodes = (
(209,97,o),
(178,108,o),
(178,148,cs),
(178,198,o),
(231,203,o),
(271,207,cs),
(353,216,o),
(406,226,o),
(406,309,c),
(386,308,l),
(386,233,ls),
(386,150,o),
(319,97,o),
(249,97,cs)
);
},
{
closed = 1;
nodes = (
(339,-16,o),
(456,40,o),
(456,220,c),
(509,336,l),
(509,480,o),
(409,516,o),
(288,516,cs),
(144,516,o),
(54,449,o),
(54,362,c),
(188,343,l),
(188,393,o),
(258,403,o),
(298,403,cs),
(348,403,o),
(380,391,o),
(388,362,cs),
(396,333,o),
(382,313,o),
(322,309,cs),
(212,302,o),
(40,298,o),
(40,148,cs),
(40,47,o),
(123,-16,o),
(229,-16,cs)
);
},
{
closed = 1;
nodes = (
(525,369,o),
(577,403,o),
(638,403,cs),
(698,403,o),
(748,368,o),
(748,308,c),
(525,308,l)
);
}
);
width = 917;
},
{
layerId = m007;
shapes = (
{
closed = 1;
nodes = (
(723,-16,o),
(794,43,o),
(817,135,c),
(758,143,l),
(740,80,o),
(693,37,o),
(627,37,cs),
(515,37,o),
(449,128,o),
(449,240,c),
(822,240,l),
(822,248,ls),
(822,412,o),
(740,516,o),
(611,516,cs),
(480,516,o),
(391,409,o),
(391,252,cs),
(391,103,o),
(479,-16,o),
(628,-16,cs)
);
},
{
closed = 1;
nodes = (
(160,37,o),
(113,78,o),
(113,139,cs),
(113,207,o),
(172,242,o),
(295,246,cs),
(361,248,o),
(401,284,o),
(401,339,c),
(391,299,l),
(391,233,ls),
(391,116,o),
(326,37,o),
(229,37,cs)
);
},
{
closed = 1;
nodes = (
(339,-16,o),
(421,75,o),
(421,210,c),
(446,331,l),
(446,454,o),
(388,516,o),
(273,516,cs),
(155,516,o),
(72,451,o),
(68,357,c),
(121,349,l),
(127,423,o),
(177,463,o),
(265,463,cs),
(339,463,o),
(382,434,o),
(388,381,cs),
(394,328,o),
(355,301,o),
(266,297,cs),
(134,291,o),
(55,232,o),
(55,138,cs),
(55,46,o),
(121,-16,o),
(217,-16,cs)
);
},
{
closed = 1;
nodes = (
(449,386,o),
(510,463,o),
(608,463,cs),
(705,463,o),
(764,385,o),
(764,288,c),
(449,288,l)
);
}
);
width = 867;
},
{
layerId = m004;
shapes = (
{
closed = 1;
nodes = (
(691,-16,o),
(776,45,o),
(815,144,c),
(739,154,l),
(710,91,o),
(662,57,o),
(598,57,cs),
(501,57,o),
(443,135,o),
(462,230,c),
(835,230,l),
(841,265,ls),
(867,413,o),
(791,516,o),
(654,516,cs),
(524,516,o),
(421,422,o),
(393,278,cs),
(363,125,o),
(436,-16,o),
(592,-16,cs)
);
},
{
closed = 1;
nodes = (
(131,57,o),
(98,93,o),
(109,152,cs),
(121,208,o),
(162,232,o),
(252,235,cs),
(350,238,o),
(399,265,o),
(411,323,c),
(399,313,l),
(385,243,ls),
(362,131,o),
(287,57,o),
(195,57,cs)
);
},
{
closed = 1;
nodes = (
(294,-16,o),
(391,68,o),
(413,180,c),
(476,323,l),
(499,440,o),
(431,516,o),
(303,516,cs),
(186,516,o),
(103,452,o),
(83,348,c),
(154,338,l),
(167,407,o),
(216,443,o),
(298,443,cs),
(368,443,o),
(407,418,o),
(409,371,cs),
(411,325,o),
(373,306,o),
(274,303,cs),
(125,298,o),
(51,255,o),
(33,163,cs),
(13,62,o),
(80,-16,o),
(185,-16,cs)
);
},
{
closed = 1;
nodes = (
(491,387,o),
(562,443,o),
(652,443,cs),
(736,443,o),
(787,381,o),
(770,298,c),
(475,298,l)
);
}
);
width = 879;
},
{
layerId = m008;
shapes = (
{
closed = 1;
nodes = (
(720,-16,o),
(825,53,o),
(858,147,c),
(723,157,l),
(700,117,o),
(664,97,o),
(615,97,cs),
(546,97,o),
(495,142,o),
(508,210,c),
(870,210,l),
(877,248,ls),
(904,395,o),
(800,516,o),
(647,516,cs),
(515,516,o),
(410,421,o),
(382,275,cs),
(351,115,o),
(445,-16,o),
(608,-16,cs)
);
},
{
closed = 1;
nodes = (
(175,97,o),
(152,116,o),
(159,149,cs),
(166,183,o),
(200,199,o),
(286,209,cs),
(364,219,o),
(397,252,o),
(414,338,c),
(390,318,l),
(375,243,ls),
(356,151,o),
(299,97,o),
(221,97,cs)
);
},
{
closed = 1;
nodes = (
(321,-16,o),
(425,80,o),
(463,240,c),
(519,291,l),
(546,434,o),
(475,516,o),
(324,516,cs),
(186,516,o),
(93,448,o),
(71,332,c),
(203,322,l),
(213,376,o),
(251,403,o),
(315,403,cs),
(366,403,o),
(394,386,o),
(395,355,cs),
(397,318,o),
(360,301,o),
(267,296,cs),
(123,288,o),
(37,234,o),
(19,141,cs),
(1,47,o),
(66,-16,o),
(182,-16,cs)
);
},
{
closed = 1;
nodes = (
(538,370,o),
(595,403,o),
(658,403,cs),
(716,403,o),
(760,365,o),
(750,308,c),
(527,308,l)
);
}
);
width = 908;
},
{
layerId = m006;
shapes = (
{
closed = 1;
nodes = (
(681,-16,o),
(750,35,o),
(795,135,c),
(738,145,l),
(700,69,o),
(658,37,o),
(595,37,cs),
(486,37,o),
(427,133,o),
(448,240,c),
(821,240,l),
(822,248,ls),
(841,407,o),
(766,516,o),
(639,516,cs),
(524,516,o),
(425,420,o),
(397,281,cs),
(368,128,o),
(436,-16,o),
(592,-16,cs)
);
},
{
closed = 1;
nodes = (
(120,37,o),
(80,78,o),
(92,139,cs),
(104,204,o),
(169,242,o),
(275,245,cs),
(361,248,o),
(409,279,o),
(420,339,c),
(401,299,l),
(388,233,ls),
(364,113,o),
(288,37,o),
(191,37,cs)
);
},
{
closed = 1;
nodes = (
(294,-16,o),
(385,64,o),
(408,180,c),
(464,339,l),
(485,448,o),
(425,516,o),
(306,516,cs),
(197,516,o),
(112,454,o),
(89,357,c),
(141,347,l),
(160,419,o),
(219,463,o),
(297,463,cs),
(367,463,o),
(415,429,o),
(415,379,cs),
(415,329,o),
(365,301,o),
(269,297,cs),
(135,291,o),
(53,239,o),
(36,151,cs),
(18,56,o),
(83,-16,o),
(186,-16,cs)
);
},
{
closed = 1;
nodes = (
(476,385,o),
(541,463,o),
(640,463,cs),
(735,463,o),
(790,381,o),
(772,288,c),
(457,288,l)
);
}
);
width = 868;
}
);
metricLeft = a;
metricRight = e;
unicode = 230;
},
{
glyphname = b;
kernLeft = l;
kernRight = o;
lastChange = "2022-12-03 14:03:22 +0000";
layers = (
{
layerId = m01;
shapes = (
{
closed = 1;
nodes = (
(457,-16,o),
(536,107,o),
(536,250,cs),
(536,393,o),
(457,516,o),
(314,516,cs),
(207,516,o),
(135,437,o),
(135,330,cs),
(135,170,ls),
(135,63,o),
(207,-16,o),
(314,-16,cs)
);
},
{
closed = 1;
nodes = (
(150,0,l),
(150,700,l),
(75,700,l),
(75,0,l)
);
},
{
closed = 1;
nodes = (
(202,57,o),
(150,148,o),
(150,250,cs),
(150,352,o),
(202,443,o),
(304,443,cs),
(406,443,o),
(458,352,o),
(458,250,cs),
(458,148,o),
(406,57,o),
(304,57,cs)
);
}
);
width = 581;
},
{
layerId = m005;
shapes = (
{
closed = 1;
nodes = (
(508,-16,o),
(586,106,o),
(586,250,cs),
(586,394,o),
(508,516,o),
(364,516,cs),
(241,516,o),
(175,413,o),
(175,290,cs),
(175,210,ls),
(175,87,o),
(241,-16,o),
(364,-16,cs)
);
},
{
closed = 1;
nodes = (
(200,0,l),
(200,700,l),
(65,700,l),
(65,0,l)
);
},
{
closed = 1;
nodes = (
(242,97,o),
(200,168,o),
(200,250,cs),
(200,332,o),
(242,403,o),
(324,403,cs),
(406,403,o),
(448,332,o),
(448,250,cs),
(448,168,o),
(406,97,o),
(324,97,cs)
);
}
);
width = 621;
},
{
layerId = m007;
shapes = (
{
closed = 1;
nodes = (
(449,-16,o),
(521,110,o),
(521,250,cs),
(521,390,o),
(449,516,o),
(309,516,cs),
(200,516,o),
(115,439,o),
(115,330,cs),
(115,170,ls),
(115,61,o),
(200,-16,o),
(309,-16,cs)
);
},
{
closed = 1;
nodes = (
(135,0,l),
(135,700,l),
(80,700,l),
(80,0,l)
);
},
{
closed = 1;
nodes = (
(189,37,o),
(135,140,o),
(135,250,cs),
(135,360,o),
(189,463,o),
(299,463,cs),
(410,463,o),
(463,361,o),
(463,250,cs),
(463,139,o),
(410,37,o),
(299,37,cs)
);
}
);
width = 571;
},
{
layerId = m004;
shapes = (
{
closed = 1;
nodes = (
(423,-16,o),
(506,108,o),
(530,235,cs),
(558,380,o),
(507,516,o),
(364,516,cs),
(257,516,o),
(168,441,o),
(149,330,cs),
(118,170,ls),
(97,63,o),
(174,-16,o),
(285,-16,cs)
);
},
{
closed = 1;
nodes = (
(101,0,l),
(237,700,l),
(162,700,l),
(26,0,l)
);
},
{
closed = 1;
nodes = (
(173,57,o),
(131,152,o),
(152,259,cs),
(170,353,o),
(235,443,o),
(334,443,cs),
(439,443,o),
(473,342,o),
(452,238,cs),
(434,146,o),
(374,57,o),
(275,57,cs)
);
}
);
width = 578;
},
{
layerId = m008;
shapes = (
{
closed = 1;
nodes = (
(467,-16,o),
(557,108,o),
(583,237,cs),
(612,385,o),
(553,516,o),
(413,516,cs),
(289,516,o),
(205,414,o),
(182,290,cs),
(167,210,ls),
(144,92,o),
(202,-16,o),
(330,-16,cs)
);
},
{
closed = 1;
nodes = (
(151,0,l),
(287,700,l),
(152,700,l),
(16,0,l)
);
},
{
closed = 1;
nodes = (
(216,97,o),
(185,173,o),
(201,256,cs),
(216,332,o),
(269,403,o),
(349,403,cs),
(431,403,o),
(463,327,o),
(447,244,cs),
(432,167,o),
(378,97,o),
(299,97,cs)
);
}
);
width = 621;
},
{
layerId = m006;
shapes = (
{
closed = 1;
nodes = (
(402,-16,o),
(492,108,o),
(518,238,cs),
(547,386,o),
(488,516,o),
(346,516,cs),
(238,516,o),
(150,440,o),
(130,330,cs),
(99,170,ls),
(79,65,o),
(150,-16,o),
(263,-16,cs)
);
},
{
closed = 1;
nodes = (
(86,0,l),
(222,700,l),
(167,700,l),
(31,0,l)
);
},
{
closed = 1;
nodes = (
(150,37,o),
(114,145,o),
(136,258,cs),
(157,362,o),
(226,463,o),
(335,463,cs),
(447,463,o),
(483,355,o),
(461,243,cs),
(441,138,o),
(371,37,o),
(262,37,cs)
);
}
);
width = 570;
}
);
metricLeft = l;
metricRight = o;
unicode = 98;
},
{
glyphname = c;
kernLeft = o;
kernRight = o;
lastChange = "2022-12-03 14:03:22 +0000";
layers = (
{
layerId = m01;
shapes = (
{
closed = 1;
nodes = (
(399,-16,o),
(491,65,o),
(501,177,c),
(423,187,l),
(417,108,o),
(362,57,o),
(281,57,cs),
(185,57,o),
(123,132,o),
(123,248,cs),
(123,366,o),
(185,443,o),
(281,443,cs),
(360,443,o),
(417,388,o),
(423,307,c),
(501,317,l),
(491,431,o),
(397,516,o),
(281,516,cs),
(142,516,o),
(45,406,o),
(45,248,cs),
(45,91,o),
(141,-16,o),
(281,-16,cs)
);
}
);
width = 546;
},
{
layerId = m005;
shapes = (
{
closed = 1;
nodes = (
(418,-16,o),
(527,34,o),
(543,183,c),
(397,193,l),
(382,118,o),
(346,97,o),
(296,97,cs),
(222,97,o),
(183,147,o),
(183,248,cs),
(183,341,o),
(224,403,o),
(296,403,cs),
(354,403,o),
(382,375,o),
(397,301,c),
(543,311,l),
(526,460,o),
(419,516,o),
(296,516,cs),
(163,516,o),
(35,431,o),
(35,247,cs),
(35,64,o),
(163,-16,o),
(296,-16,cs)
);
}
);
width = 578;
},
{
layerId = m007;
shapes = (
{
closed = 1;
nodes = (
(396,-16,o),
(472,69,o),
(485,178,c),
(427,186,l),
(418,106,o),
(376,37,o),
(276,37,cs),
(156,37,o),
(108,144,o),
(108,248,cs),
(108,351,o),
(156,463,o),
(276,463,cs),
(376,463,o),
(418,388,o),
(427,308,c),
(485,316,l),
(472,425,o),
(396,516,o),
(276,516,cs),
(156,516,o),
(50,428,o),
(50,248,cs),
(50,68,o),
(156,-16,o),
(276,-16,cs)
);
}
);
width = 535;
},
{
layerId = m004;
shapes = (
{
closed = 1;
nodes = (
(363,-16,o),
(453,66,o),
(486,177,c),
(410,187,l),
(388,111,o),
(326,57,o),
(249,57,cs),
(140,57,o),
(106,166,o),
(125,265,cs),
(144,369,o),
(217,443,o),
(306,443,cs),
(388,443,o),
(430,379,o),
(435,307,c),
(515,317,l),
(509,430,o),
(429,516,o),
(309,516,cs),
(175,516,o),
(75,409,o),
(49,273,cs),
(20,121,o),
(94,-16,o),
(246,-16,cs)
);
}
);
width = 547;
},
{
layerId = m008;
shapes = (
{
closed = 1;
nodes = (
(392,-16,o),
(504,57,o),
(537,181,c),
(402,191,l),
(383,130,o),
(326,97,o),
(271,97,cs),
(181,97,o),
(161,186,o),
(175,261,cs),
(192,346,o),
(252,403,o),
(323,403,cs),
(386,403,o),
(420,357,o),
(422,303,c),
(561,313,l),
(564,439,o),
(458,516,o),
(329,516,cs),
(185,516,o),
(67,420,o),
(40,274,cs),
(10,117,o),
(102,-16,o),
(269,-16,cs)
);
}
);
width = 585;
},
{
layerId = m006;
shapes = (
{
closed = 1;
nodes = (
(351,-16,o),
(434,62,o),
(468,166,c),
(412,176,l),
(387,97,o),
(325,37,o),
(242,37,cs),
(125,37,o),
(88,158,o),
(111,271,cs),
(132,378,o),
(204,463,o),
(301,463,cs),
(388,463,o),
(431,394,o),
(439,318,c),
(499,328,l),
(490,434,o),
(417,516,o),
(304,516,cs),
(173,516,o),
(79,405,o),
(54,273,cs),
(25,122,o),
(93,-16,o),
(240,-16,cs)
);
}
);
width = 534;
}
);
metricLeft = o;
metricRight = o;
unicode = 99;
},
{
glyphname = d;
kernLeft = o;
kernRight = l;
lastChange = "2022-12-03 14:03:22 +0000";
layers = (
{
layerId = m01;
shapes = (
{
closed = 1;
nodes = (
(374,-16,o),
(446,63,o),
(446,170,cs),
(446,330,ls),
(446,437,o),
(374,516,o),
(267,516,cs),
(124,516,o),
(45,393,o),
(45,250,cs),
(45,107,o),
(124,-16,o),
(267,-16,cs)
);
},
{
closed = 1;
nodes = (
(175,57,o),
(123,148,o),
(123,250,cs),
(123,352,o),
(175,443,o),
(277,443,cs),
(379,443,o),
(431,352,o),
(431,250,cs),
(431,148,o),
(379,57,o),
(277,57,cs)
);
},
{
closed = 1;
nodes = (
(506,0,l),
(506,700,l),
(431,700,l),
(431,0,l)
);
}
);
width = 581;
},
{
layerId = m005;
shapes = (
{
closed = 1;
nodes = (
(380,-16,o),
(446,87,o),
(446,210,cs),
(446,290,ls),
(446,413,o),
(380,516,o),
(257,516,cs),
(113,516,o),
(35,394,o),
(35,250,cs),
(35,106,o),
(113,-16,o),
(257,-16,cs)
);
},
{
closed = 1;
nodes = (
(215,97,o),
(173,168,o),
(173,250,cs),
(173,332,o),
(215,403,o),
(297,403,cs),
(379,403,o),
(421,332,o),
(421,250,cs),
(421,168,o),
(379,97,o),
(297,97,cs)
);
},
{
closed = 1;
nodes = (
(556,0,l),
(556,700,l),
(421,700,l),
(421,0,l)
);
}
);
width = 621;
},
{
layerId = m007;
shapes = (
{
closed = 1;
nodes = (
(371,-16,o),
(456,61,o),
(456,170,cs),
(456,330,ls),
(456,439,o),
(371,516,o),
(262,516,cs),
(122,516,o),
(50,390,o),
(50,250,cs),
(50,110,o),
(122,-16,o),
(262,-16,cs)
);
},
{
closed = 1;
nodes = (
(161,37,o),
(108,139,o),
(108,250,cs),
(108,361,o),
(161,463,o),
(272,463,cs),
(382,463,o),
(436,360,o),
(436,250,cs),
(436,140,o),
(382,37,o),
(272,37,cs)
);
},
{
closed = 1;
nodes = (
(491,0,l),
(491,700,l),
(436,700,l),
(436,0,l)
);
}
);
width = 571;
},
{
layerId = m004;
shapes = (
{
closed = 1;
nodes = (
(321,-16,o),
(410,59,o),
(429,170,cs),
(460,330,ls),
(481,437,o),
(404,516,o),
(293,516,cs),
(155,516,o),
(72,392,o),
(48,265,cs),
(20,120,o),
(71,-16,o),
(214,-16,cs)
);
},
{
closed = 1;
nodes = (
(139,57,o),
(105,158,o),
(126,262,cs),
(144,354,o),
(204,443,o),
(303,443,cs),
(405,443,o),
(447,348,o),
(426,241,cs),
(408,147,o),
(343,57,o),
(244,57,cs)
);
},
{
closed = 1;
nodes = (
(455,0,l),
(591,700,l),
(516,700,l),
(380,0,l)
);
}
);
width = 579;
},
{
layerId = m008;
shapes = (
{
closed = 1;
nodes = (
(332,-16,o),
(416,86,o),
(439,210,cs),
(454,290,ls),
(477,408,o),
(419,516,o),
(291,516,cs),
(154,516,o),
(64,392,o),
(38,263,cs),
(9,115,o),
(68,-16,o),
(208,-16,cs)
);
},
{
closed = 1;
nodes = (
(190,97,o),
(158,173,o),
(174,256,cs),
(189,333,o),
(243,403,o),
(322,403,cs),
(405,403,o),
(436,327,o),
(420,244,cs),
(405,168,o),
(352,97,o),
(272,97,cs)
);
},
{
closed = 1;
nodes = (
(508,0,l),
(644,700,l),
(509,700,l),
(373,0,l)
);
}
);
width = 622;
},
{
layerId = m006;
shapes = (
{
closed = 1;
nodes = (
(332,-16,o),
(420,60,o),
(440,170,cs),
(471,330,ls),
(491,435,o),
(420,516,o),
(307,516,cs),
(168,516,o),
(78,392,o),
(52,262,cs),
(23,114,o),
(82,-16,o),
(224,-16,cs)
);
},
{
closed = 1;
nodes = (
(123,37,o),
(87,145,o),
(109,257,cs),
(129,362,o),
(199,463,o),
(308,463,cs),
(420,463,o),
(456,355,o),
(434,242,cs),
(413,138,o),
(344,37,o),
(235,37,cs)
);
},
{
closed = 1;
nodes = (
(442,0,l),
(578,700,l),
(523,700,l),
(387,0,l)
);
}
);
width = 571;
}
);
metricLeft = o;
metricRight = l;
unicode = 100;
},
{
glyphname = eth;
kernLeft = o;
kernRight = O;
lastChange = "2022-11-28 22:23:30 +0000";
layers = (
{
layerId = m01;
shapes = (
{
closed = 1;
nodes = (
(446,-16,o),
(529,116,o),
(529,276,cs),
(529,514,o),
(404,716,o),
(166,716,c),
(166,648,l),
(362,648,o),
(459,476,o),
(459,280,c),
(474,270,l),
(474,382,o),
(398,465,o),
(286,465,cs),
(146,465,o),
(45,364,o),
(45,224,cs),
(45,85,o),
(147,-16,o),
(286,-16,cs)
);
},
{
closed = 1;
nodes = (
(190,57,o),
(123,130,o),
(123,226,cs),
(123,322,o),
(190,392,o),
(286,392,cs),
(382,392,o),
(452,322,o),
(452,226,cs),
(452,129,o),
(383,57,o),
(286,57,cs)
);
},
{
closed = 1;
nodes = (
(500,650,l),
(477,695,l),
(169,550,l),
(192,505,l)
);
}
);
width = 589;
},
{
layerId = m005;
shapes = (
{
closed = 1;
nodes = (
(456,-15,o),
(561,104,o),
(561,280,cs),
(561,541,o),
(404,715,o),
(168,715,c),
(168,605,l),
(336,605,o),
(447,495,o),
(447,329,c),
(468,287,l),
(468,394,o),
(393,465,o),
(280,465,cs),
(139,465,o),
(35,362,o),
(35,224,cs),
(35,82,o),
(145,-17,o),
(301,-16,cs)
);
},
{
closed = 1;
nodes = (
(231,97,o),
(183,150,o),
(183,226,cs),
(183,300,o),
(231,352,o),
(301,352,cs),
(373,352,o),
(422,301,o),
(422,226,cs),
(422,150,o),
(373,97,o),
(301,97,cs)
);
},
{
closed = 1;
nodes = (
(531,631,l),
(505,685,l),
(188,537,l),
(214,483,l)
);
}
);
width = 611;
},
{
layerId = m007;
shapes = (
{
closed = 1;
nodes = (
(431,-16,o),
(514,106,o),
(514,256,cs),
(514,491,o),
(406,706,o),
(171,706,c),
(171,658,l),
(366,658,o),
(464,480,o),
(464,285,c),
(468,289,l),
(468,392,o),
(384,454,o),
(281,454,cs),
(146,454,o),
(50,355,o),
(50,220,cs),
(50,85,o),
(146,-16,o),
(281,-16,cs)
);
},
{
closed = 1;
nodes = (
(177,37,o),
(108,116,o),
(108,220,cs),
(108,323,o),
(178,401,o),
(281,401,cs),
(385,401,o),
(457,324,o),
(457,220,cs),
(457,116,o),
(385,37,o),
(281,37,cs)
);
},
{
closed = 1;
nodes = (
(493,645,l),
(475,681,l),
(176,541,l),
(194,505,l)
);
}
);
width = 579;
},
{
layerId = m004;
shapes = (
{
closed = 1;
nodes = (
(413,-16,o),
(503,119,o),
(534,276,cs),
(578,503,o),
(487,716,o),
(256,716,c),
(243,648,l),
(435,648,o),
(501,469,o),
(464,280,c),
(477,270,l),
(499,379,o),
(428,465,o),
(317,465,cs),
(177,465,o),
(69,376,o),
(43,239,cs),
(15,96,o),
(107,-16,o),
(253,-16,cs)
);
},
{
closed = 1;
nodes = (
(158,57,o),
(100,134,o),
(119,234,cs),
(136,318,o),
(203,392,o),
(303,392,cs),
(403,392,o),
(465,318,o),
(446,219,cs),
(429,134,o),
(358,57,o),
(258,57,cs)
);
},
{
closed = 1;
nodes = (
(577,650,l),
(563,695,l),
(227,550,l),
(241,505,l)
);
}
);
width = 589;
},
{
layerId = m008;
shapes = (
{
closed = 1;
nodes = (
(433,-15,o),
(534,117,o),
(566,280,cs),
(611,514,o),
(496,715,o),
(258,715,c),
(237,605,l),
(397,605,o),
(493,486,o),
(462,329,c),
(482,276,l),
(496,388,o),
(413,465,o),
(300,465,cs),
(164,465,o),
(58,375,o),
(33,242,cs),
(4,91,o),
(113,-17,o),
(267,-16,cs)
);
},
{
closed = 1;
nodes = (
(199,98,o),
(155,156,o),
(170,232,cs),
(183,302,o),
(240,351,o),
(309,351,cs),
(384,351,o),
(430,294,o),
(416,219,cs),
(402,149,o),
(342,98,o),
(273,98,cs)
);
},
{
closed = 1;
nodes = (
(605,631,l),
(589,685,l),
(243,537,l),
(259,483,l)
);
}
);
width = 610;
},
{
layerId = m006;
shapes = (
{
closed = 1;
nodes = (
(395,-16,o),
(487,107,o),
(516,256,cs),
(560,484,o),
(492,706,o),
(260,706,c),
(251,658,l),
(445,658,o),
(508,475,o),
(471,285,c),
(476,289,l),
(497,390,o),
(413,454,o),
(310,454,cs),
(176,454,o),
(72,365,o),
(47,233,cs),
(20,96,o),
(103,-16,o),
(243,-16,cs)
);
},
{
closed = 1;
nodes = (
(143,37,o),
(83,121,o),
(103,223,cs),
(124,326,o),
(199,401,o),
(304,401,cs),
(408,401,o),
(471,320,o),
(451,218,cs),
(430,114,o),
(353,37,o),
(247,37,cs)
);
},
{
closed = 1;
nodes = (
(570,645,l),
(559,681,l),
(233,541,l),
(244,505,l)
);
}
);
width = 580;
}
);
metricLeft = d;
unicode = 240;
},
{
glyphname = dcroat;
kernLeft = o;
kernRight = l;
lastChange = "2022-11-25 14:12:14 +0000";
layers = (
{
layerId = m01;
shapes = (
{
closed = 1;
nodes = (
(604,573,l),
(604,627,l),
(244,627,l),
(244,573,l)
);
},
{
ref = d;
}
);
width = 589;
},
{
layerId = m005;
shapes = (
{
closed = 1;
nodes = (
(651,568,l),
(651,630,l),
(263,630,l),
(263,568,l)
);
},
{
ref = d;
}
);
width = 626;
},
{
layerId = m007;
shapes = (
{
closed = 1;
nodes = (
(594,583,l),
(594,617,l),
(254,617,l),
(254,583,l)
);
},
{
ref = d;
}
);
width = 584;
},
{
layerId = m004;
shapes = (
{
closed = 1;
nodes = (
(667,573,l),
(678,627,l),
(318,627,l),
(307,573,l)
);
},
{
ref = d;
}
);
width = 590;
},
{
layerId = m008;
shapes = (
{
closed = 1;
nodes = (
(713,568,l),
(725,630,l),
(337,630,l),
(325,568,l)
);
},
{
ref = d;
}
);
width = 626;
},
{
layerId = m006;
shapes = (
{
closed = 1;
nodes = (
(659,583,l),
(666,617,l),
(326,617,l),
(319,583,l)
);
},
{
ref = d;
}
);
width = 585;
}
);
metricLeft = d;
metricRight = "=l-90";
unicode = 273;
},
{
glyphname = e;
kernLeft = o;
kernRight = o;
lastChange = "2022-12-03 14:03:22 +0000";
layers = (
{
layerId = m01;
shapes = (
{
closed = 1;
nodes = (
(386,-16,o),
(472,41,o),
(493,144,c),
(415,154,l),
(400,91,o),
(345,57,o),
(281,57,cs),
(184,57,o),
(123,133,o),
(123,230,c),
(496,230,l),
(496,248,ls),
(496,410,o),
(407,516,o),
(272,516,cs),
(138,516,o),
(45,407,o),
(45,248,cs),
(45,100,o),
(133,-16,o),
(281,-16,cs)
);
},
{
closed = 1;
nodes = (
(123,384,o),
(186,443,o),
(272,443,cs),
(357,443,o),
(418,383,o),
(418,298,c),
(123,298,l)
);
}
);
width = 536;
},
{
layerId = m005;
shapes = (
{
closed = 1;
nodes = (
(410,-16,o),
(519,34,o),
(536,147,c),
(400,157,l),
(383,115,o),
(341,97,o),
(296,97,cs),
(227,97,o),
(174,141,o),
(174,210,c),
(536,210,l),
(536,248,ls),
(536,408,o),
(436,516,o),
(287,516,cs),
(138,516,o),
(35,406,o),
(35,248,cs),
(35,93,o),
(141,-16,o),
(296,-16,cs)
);
},
{
closed = 1;
nodes = (
(174,369,o),
(226,403,o),
(287,403,cs),
(347,403,o),
(397,368,o),
(397,308,c),
(174,308,l)
);
}
);
width = 566;
},
{
layerId = m007;
shapes = (
{
closed = 1;
nodes = (
(374,-16,o),
(452,40,o),
(476,135,c),
(417,143,l),
(398,78,o),
(344,37,o),
(276,37,cs),
(167,37,o),
(108,131,o),
(108,240,c),
(481,240,l),
(481,248,ls),
(481,411,o),
(397,516,o),
(267,516,cs),
(139,516,o),
(50,406,o),
(50,248,cs),
(50,103,o),
(131,-16,o),
(276,-16,cs)
);
},
{
closed = 1;
nodes = (
(108,386,o),
(169,463,o),
(267,463,cs),
(364,463,o),
(423,385,o),
(423,288,c),
(108,288,l)
);
}
);
width = 526;
},
{
layerId = m004;
shapes = (
{
closed = 1;
nodes = (
(351,-16,o),
(434,49,o),
(472,144,c),
(396,154,l),
(369,96,o),
(317,57,o),
(251,57,cs),
(157,57,o),
(99,136,o),
(119,230,c),
(492,230,l),
(498,265,ls),
(521,400,o),
(446,516,o),
(307,516,cs),
(169,516,o),
(75,402,o),
(49,273,cs),
(18,116,o),
(97,-16,o),
(246,-16,cs)
);
},
{
closed = 1;
nodes = (
(149,382,o),
(213,443,o),
(298,443,cs),
(384,443,o),
(444,381,o),
(427,298,c),
(132,298,l)
);
}
);
width = 536;
},
{
layerId = m008;
shapes = (
{
closed = 1;
nodes = (
(378,-16,o),
(480,41,o),
(516,147,c),
(381,157,l),
(358,119,o),
(318,97,o),
(272,97,cs),
(205,97,o),
(153,143,o),
(166,210,c),
(528,210,l),
(535,248,ls),
(562,398,o),
(464,516,o),
(313,516,cs),
(169,516,o),
(66,410,o),
(40,276,cs),
(8,113,o),
(106,-16,o),
(269,-16,cs)
);
},
{
closed = 1;
nodes = (
(196,370,o),
(253,403,o),
(311,403,cs),
(373,403,o),
(418,365,o),
(408,308,c),
(185,308,l)
);
}
);
width = 566;
},
{
layerId = m006;
shapes = (
{
closed = 1;
nodes = (
(343,-16,o),
(414,50,o),
(453,135,c),
(396,145,l),
(367,87,o),
(318,37,o),
(244,37,cs),
(143,37,o),
(85,132,o),
(106,240,c),
(479,240,l),
(480,248,ls),
(498,385,o),
(435,516,o),
(294,516,cs),
(167,516,o),
(81,409,o),
(56,283,cs),
(26,129,o),
(95,-16,o),
(243,-16,cs)
);
},
{
closed = 1;
nodes = (
(134,384,o),
(200,463,o),
(294,463,cs),
(390,463,o),
(438,380,o),
(430,288,c),
(115,288,l)
);
}
);
width = 526;
}
);
metricLeft = o;
metricRight = "=o-5";
unicode = 101;
},
{
glyphname = f;
kernLeft = f;
kernRight = f;
lastChange = "2022-11-29 07:49:53 +0000";
layers = (
{
layerId = m01;
shapes = (
{
closed = 1;
nodes = (
(203,0,l),
(203,577,ls),
(203,617,o),
(223,637,o),
(263,637,cs),
(353,637,l),
(353,710,l),
(268,710,ls),
(174,710,o),
(128,664,o),
(128,570,cs),
(128,0,l)
);
},
{
closed = 1;
nodes = (
(353,427,l),
(353,500,l),
(20,500,l),
(20,427,l)
);
}
);
width = 373;
},
{
layerId = m005;
shapes = (
{
closed = 1;
nodes = (
(253,0,l),
(253,537,ls),
(253,577,o),
(273,597,o),
(313,597,cs),
(403,597,l),
(403,710,l),
(288,710,ls),
(174,710,o),
(118,657,o),
(118,550,cs),
(118,0,l)
);
},
{
closed = 1;
nodes = (
(403,387,l),
(403,500,l),
(10,500,l),
(10,387,l)
);
}
);
width = 413;
},
{
layerId = m007;
shapes = (
{
closed = 1;
nodes = (
(188,0,l),
(188,587,ls),
(188,634,o),
(211,657,o),
(258,657,cs),
(338,657,l),
(338,710,l),
(263,710,ls),
(176,710,o),
(133,667,o),
(133,580,cs),
(133,0,l)
);
},
{
closed = 1;
nodes = (
(338,447,l),
(338,500,l),
(25,500,l),
(25,447,l)
);
}
);
width = 363;
},
{
layerId = m004;
shapes = (
{
closed = 1;
nodes = (
(155,0,l),
(267,577,ls),
(275,617,o),
(299,637,o),
(339,637,cs),
(429,637,l),
(443,710,l),
(358,710,ls),
(264,710,o),
(209,664,o),
(191,570,cs),
(80,0,l)
);
},
{
closed = 1;
nodes = (
(388,427,l),
(402,500,l),
(69,500,l),
(55,427,l)
);
}
);
width = 374;
},
{
layerId = m008;
shapes = (
{
closed = 1;
nodes = (
(205,0,l),
(309,537,ls),
(317,577,o),
(338,597,o),
(371,597,cs),
(471,597,l),
(493,710,l),
(358,710,ls),
(257,710,o),
(199,666,o),
(182,577,cs),
(70,0,l)
);
},
{
closed = 1;
nodes = (
(430,387,l),
(452,500,l),
(59,500,l),
(37,387,l)
);
}
);
width = 414;
},
{
layerId = m006;
shapes = (
{
closed = 1;
nodes = (
(140,0,l),
(254,587,ls),
(263,634,o),
(291,657,o),
(338,657,cs),
(418,657,l),
(428,710,l),
(353,710,ls),
(265,710,o),
(214,667,o),
(198,580,cs),
(85,0,l)
);
},
{
closed = 1;
nodes = (
(377,447,l),
(387,500,l),
(74,500,l),
(64,447,l)
);
}
);
width = 364;
}
);
unicode = 102;
},
{
glyphname = g;
kernLeft = o;
kernRight = g;
lastChange = "2022-12-03 14:03:22 +0000";
layers = (
{
layerId = m01;
shapes = (
{
closed = 1;
nodes = (
(407,-216,o),
(506,-133,o),
(506,19,cs),
(506,500,l),
(431,500,l),
(431,19,ls),
(431,-88,o),
(366,-143,o),
(277,-143,cs),
(195,-143,o),
(138,-97,o),
(138,-51,c),
(60,-61,l),
(60,-138,o),
(151,-216,o),
(277,-216,cs)
);
},
{
closed = 1;
nodes = (
(374,-16,o),
(446,63,o),
(446,170,cs),
(446,330,ls),
(446,437,o),
(374,516,o),
(267,516,cs),
(124,516,o),
(45,393,o),
(45,250,cs),
(45,107,o),
(124,-16,o),
(267,-16,cs)
);
},
{
closed = 1;
nodes = (
(175,57,o),
(123,148,o),
(123,250,cs),
(123,352,o),
(175,443,o),
(277,443,cs),
(379,443,o),
(431,352,o),
(431,250,cs),
(431,148,o),
(379,57,o),
(277,57,cs)
);
}
);
width = 581;
},
{
layerId = m005;
shapes = (
{
closed = 1;
nodes = (
(459,-216,o),
(556,-130,o),
(556,50,cs),
(556,500,l),
(421,500,l),
(421,20,ls),
(421,-90,o),
(338,-103,o),
(292,-103,cs),
(238,-103,o),
(208,-85,o),
(198,-45,c),
(50,-55,l),
(50,-113,o),
(109,-216,o),
(292,-216,cs)
);
},
{
closed = 1;
nodes = (
(380,-16,o),
(446,87,o),
(446,210,cs),
(446,290,ls),
(446,413,o),
(380,516,o),
(257,516,cs),
(113,516,o),
(35,394,o),
(35,250,cs),
(35,106,o),
(113,-16,o),
(257,-16,cs)
);
},
{
closed = 1;
nodes = (
(215,97,o),
(173,168,o),
(173,250,cs),
(173,332,o),
(215,403,o),
(297,403,cs),
(379,403,o),
(421,332,o),
(421,250,cs),
(421,168,o),
(379,97,o),
(297,97,cs)
);
}
);
width = 621;
},
{
layerId = m007;
shapes = (
{
closed = 1;
nodes = (
(394,-216,o),
(491,-146,o),
(491,9,cs),
(491,500,l),
(436,500,l),
(436,9,ls),
(436,-118,o),
(357,-163,o),
(272,-163,cs),
(168,-163,o),
(133,-96,o),
(125,-62,c),
(66,-70,l),
(73,-122,o),
(130,-216,o),
(272,-216,cs)
);
},
{
closed = 1;
nodes = (
(371,-16,o),
(456,61,o),
(456,170,cs),
(456,330,ls),
(456,439,o),
(371,516,o),
(262,516,cs),
(122,516,o),
(50,390,o),
(50,250,cs),
(50,110,o),
(122,-16,o),
(262,-16,cs)
);
},
{
closed = 1;
nodes = (
(161,37,o),
(108,139,o),
(108,250,cs),
(108,361,o),
(161,463,o),
(272,463,cs),
(382,463,o),
(436,360,o),
(436,250,cs),
(436,140,o),
(382,37,o),
(272,37,cs)
);
}
);
width = 571;
},
{
layerId = m004;
shapes = (
{
closed = 1;
nodes = (
(337,-216,o),
(429,-134,o),
(459,19,cs),
(552,500,l),
(477,500,l),
(384,19,ls),
(363,-87,o),
(299,-143,o),
(210,-143,cs),
(132,-143,o),
(77,-101,o),
(77,-51,c),
(-3,-61,l),
(-3,-142,o),
(91,-216,o),
(211,-216,cs)
);
},
{
closed = 1;
nodes = (
(321,-16,o),
(410,59,o),
(429,170,cs),
(460,330,ls),
(481,437,o),
(404,516,o),
(293,516,cs),
(155,516,o),
(72,392,o),
(48,265,cs),
(20,120,o),
(71,-16,o),
(214,-16,cs)
);
},
{
closed = 1;
nodes = (
(139,57,o),
(105,158,o),
(126,262,cs),
(144,354,o),
(204,443,o),
(303,443,cs),
(405,443,o),
(447,348,o),
(426,241,cs),
(408,147,o),
(343,57,o),
(244,57,cs)
);
}
);
width = 579;
},
{
layerId = m008;
shapes = (
{
closed = 1;
nodes = (
(378,-216,o),
(484,-124,o),
(512,20,cs),
(605,500,l),
(470,500,l),
(377,20,ls),
(361,-65,o),
(317,-103,o),
(238,-103,cs),
(178,-103,o),
(141,-81,o),
(141,-45,c),
(-9,-55,l),
(-9,-153,o),
(87,-216,o),
(238,-216,cs)
);
},
{
closed = 1;
nodes = (
(332,-16,o),
(416,86,o),
(439,210,cs),
(454,290,ls),
(477,408,o),
(419,516,o),
(291,516,cs),
(154,516,o),
(64,392,o),
(38,263,cs),
(9,115,o),
(68,-16,o),
(208,-16,cs)
);
},
{
closed = 1;
nodes = (
(190,97,o),
(158,173,o),
(174,256,cs),
(189,333,o),
(243,403,o),
(322,403,cs),
(405,403,o),
(436,327,o),
(420,244,cs),
(405,168,o),
(352,97,o),
(272,97,cs)
);
}
);
width = 622;
},
{
layerId = m006;
shapes = (
{
closed = 1;
nodes = (
(325,-216,o),
(416,-138,o),
(444,9,cs),
(539,500,l),
(484,500,l),
(389,9,ls),
(367,-104,o),
(299,-163,o),
(205,-163,cs),
(123,-163,o),
(66,-118,o),
(64,-62,c),
(3,-70,l),
(-1,-146,o),
(84,-216,o),
(201,-216,cs)
);
},
{
closed = 1;
nodes = (
(332,-16,o),
(420,60,o),
(440,170,cs),
(471,330,ls),
(491,435,o),
(420,516,o),
(307,516,cs),
(168,516,o),
(78,392,o),
(52,262,cs),
(23,114,o),
(82,-16,o),
(224,-16,cs)
);
},
{
closed = 1;
nodes = (
(123,37,o),
(87,145,o),
(109,257,cs),
(129,362,o),
(199,463,o),
(308,463,cs),
(420,463,o),
(456,355,o),
(434,242,cs),
(413,138,o),
(344,37,o),
(235,37,cs)
);
}
);
width = 571;
}
);
metricLeft = o;
metricRight = l;
unicode = 103;
},
{
glyphname = h;
kernLeft = l;
kernRight = m;
lastChange = "2022-11-25 14:13:32 +0000";
layers = (
{
layerId = m01;
shapes = (
{
closed = 1;
nodes = (
(478,0,l),
(478,349,ls),
(478,444,o),
(420,516,o),
(325,516,cs),
(219,516,o),
(135,455,o),
(135,349,c),
(150,243,l),
(150,347,o),
(196,443,o),
(300,443,cs),
(368,443,o),
(403,387,o),
(403,319,cs),
(403,0,l)
);
},
{
closed = 1;
nodes = (
(150,0,l),
(150,700,l),
(75,700,l),
(75,0,l)
);
}
);
width = 548;
},
{
layerId = m005;
shapes = (
{
closed = 1;
nodes = (
(528,0,l),
(528,319,ls),
(528,424,o),
(477,516,o),
(372,516,cs),
(247,516,o),
(174,418,o),
(174,293,c),
(200,243,l),
(200,324,o),
(230,403,o),
(311,403,cs),
(365,403,o),
(393,357,o),
(393,303,cs),
(393,0,l)
);
},
{
closed = 1;
nodes = (
(200,0,l),
(200,700,l),
(65,700,l),
(65,0,l)
);
}
);
width = 588;
},
{
layerId = m007;
shapes = (
{
closed = 1;
nodes = (
(463,0,l),
(463,339,ls),
(463,437,o),
(407,516,o),
(309,516,cs),
(193,516,o),
(115,435,o),
(115,319,c),
(135,243,l),
(135,356,o),
(182,463,o),
(295,463,cs),
(375,463,o),
(408,389,o),
(408,309,cs),
(408,0,l)
);
},
{
closed = 1;
nodes = (
(135,0,l),
(135,700,l),
(80,700,l),
(80,0,l)
);
}
);
width = 538;
},
{
layerId = m004;
shapes = (
{
closed = 1;
nodes = (
(429,0,l),
(491,318,ls),
(511,423,o),
(464,516,o),
(357,516,cs),
(255,516,o),
(169,450,o),
(154,349,c),
(148,243,l),
(168,348,o),
(230,443,o),
(337,443,cs),
(409,443,o),
(426,371,o),
(412,300,cs),
(354,0,l)
);
},
{
closed = 1;
nodes = (
(101,0,l),
(237,700,l),
(162,700,l),
(26,0,l)
);
}
);
width = 548;
},
{
layerId = m008;
shapes = (
{
closed = 1;
nodes = (
(479,0,l),
(541,319,ls),
(562,429,o),
(505,516,o),
(393,516,cs),
(272,516,o),
(205,412,o),
(182,293,c),
(198,243,l),
(214,325,o),
(256,403,o),
(340,403,cs),
(393,403,o),
(413,355,o),
(403,303,cs),
(344,0,l)
);
},
{
closed = 1;
nodes = (
(151,0,l),
(287,700,l),
(152,700,l),
(16,0,l)
);
}
);
width = 588;
},
{
layerId = m006;
shapes = (
{
closed = 1;
nodes = (
(414,0,l),
(480,339,ls),
(499,436,o),
(449,516,o),
(350,516,cs),
(234,516,o),
(150,433,o),
(128,319,c),
(133,243,l),
(156,358,o),
(218,463,o),
(336,463,cs),
(416,463,o),
(434,387,o),
(419,309,cs),
(359,0,l)
);
},
{
closed = 1;
nodes = (
(86,0,l),
(222,700,l),
(167,700,l),
(31,0,l)
);
}
);
width = 538;
}
);
metricLeft = m;
metricRight = m;
unicode = 104;
},
{
glyphname = hbar;
kernLeft = l;
kernRight = m;
lastChange = "2022-11-25 14:12:14 +0000";
layers = (
{
layerId = m01;
shapes = (
{
closed = 1;
nodes = (
(345,573,l),
(345,627,l),
(-15,627,l),
(-15,573,l)
);
},
{
pos = (5,0);
ref = h;
}
);
width = 553;
},
{
layerId = m005;
shapes = (
{
closed = 1;
nodes = (
(363,568,l),
(363,630,l),
(-25,630,l),
(-25,568,l)
);
},
{
pos = (5,0);
ref = h;
}
);
width = 593;
},
{
layerId = m007;
shapes = (
{
closed = 1;
nodes = (
(330,583,l),
(330,617,l),
(-10,617,l),
(-10,583,l)
);
},
{
ref = h;
}
);
width = 538;
},
{
layerId = m004;
shapes = (
{
closed = 1;
nodes = (
(408,573,l),
(419,627,l),
(59,627,l),
(48,573,l)
);
},
{
pos = (5,0);
ref = h;
}
);
width = 553;
},
{
layerId = m008;
shapes = (
{
closed = 1;
nodes = (
(425,568,l),
(437,630,l),
(49,630,l),
(37,568,l)
);
},
{
pos = (5,0);
ref = h;
}
);
width = 593;
},
{
layerId = m006;
shapes = (
{
closed = 1;
nodes = (
(395,583,l),
(402,617,l),
(62,617,l),
(55,583,l)
);
},
{
ref = h;
}
);
width = 538;
}
);
metricLeft = "=h-90";
metricRight = h;
unicode = 295;
},
{
glyphname = idotless;
kernLeft = i;
kernRight = i;
lastChange = "2022-11-25 14:12:14 +0000";
layers = (
{
layerId = m01;
shapes = (
{
closed = 1;
nodes = (
(150,0,l),
(150,500,l),
(75,500,l),
(75,0,l)
);
}
);
width = 225;
},
{
layerId = m005;
shapes = (
{
closed = 1;
nodes = (
(200,0,l),
(200,500,l),
(65,500,l),
(65,0,l)
);
}
);
width = 265;
},
{
layerId = m007;
shapes = (
{
closed = 1;
nodes = (
(135,0,l),
(135,500,l),
(80,500,l),
(80,0,l)
);
}
);
width = 215;
},
{
layerId = m004;
shapes = (
{
closed = 1;
nodes = (
(102,0,l),
(199,500,l),
(124,500,l),
(27,0,l)
);
}
);
width = 226;
},
{
layerId = m008;
shapes = (
{
closed = 1;
nodes = (
(152,0,l),
(249,500,l),
(114,500,l),
(17,0,l)
);
}
);
width = 266;
},
{
layerId = m006;
shapes = (
{
closed = 1;
nodes = (
(87,0,l),
(184,500,l),
(129,500,l),
(32,0,l)
);
}
);
width = 216;
}
);
metricLeft = l;
metricRight = l;
unicode = 305;
},
{
glyphname = ibreve;
kernLeft = i;
kernRight = i;
lastChange = "2022-11-25 14:12:14 +0000";
layers = (
{
layerId = m01;
shapes = (
{
closed = 1;
nodes = (
(168,580,o),
(205,646,o),
(205,730,c),
(141,730,l),
(140,672,o),
(122,644,o),
(85,644,cs),
(48,644,o),
(30,672,o),
(29,730,c),
(-35,730,l),
(-35,646,o),
(1,580,o),
(85,580,cs)
);
},
{
pos = (-27,0);
ref = idotless;
}
);
width = 170;
},
{
layerId = m005;
shapes = (
{
closed = 1;
nodes = (
(217,580,o),
(243,672,o),
(243,750,c),
(130,750,l),
(130,707,o),
(124,684,o),
(99,684,cs),
(74,684,o),
(68,707,o),
(68,750,c),
(-45,750,l),
(-45,673,o),
(-20,580,o),
(99,580,cs)
);
},
{
pos = (-33,0);
ref = idotless;
}
);
width = 198;
},
{
layerId = m007;
shapes = (
{
closed = 1;
nodes = (
(154,590,o),
(187,644,o),
(190,720,c),
(146,720,l),
(143,664,o),
(121,634,o),
(80,634,cs),
(39,634,o),
(17,664,o),
(14,720,c),
(-30,720,l),
(-27,644,o),
(5,590,o),
(80,590,cs)
);
},
{
pos = (-27,0);
ref = idotless;
}
);
width = 160;
},
{
layerId = m004;
shapes = (
{
closed = 1;
nodes = (
(232,580,o),
(282,646,o),
(298,730,c),
(234,730,l),
(222,672,o),
(198,644,o),
(161,644,cs),
(124,644,o),
(112,672,o),
(122,730,c),
(58,730,l),
(42,646,o),
(65,580,o),
(149,580,cs)
);
},
{
pos = (-9,0);
ref = idotless;
}
);
width = 170;
},
{
layerId = m008;
shapes = (
{
closed = 1;
nodes = (
(281,580,o),
(325,672,o),
(340,750,c),
(227,750,l),
(218,707,o),
(208,684,o),
(183,684,cs),
(158,684,o),
(156,707,o),
(165,750,c),
(52,750,l),
(37,673,o),
(44,580,o),
(163,580,cs)
);
},
{
pos = (-14,0);
ref = idotless;
}
);
width = 198;
},
{
layerId = m006;
shapes = (
{
closed = 1;
nodes = (
(220,590,o),
(263,644,o),
(281,720,c),
(237,720,l),
(223,664,o),
(195,634,o),
(154,634,cs),
(113,634,o),
(97,664,o),
(105,720,c),
(61,720,l),
(49,644,o),
(71,590,o),
(146,590,cs)
);
},
{
pos = (-8,0);
ref = idotless;
}
);
width = 160;
}
);
metricLeft = "=idotless-110";
metricRight = "=idotless-110";
unicode = 301;
},
{
glyphname = jdotless;
kernLeft = j;
kernRight = g;
lastChange = "2022-12-01 22:15:32 +0000";
layers = (
{
layerId = m01;
shapes = (
{
closed = 1;
nodes = (
(25,-200,ls),
(119,-200,o),
(165,-154,o),
(165,-60,cs),
(165,500,l),
(90,500,l),
(90,-67,ls),
(90,-107,o),
(70,-127,o),
(30,-127,cs),
(-60,-127,l),
(-60,-200,l)
);
}
);
width = 245;
},
{
layerId = m005;
shapes = (
{
closed = 1;
nodes = (
(45,-200,ls),
(159,-200,o),
(215,-147,o),
(215,-40,cs),
(215,500,l),
(80,500,l),
(80,-27,ls),
(80,-67,o),
(60,-87,o),
(20,-87,cs),
(-70,-87,l),
(-70,-200,l)
);
}
);
width = 280;
},
{
layerId = m007;
shapes = (
{
closed = 1;
nodes = (
(25,-200,ls),
(112,-200,o),
(155,-157,o),
(155,-70,cs),
(155,500,l),
(100,500,l),
(100,-77,ls),
(100,-124,o),
(77,-147,o),
(30,-147,cs),
(-50,-147,l),
(-50,-200,l)
);
}
);
width = 240;
},
{
layerId = m004;
shapes = (
{
closed = 1;
nodes = (
(-62,-200,ls),
(32,-200,o),
(87,-154,o),
(105,-60,cs),
(214,500,l),
(139,500,l),
(29,-67,ls),
(21,-107,o),
(-3,-127,o),
(-43,-127,cs),
(-133,-127,l),
(-147,-200,l)
);
}
);
width = 245;
},
{
layerId = m008;
shapes = (
{
closed = 1;
nodes = (
(-22,-200,ls),
(79,-200,o),
(137,-156,o),
(154,-67,cs),
(264,500,l),
(129,500,l),
(27,-27,ls),
(19,-67,o),
(-2,-87,o),
(-35,-87,cs),
(-135,-87,l),
(-157,-200,l)
);
}
);
width = 281;
},
{
layerId = m006;
shapes = (
{
closed = 1;
nodes = (
(-62,-200,ls),
(26,-200,o),
(77,-157,o),
(93,-70,cs),
(204,500,l),
(149,500,l),
(37,-77,ls),
(28,-124,o),
(0,-147,o),
(-47,-147,cs),
(-127,-147,l),
(-137,-200,l)
);
}
);
width = 240;
}
);
unicode = 567;
},
{
glyphname = k;
kernLeft = l;
kernRight = k;
lastChange = "2022-11-25 14:12:14 +0000";
layers = (
{
layerId = m01;
shapes = (
{
closed = 1;
nodes = (
(479,500,l),
(384,500,l),
(93,201,l),
(145,154,l)
);
},
{
closed = 1;
nodes = (
(150,0,l),
(150,700,l),
(75,700,l),
(75,0,l)
);
},
{
closed = 1;
nodes = (
(491,0,l),
(273,363,l),
(233,290,l),
(403,0,l)
);
}
);
width = 516;
},
{
layerId = m005;
shapes = (
{
closed = 1;
nodes = (
(566,500,l),
(388,500,l),
(102,240,l),
(188,146,l)
);
},
{
closed = 1;
nodes = (
(200,0,l),
(200,700,l),
(65,700,l),
(65,0,l)
);
},
{
closed = 1;
nodes = (
(564,0,l),
(336,362,l),
(227,290,l),
(404,0,l)
);
}
);
width = 581;
},
{
layerId = m007;
shapes = (
{
closed = 1;
nodes = (
(450,500,l),
(383,500,l),
(102,201,l),
(102,127,l)
);
},
{
closed = 1;
nodes = (
(135,0,l),
(135,700,l),
(80,700,l),
(80,0,l)
);
},
{
closed = 1;
nodes = (
(468,0,l),
(268,343,l),
(239,290,l),
(404,0,l)
);
}
);
width = 498;
},
{
layerId = m004;
shapes = (
{
closed = 1;
nodes = (
(527,500,l),
(427,500,l),
(78,201,l),
(126,154,l)
);
},
{
closed = 1;
nodes = (
(101,0,l),
(237,700,l),
(162,700,l),
(26,0,l)
);
},
{
closed = 1;
nodes = (
(442,0,l),
(295,363,l),
(250,290,l),
(364,0,l)
);
}
);
width = 516;
},
{
layerId = m008;
shapes = (
{
closed = 1;
nodes = (
(151,0,l),
(287,700,l),
(152,700,l),
(16,0,l)
);
},
{
closed = 1;
nodes = (
(515,0,l),
(357,362,l),
(239,290,l),
(360,0,l)
);
},
{
closed = 1;
nodes = (
(614,500,l),
(431,500,l),
(95,240,l),
(167,146,l)
);
}
);
width = 580;
},
{
layerId = m006;
shapes = (
{
closed = 1;
nodes = (
(498,500,l),
(431,500,l),
(92,201,l),
(78,127,l)
);
},
{
closed = 1;
nodes = (
(86,0,l),
(222,700,l),
(167,700,l),
(31,0,l)
);
},
{
closed = 1;
nodes = (
(419,0,l),
(286,343,l),
(246,290,l),
(355,0,l)
);
}
);
width = 498;
}
);
metricLeft = h;
unicode = 107;
},
{
glyphname = l;
kernLeft = l;
kernRight = l;
lastChange = "2022-11-25 14:12:14 +0000";
layers = (
{
layerId = m01;
shapes = (
{
closed = 1;
nodes = (
(150,0,l),
(150,710,l),
(75,710,l),
(75,0,l)
);
}
);
width = 225;
},
{
layerId = m005;
shapes = (
{
closed = 1;
nodes = (
(200,0,l),
(200,710,l),
(65,710,l),
(65,0,l)
);
}
);
width = 265;
},
{
layerId = m007;
shapes = (
{
closed = 1;
nodes = (
(135,0,l),
(135,710,l),
(80,710,l),
(80,0,l)
);
}
);
width = 215;
},
{
layerId = m004;
shapes = (
{
closed = 1;
nodes = (
(101,0,l),
(239,710,l),
(164,710,l),
(26,0,l)
);
}
);
width = 225;
},
{
layerId = m008;
shapes = (
{
closed = 1;
nodes = (
(151,0,l),
(289,710,l),
(154,710,l),
(16,0,l)
);
}
);
width = 265;
},
{
layerId = m006;
shapes = (
{
closed = 1;
nodes = (
(86,0,l),
(224,710,l),
(169,710,l),
(31,0,l)
);
}
);
width = 215;
}
);
unicode = 108;
},
{
glyphname = lslash;
kernLeft = l;
kernRight = l;
lastChange = "2022-11-25 14:12:14 +0000";
layers = (
{
layerId = m01;
shapes = (
{
closed = 1;
nodes = (
(245,385,l),
(245,445,l),
(45,325,l),
(45,265,l)
);
},
{
pos = (32,0);
ref = l;
}
);
width = 290;
},
{
layerId = m005;
shapes = (
{
closed = 1;
nodes = (
(315,369,l),
(315,473,l),
(35,341,l),
(35,237,l)
);
},
{
pos = (43,0);
ref = l;
}
);
width = 350;
},
{
layerId = m007;
shapes = (
{
closed = 1;
nodes = (
(230,391,l),
(230,427,l),
(50,319,l),
(50,283,l)
);
},
{
pos = (33,0);
ref = l;
}
);
width = 280;
},
{
layerId = m004;
shapes = (
{
closed = 1;
nodes = (
(272,385,l),
(283,445,l),
(60,325,l),
(48,265,l)
);
},
{
pos = (38,0);
ref = l;
}
);
width = 291;
},
{
layerId = m008;
shapes = (
{
closed = 1;
nodes = (
(339,369,l),
(359,473,l),
(53,341,l),
(33,237,l)
);
},
{
pos = (48,0);
ref = l;
}
);
width = 351;
},
{
layerId = m006;
shapes = (
{
closed = 1;
nodes = (
(257,391,l),
(264,427,l),
(63,319,l),
(56,283,l)
);
},
{
pos = (37,0);
ref = l;
}
);
width = 280;
}
);
metricLeft = "=l-30";
metricRight = "=l-30";
unicode = 322;
},
{
glyphname = m;
kernLeft = m;
kernRight = m;
lastChange = "2022-11-25 14:12:14 +0000";
layers = (
{
layerId = m01;
shapes = (
{
closed = 1;
nodes = (
(786,0,l),
(786,349,ls),
(786,444,o),
(728,516,o),
(633,516,cs),
(528,516,o),
(448,454,o),
(448,349,c),
(468,243,l),
(468,344,o),
(507,443,o),
(608,443,cs),
(676,443,o),
(711,387,o),
(711,319,cs),
(711,0,l)
);
},
{
closed = 1;
nodes = (
(150,0,l),
(150,500,l),
(75,500,l),
(75,0,l)
);
},
{
closed = 1;
nodes = (
(468,0,l),
(468,349,ls),
(468,444,o),
(410,516,o),
(315,516,cs),
(212,516,o),
(135,452,o),
(135,349,c),
(150,243,l),
(150,344,o),
(189,443,o),
(290,443,cs),
(358,443,o),
(393,387,o),
(393,319,cs),
(393,0,l)
);
}
);
width = 856;
},
{
layerId = m005;
shapes = (
{
closed = 1;
nodes = (
(836,0,l),
(836,319,ls),
(836,423,o),
(789,516,o),
(685,516,cs),
(561,516,o),
(492,417,o),
(492,293,c),
(518,243,l),
(518,322,o),
(545,403,o),
(624,403,cs),
(677,403,o),
(701,356,o),
(701,303,cs),
(701,0,l)
);
},
{
closed = 1;
nodes = (
(200,0,l),
(200,500,l),
(65,500,l),
(65,0,l)
);
},
{
closed = 1;
nodes = (
(518,0,l),
(518,319,ls),
(518,423,o),
(471,516,o),
(367,516,cs),
(243,516,o),
(174,417,o),
(174,293,c),
(200,243,l),
(200,322,o),
(227,403,o),
(306,403,cs),
(359,403,o),
(383,356,o),
(383,303,cs),
(383,0,l)
);
}
);
width = 896;
},
{
layerId = m007;
shapes = (
{
closed = 1;
nodes = (
(771,0,l),
(771,339,ls),
(771,437,o),
(715,516,o),
(617,516,cs),
(504,516,o),
(433,432,o),
(433,319,c),
(453,243,l),
(453,353,o),
(493,463,o),
(603,463,cs),
(683,463,o),
(716,389,o),
(716,309,cs),
(716,0,l)
);
},
{
closed = 1;
nodes = (
(135,0,l),
(135,500,l),
(80,500,l),
(80,0,l)
);
},
{
closed = 1;
nodes = (
(453,0,l),
(453,339,ls),
(453,437,o),
(397,516,o),
(299,516,cs),
(186,516,o),
(115,432,o),
(115,319,c),
(135,243,l),
(135,353,o),
(175,463,o),
(285,463,cs),
(365,463,o),
(398,389,o),
(398,309,cs),
(398,0,l)
);
}
);
width = 846;
},
{
layerId = m004;
shapes = (
{
closed = 1;
nodes = (
(738,0,l),
(800,318,ls),
(820,421,o),
(781,516,o),
(676,516,cs),
(572,516,o),
(479,453,o),
(468,349,c),
(467,243,l),
(487,348,o),
(549,443,o),
(656,443,cs),
(727,443,o),
(735,369,o),
(721,300,cs),
(663,0,l)
);
},
{
closed = 1;
nodes = (
(102,0,l),
(199,500,l),
(124,500,l),
(27,0,l)
);
},
{
closed = 1;
nodes = (
(420,0,l),
(482,318,ls),
(502,421,o),
(463,516,o),
(358,516,cs),
(256,516,o),
(170,450,o),
(155,349,c),
(149,243,l),
(169,348,o),
(231,443,o),
(338,443,cs),
(409,443,o),
(417,369,o),
(403,300,cs),
(345,0,l)
);
}
);
width = 857;
},
{
layerId = m008;
shapes = (
{
closed = 1;
nodes = (
(788,0,l),
(850,319,ls),
(871,426,o),
(821,516,o),
(712,516,cs),
(591,516,o),
(524,412,o),
(501,293,c),
(517,243,l),
(533,322,o),
(568,403,o),
(649,403,cs),
(702,403,o),
(722,355,o),
(712,303,cs),
(653,0,l)
);
},
{
closed = 1;
nodes = (
(152,0,l),
(249,500,l),
(114,500,l),
(17,0,l)
);
},
{
closed = 1;
nodes = (
(470,0,l),
(532,319,ls),
(553,426,o),
(503,516,o),
(394,516,cs),
(273,516,o),
(206,412,o),
(183,293,c),
(199,243,l),
(215,322,o),
(250,403,o),
(331,403,cs),
(384,403,o),
(404,355,o),
(394,303,cs),
(335,0,l)
);
}
);
width = 897;
},
{
layerId = m006;
shapes = (
{
closed = 1;
nodes = (
(723,0,l),
(789,339,ls),
(808,436,o),
(758,516,o),
(659,516,cs),
(545,516,o),
(468,431,o),
(447,319,c),
(452,243,l),
(474,356,o),
(530,463,o),
(645,463,cs),
(725,463,o),
(743,387,o),
(728,309,cs),
(668,0,l)
);
},
{
closed = 1;
nodes = (
(87,0,l),
(184,500,l),
(129,500,l),
(32,0,l)
);
},
{
closed = 1;
nodes = (
(405,0,l),
(471,339,ls),
(490,436,o),
(440,516,o),
(341,516,cs),
(227,516,o),
(150,431,o),
(129,319,c),
(134,243,l),
(156,356,o),
(212,463,o),
(327,463,cs),
(407,463,o),
(425,387,o),
(410,309,cs),
(350,0,l)
);
}
);
width = 847;
}
);
unicode = 109;
},
{
glyphname = n;
kernLeft = m;
kernRight = m;
lastChange = "2022-11-25 14:12:14 +0000";
layers = (
{
layerId = m01;
shapes = (
{
closed = 1;
nodes = (
(478,0,l),
(478,349,ls),
(478,444,o),
(420,516,o),
(325,516,cs),
(219,516,o),
(135,455,o),
(135,349,c),
(150,243,l),
(150,347,o),
(196,443,o),
(300,443,cs),
(368,443,o),
(403,387,o),
(403,319,cs),
(403,0,l)
);
},
{
closed = 1;
nodes = (
(150,0,l),
(150,500,l),
(75,500,l),
(75,0,l)
);
}
);
width = 548;
},
{
layerId = m005;
shapes = (
{
closed = 1;
nodes = (
(528,0,l),
(528,319,ls),
(528,424,o),
(477,516,o),
(372,516,cs),
(247,516,o),
(174,418,o),
(174,293,c),
(200,243,l),
(200,324,o),
(230,403,o),
(311,403,cs),
(365,403,o),
(393,357,o),
(393,303,cs),
(393,0,l)
);
},
{
closed = 1;
nodes = (
(200,0,l),
(200,500,l),
(65,500,l),
(65,0,l)
);
}
);
width = 588;
},
{
layerId = m007;
shapes = (
{
closed = 1;
nodes = (
(463,0,l),
(463,339,ls),
(463,437,o),
(407,516,o),
(309,516,cs),
(193,516,o),
(115,435,o),
(115,319,c),
(135,243,l),
(135,356,o),
(182,463,o),
(295,463,cs),
(375,463,o),
(408,389,o),
(408,309,cs),
(408,0,l)
);
},
{
closed = 1;
nodes = (
(135,0,l),
(135,500,l),
(80,500,l),
(80,0,l)
);
}
);
width = 538;
},
{
layerId = m004;
shapes = (
{
closed = 1;
nodes = (
(430,0,l),
(492,318,ls),
(512,423,o),
(465,516,o),
(358,516,cs),
(256,516,o),
(170,450,o),
(155,349,c),
(149,243,l),
(169,348,o),
(231,443,o),
(338,443,cs),
(410,443,o),
(427,371,o),
(413,300,cs),
(355,0,l)
);
},
{
closed = 1;
nodes = (
(102,0,l),
(199,500,l),
(124,500,l),
(27,0,l)
);
}
);
width = 549;
},
{
layerId = m008;
shapes = (
{
closed = 1;
nodes = (
(480,0,l),
(542,319,ls),
(563,429,o),
(506,516,o),
(394,516,cs),
(273,516,o),
(206,412,o),
(183,293,c),
(199,243,l),
(215,325,o),
(257,403,o),
(341,403,cs),
(394,403,o),
(414,355,o),
(404,303,cs),
(345,0,l)
);
},
{
closed = 1;
nodes = (
(152,0,l),
(249,500,l),
(114,500,l),
(17,0,l)
);
}
);
width = 589;
},
{
layerId = m006;
shapes = (
{
closed = 1;
nodes = (
(415,0,l),
(481,339,ls),
(500,436,o),
(450,516,o),
(351,516,cs),
(235,516,o),
(151,433,o),
(129,319,c),
(134,243,l),
(157,358,o),
(219,463,o),
(337,463,cs),
(417,463,o),
(435,387,o),
(420,309,cs),
(360,0,l)
);
},
{
closed = 1;
nodes = (
(87,0,l),
(184,500,l),
(129,500,l),
(32,0,l)
);
}
);
width = 539;
}
);
metricLeft = m;
metricRight = m;
unicode = 110;
},
{
glyphname = eng;
kernLeft = m;
kernRight = m;
lastChange = "2022-11-29 23:47:48 +0000";
layers = (
{
layerId = m01;
shapes = (
{
closed = 1;
nodes = (
(338,-200,ls),
(432,-200,o),
(478,-154,o),
(478,-60,cs),
(478,0,l),
(403,0,l),
(403,-67,ls),
(403,-107,o),
(383,-127,o),
(343,-127,cs),
(253,-127,l),
(253,-200,l)
);
},
{
ref = n;
}
);
width = 558;
},
{
layerId = m005;
shapes = (
{
closed = 1;
nodes = (
(358,-200,ls),
(472,-200,o),
(528,-147,o),
(528,-40,cs),
(528,0,l),
(393,0,l),
(393,-27,ls),
(393,-67,o),
(373,-87,o),
(333,-87,cs),
(243,-87,l),
(243,-200,l)
);
},
{
ref = n;
}
);
width = 593;
},
{
layerId = m007;
shapes = (
{
closed = 1;
nodes = (
(333,-200,ls),
(420,-200,o),
(463,-157,o),
(463,-70,cs),
(463,0,l),
(408,0,l),
(408,-77,ls),
(408,-124,o),
(385,-147,o),
(338,-147,cs),
(258,-147,l),
(258,-200,l)
);
},
{
ref = n;
}
);
width = 548;
},
{
layerId = m004;
shapes = (
{
closed = 1;
nodes = (
(251,-200,ls),
(345,-200,o),
(400,-151,o),
(418,-60,cs),
(430,0,l),
(355,0,l),
(342,-67,ls),
(334,-109,o),
(310,-127,o),
(270,-127,cs),
(180,-127,l),
(166,-200,l)
);
},
{
ref = n;
}
);
width = 559;
},
{
layerId = m008;
shapes = (
{
closed = 1;
nodes = (
(291,-200,ls),
(392,-200,o),
(450,-156,o),
(467,-67,cs),
(480,0,l),
(345,0,l),
(340,-27,ls),
(333,-65,o),
(311,-87,o),
(278,-87,cs),
(178,-87,l),
(156,-200,l)
);
},
{
ref = n;
}
);
width = 594;
},
{
layerId = m006;
shapes = (
{
closed = 1;
nodes = (
(246,-200,ls),
(334,-200,o),
(384,-156,o),
(401,-70,cs),
(415,0,l),
(360,0,l),
(345,-77,ls),
(336,-124,o),
(308,-147,o),
(261,-147,cs),
(181,-147,l),
(171,-200,l)
);
},
{
ref = n;
}
);
width = 549;
}
);
metricLeft = m;
metricRight = j;
unicode = 331;
},
{
glyphname = o;
kernLeft = o;
kernRight = o;
lastChange = "2022-12-03 14:20:20 +0000";
layers = (
{
layerId = m01;
shapes = (
{
closed = 1;
nodes = (
(428,-16,o),
(516,101,o),
(516,248,cs),
(516,396,o),
(429,516,o),
(281,516,cs),
(133,516,o),
(45,396,o),
(45,248,cs),
(45,101,o),
(134,-16,o),
(281,-16,cs)
);
},
{
closed = 1;
nodes = (
(177,57,o),
(123,144,o),
(123,248,cs),
(123,353,o),
(176,443,o),
(281,443,cs),
(386,443,o),
(439,353,o),
(439,248,cs),
(439,144,o),
(385,57,o),
(281,57,cs)
);
}
);
width = 561;
},
{
layerId = m005;
shapes = (
{
closed = 1;
nodes = (
(449,-16,o),
(556,97,o),
(556,250,cs),
(556,403,o),
(449,516,o),
(296,516,cs),
(142,516,o),
(35,404,o),
(35,250,cs),
(35,96,o),
(142,-16,o),
(296,-16,cs)
);
},
{
closed = 1;
nodes = (
(213,97,o),
(173,167,o),
(173,250,cs),
(173,333,o),
(213,403,o),
(296,403,cs),
(379,403,o),
(419,333,o),
(419,250,cs),
(419,167,o),
(379,97,o),
(296,97,cs)
);
}
);
width = 591;
},
{
layerId = m007;
shapes = (
{
closed = 1;
nodes = (
(421,-16,o),
(502,105,o),
(502,250,cs),
(502,395,o),
(421,516,o),
(276,516,cs),
(131,516,o),
(50,395,o),
(50,250,cs),
(50,105,o),
(131,-16,o),
(276,-16,cs)
);
},
{
closed = 1;
nodes = (
(162,37,o),
(108,136,o),
(108,250,cs),
(108,364,o),
(162,463,o),
(276,463,cs),
(390,463,o),
(444,364,o),
(444,250,cs),
(444,136,o),
(390,37,o),
(276,37,cs)
);
}
);
width = 552;
},
{
layerId = m004;
shapes = (
{
closed = 1;
nodes = (
(386,-16,o),
(487,101,o),
(513,236,cs),
(543,389,o),
(467,516,o),
(318,516,cs),
(173,516,o),
(73,396,o),
(47,262,cs),
(17,108,o),
(95,-16,o),
(243,-16,cs)
);
},
{
closed = 1;
nodes = (
(149,57,o),
(102,148,o),
(124,258,cs),
(142,350,o),
(206,443,o),
(309,443,cs),
(412,443,o),
(456,349,o),
(436,242,cs),
(419,147,o),
(354,57,o),
(252,57,cs)
);
}
);
width = 561;
},
{
layerId = m008;
shapes = (
{
closed = 1;
nodes = (
(412,-16,o),
(527,97,o),
(554,239,cs),
(584,399,o),
(486,516,o),
(331,516,cs),
(179,516,o),
(64,403,o),
(37,262,cs),
(6,101,o),
(104,-16,o),
(259,-16,cs)
);
},
{
closed = 1;
nodes = (
(188,97,o),
(157,173,o),
(174,256,cs),
(189,332,o),
(242,403,o),
(321,403,cs),
(403,403,o),
(434,327,o),
(417,244,cs),
(402,168,o),
(349,97,o),
(270,97,cs)
);
}
);
width = 591;
},
{
layerId = m006;
shapes = (
{
closed = 1;
nodes = (
(380,-16,o),
(474,106,o),
(498,238,cs),
(526,387,o),
(459,516,o),
(314,516,cs),
(171,516,o),
(77,392,o),
(52,262,cs),
(23,110,o),
(94,-16,o),
(238,-16,cs)
);
},
{
closed = 1;
nodes = (
(135,37,o),
(88,140,o),
(110,259,cs),
(129,359,o),
(195,463,o),
(306,463,cs),
(419,463,o),
(465,357,o),
(441,237,cs),
(422,138,o),
(357,37,o),
(247,37,cs)
);
}
);
width = 550;
}
);
unicode = 111;
},
{
glyphname = oslash;
kernLeft = o;
kernRight = o;
lastChange = "2022-11-29 23:47:55 +0000";
layers = (
{
layerId = m01;
shapes = (
{
closed = 1;
nodes = (
(98,-66,l),
(571,566,l),
(493,566,l),
(20,-66,l)
);
},
{
pos = (15,0);
ref = o;
}
);
width = 591;
},
{
layerId = m005;
shapes = (
{
closed = 1;
nodes = (
(109,-66,l),
(573,566,l),
(474,566,l),
(10,-66,l)
);
},
{
pos = (-4,0);
ref = o;
}
);
width = 583;
},
{
layerId = m007;
shapes = (
{
closed = 1;
nodes = (
(77,-56,l),
(534,556,l),
(482,556,l),
(25,-56,l)
);
},
{
pos = (4,0);
ref = o;
}
);
width = 559;
},
{
layerId = m004;
shapes = (
{
closed = 1;
nodes = (
(37,-66,l),
(633,566,l),
(555,566,l),
(-41,-66,l)
);
},
{
pos = (15,0);
ref = o;
}
);
width = 592;
},
{
layerId = m008;
shapes = (
{
closed = 1;
nodes = (
(48,-66,l),
(635,566,l),
(536,566,l),
(-51,-66,l)
);
},
{
pos = (-3,0);
ref = o;
}
);
width = 584;
},
{
layerId = m006;
shapes = (
{
closed = 1;
nodes = (
(18,-56,l),
(594,556,l),
(542,556,l),
(-34,-56,l)
);
},
{
pos = (5,0);
ref = o;
}
);
width = 560;
}
);
metricLeft = "=o-25";
metricRight = "=o-25";
unicode = 248;
},
{
glyphname = p;
kernLeft = p;
kernRight = o;
lastChange = "2022-12-03 14:03:25 +0000";
layers = (
{
layerId = m01;
shapes = (
{
closed = 1;
nodes = (
(457,-16,o),
(536,107,o),
(536,250,cs),
(536,393,o),
(457,516,o),
(314,516,cs),
(207,516,o),
(135,437,o),
(135,330,cs),
(135,170,ls),
(135,63,o),
(207,-16,o),
(314,-16,cs)
);
},
{
closed = 1;
nodes = (
(150,-200,l),
(150,500,l),
(75,500,l),
(75,-200,l)
);
},
{
closed = 1;
nodes = (
(202,57,o),
(150,148,o),
(150,250,cs),
(150,352,o),
(202,443,o),
(304,443,cs),
(406,443,o),
(458,352,o),
(458,250,cs),
(458,148,o),
(406,57,o),
(304,57,cs)
);
}
);
width = 581;
},
{
layerId = m005;
shapes = (
{
closed = 1;
nodes = (
(508,-16,o),
(586,106,o),
(586,250,cs),
(586,394,o),
(508,516,o),
(364,516,cs),
(241,516,o),
(175,413,o),
(175,290,cs),
(175,210,ls),
(175,87,o),
(241,-16,o),
(364,-16,cs)
);
},
{
closed = 1;
nodes = (
(200,-200,l),
(200,500,l),
(65,500,l),
(65,-200,l)
);
},
{
closed = 1;
nodes = (
(242,97,o),
(200,168,o),
(200,250,cs),
(200,332,o),
(242,403,o),
(324,403,cs),
(406,403,o),
(448,332,o),
(448,250,cs),
(448,168,o),
(406,97,o),
(324,97,cs)
);
}
);
width = 621;
},
{
layerId = m007;
shapes = (
{
closed = 1;
nodes = (
(449,-16,o),
(521,110,o),
(521,250,cs),
(521,390,o),
(449,516,o),
(309,516,cs),
(202,516,o),
(125,437,o),
(125,330,cs),
(125,170,ls),
(125,63,o),
(202,-16,o),
(309,-16,cs)
);
},
{
closed = 1;
nodes = (
(135,-200,l),
(135,500,l),
(80,500,l),
(80,-200,l)
);
},
{
closed = 1;
nodes = (
(189,37,o),
(135,140,o),
(135,250,cs),
(135,360,o),
(189,463,o),
(299,463,cs),
(410,463,o),
(463,361,o),
(463,250,cs),
(463,139,o),
(410,37,o),
(299,37,cs)
);
}
);
width = 571;
},
{
layerId = m004;
shapes = (
{
closed = 1;
nodes = (
(424,-16,o),
(507,108,o),
(531,235,cs),
(559,380,o),
(508,516,o),
(365,516,cs),
(258,516,o),
(169,441,o),
(150,330,cs),
(119,170,ls),
(98,63,o),
(175,-16,o),
(286,-16,cs)
);
},
{
closed = 1;
nodes = (
(63,-200,l),
(199,500,l),
(124,500,l),
(-12,-200,l)
);
},
{
closed = 1;
nodes = (
(174,57,o),
(132,152,o),
(153,259,cs),
(171,353,o),
(236,443,o),
(335,443,cs),
(440,443,o),
(474,342,o),
(453,238,cs),
(435,146,o),
(375,57,o),
(276,57,cs)
);
}
);
width = 579;
},
{
layerId = m008;
shapes = (
{
closed = 1;
nodes = (
(468,-16,o),
(558,108,o),
(584,237,cs),
(613,385,o),
(554,516,o),
(414,516,cs),
(290,516,o),
(206,414,o),
(183,290,cs),
(168,210,ls),
(145,92,o),
(203,-16,o),
(331,-16,cs)
);
},
{
closed = 1;
nodes = (
(113,-200,l),
(249,500,l),
(114,500,l),
(-22,-200,l)
);
},
{
closed = 1;
nodes = (
(217,97,o),
(186,173,o),
(202,256,cs),
(217,332,o),
(270,403,o),
(350,403,cs),
(432,403,o),
(464,327,o),
(448,244,cs),
(433,167,o),
(379,97,o),
(300,97,cs)
);
}
);
width = 622;
},
{
layerId = m006;
shapes = (
{
closed = 1;
nodes = (
(404,-16,o),
(494,108,o),
(520,238,cs),
(549,386,o),
(490,516,o),
(348,516,cs),
(240,516,o),
(152,440,o),
(132,330,cs),
(101,170,ls),
(81,65,o),
(152,-16,o),
(265,-16,cs)
);
},
{
closed = 1;
nodes = (
(48,-200,l),
(184,500,l),
(129,500,l),
(-7,-200,l)
);
},
{
closed = 1;
nodes = (
(152,37,o),
(116,145,o),
(138,258,cs),
(159,362,o),
(228,463,o),
(337,463,cs),
(449,463,o),
(485,355,o),
(463,243,cs),
(443,138,o),
(373,37,o),
(264,37,cs)
);
}
);
width = 572;
}
);
metricLeft = b;
metricRight = o;
unicode = 112;
},
{
glyphname = thorn;
kernLeft = h;
kernRight = o;
lastChange = "2022-12-03 14:03:25 +0000";
layers = (
{
layerId = m01;
shapes = (
{
closed = 1;
nodes = (
(457,-16,o),
(536,107,o),
(536,250,cs),
(536,393,o),
(457,516,o),
(314,516,cs),
(207,516,o),
(135,437,o),
(135,330,cs),
(135,170,ls),
(135,63,o),
(207,-16,o),
(314,-16,cs)
);
},
{
closed = 1;
nodes = (
(150,-200,l),
(150,700,l),
(75,700,l),
(75,-200,l)
);
},
{
closed = 1;
nodes = (
(202,57,o),
(150,148,o),
(150,250,cs),
(150,352,o),
(202,443,o),
(304,443,cs),
(406,443,o),
(458,352,o),
(458,250,cs),
(458,148,o),
(406,57,o),
(304,57,cs)
);
}
);
width = 581;
},
{
layerId = m005;
shapes = (
{
closed = 1;
nodes = (
(508,-16,o),
(586,106,o),
(586,250,cs),
(586,394,o),
(508,516,o),
(364,516,cs),
(241,516,o),
(175,413,o),
(175,290,cs),
(175,210,ls),
(175,87,o),
(241,-16,o),
(364,-16,cs)
);
},
{
closed = 1;
nodes = (
(200,-200,l),
(200,700,l),
(65,700,l),
(65,-200,l)
);
},
{
closed = 1;
nodes = (
(242,97,o),
(200,168,o),
(200,250,cs),
(200,332,o),
(242,403,o),
(324,403,cs),
(406,403,o),
(448,332,o),
(448,250,cs),
(448,168,o),
(406,97,o),
(324,97,cs)
);
}
);
width = 621;
},
{
layerId = m007;
shapes = (
{
closed = 1;
nodes = (
(449,-16,o),
(521,110,o),
(521,250,cs),
(521,390,o),
(449,516,o),
(309,516,cs),
(202,516,o),
(125,437,o),
(125,330,cs),
(125,170,ls),
(125,63,o),
(202,-16,o),
(309,-16,cs)
);
},
{
closed = 1;
nodes = (
(135,-200,l),
(135,700,l),
(80,700,l),
(80,-200,l)
);
},
{
closed = 1;
nodes = (
(189,37,o),
(135,140,o),
(135,250,cs),
(135,360,o),
(189,463,o),
(299,463,cs),
(410,463,o),
(463,361,o),
(463,250,cs),
(463,139,o),
(410,37,o),
(299,37,cs)
);
}
);
width = 571;
},
{
layerId = m004;
shapes = (
{
closed = 1;
nodes = (
(424,-16,o),
(507,108,o),
(531,235,cs),
(559,380,o),
(508,516,o),
(365,516,cs),
(258,516,o),
(169,441,o),
(150,330,cs),
(119,170,ls),
(98,63,o),
(175,-16,o),
(286,-16,cs)
);
},
{
closed = 1;
nodes = (
(63,-200,l),
(238,700,l),
(163,700,l),
(-12,-200,l)
);
},
{
closed = 1;
nodes = (
(174,57,o),
(132,152,o),
(153,259,cs),
(171,353,o),
(236,443,o),
(335,443,cs),
(440,443,o),
(474,342,o),
(453,238,cs),
(435,146,o),
(375,57,o),
(276,57,cs)
);
}
);
width = 579;
},
{
layerId = m008;
shapes = (
{
closed = 1;
nodes = (
(468,-16,o),
(558,108,o),
(584,237,cs),
(613,385,o),
(554,516,o),
(414,516,cs),
(290,516,o),
(206,414,o),
(183,290,cs),
(168,210,ls),
(145,92,o),
(203,-16,o),
(331,-16,cs)
);
},
{
closed = 1;
nodes = (
(113,-200,l),
(288,700,l),
(153,700,l),
(-22,-200,l)
);
},
{
closed = 1;
nodes = (
(217,97,o),
(186,173,o),
(202,256,cs),
(217,332,o),
(270,403,o),
(350,403,cs),
(432,403,o),
(464,327,o),
(448,244,cs),
(433,167,o),
(379,97,o),
(300,97,cs)
);
}
);
width = 622;
},
{
layerId = m006;
shapes = (
{
closed = 1;
nodes = (
(404,-16,o),
(494,108,o),
(520,238,cs),
(549,386,o),
(490,516,o),
(348,516,cs),
(240,516,o),
(152,440,o),
(132,330,cs),
(101,170,ls),
(81,65,o),
(152,-16,o),
(265,-16,cs)
);
},
{
closed = 1;
nodes = (
(48,-200,l),
(223,700,l),
(168,700,l),
(-7,-200,l)
);
},
{
closed = 1;
nodes = (
(152,37,o),
(116,145,o),
(138,258,cs),
(159,362,o),
(228,463,o),
(337,463,cs),
(449,463,o),
(485,355,o),
(463,243,cs),
(443,138,o),
(373,37,o),
(264,37,cs)
);
}
);
width = 572;
}
);
metricLeft = h;
metricRight = b;
unicode = 254;
},
{
glyphname = q;
kernLeft = o;
kernRight = g;
lastChange = "2022-12-03 14:03:22 +0000";
layers = (
{
layerId = m01;
shapes = (
{
closed = 1;
nodes = (
(374,-16,o),
(446,63,o),
(446,170,cs),
(446,330,ls),
(446,437,o),
(374,516,o),
(267,516,cs),
(124,516,o),
(45,393,o),
(45,250,cs),
(45,107,o),
(124,-16,o),
(267,-16,cs)
);
},
{
closed = 1;
nodes = (
(175,57,o),
(123,148,o),
(123,250,cs),
(123,352,o),
(175,443,o),
(277,443,cs),
(379,443,o),
(431,352,o),
(431,250,cs),
(431,148,o),
(379,57,o),
(277,57,cs)
);
},
{
closed = 1;
nodes = (
(506,-200,l),
(506,500,l),
(431,500,l),
(431,-200,l)
);
}
);
width = 581;
},
{
layerId = m005;
shapes = (
{
closed = 1;
nodes = (
(380,-16,o),
(446,87,o),
(446,210,cs),
(446,290,ls),
(446,413,o),
(380,516,o),
(257,516,cs),
(113,516,o),
(35,394,o),
(35,250,cs),
(35,106,o),
(113,-16,o),
(257,-16,cs)
);
},
{
closed = 1;
nodes = (
(215,97,o),
(173,168,o),
(173,250,cs),
(173,332,o),
(215,403,o),
(297,403,cs),
(379,403,o),
(421,332,o),
(421,250,cs),
(421,168,o),
(379,97,o),
(297,97,cs)
);
},
{
closed = 1;
nodes = (
(556,-200,l),
(556,500,l),
(421,500,l),
(421,-200,l)
);
}
);
width = 621;
},
{
layerId = m007;
shapes = (
{
closed = 1;
nodes = (
(371,-16,o),
(456,61,o),
(456,170,cs),
(456,330,ls),
(456,439,o),
(371,516,o),
(262,516,cs),
(122,516,o),
(50,390,o),
(50,250,cs),
(50,110,o),
(122,-16,o),
(262,-16,cs)
);
},
{
closed = 1;
nodes = (
(161,37,o),
(108,139,o),
(108,250,cs),
(108,361,o),
(161,463,o),
(272,463,cs),
(382,463,o),
(436,360,o),
(436,250,cs),
(436,140,o),
(382,37,o),
(272,37,cs)
);
},
{
closed = 1;
nodes = (
(491,-200,l),
(491,500,l),
(436,500,l),
(436,-200,l)
);
}
);
width = 571;
},
{
layerId = m004;
shapes = (
{
closed = 1;
nodes = (
(321,-16,o),
(410,59,o),
(429,170,cs),
(460,330,ls),
(481,437,o),
(404,516,o),
(293,516,cs),
(155,516,o),
(72,392,o),
(48,265,cs),
(20,120,o),
(71,-16,o),
(214,-16,cs)
);
},
{
closed = 1;
nodes = (
(139,57,o),
(105,158,o),
(126,262,cs),
(144,354,o),
(204,443,o),
(303,443,cs),
(405,443,o),
(447,348,o),
(426,241,cs),
(408,147,o),
(343,57,o),
(244,57,cs)
);
},
{
closed = 1;
nodes = (
(416,-200,l),
(552,500,l),
(477,500,l),
(341,-200,l)
);
}
);
width = 578;
},
{
layerId = m008;
shapes = (
{
closed = 1;
nodes = (
(332,-16,o),
(416,86,o),
(439,210,cs),
(454,290,ls),
(477,408,o),
(419,516,o),
(291,516,cs),
(154,516,o),
(64,392,o),
(38,263,cs),
(9,115,o),
(68,-16,o),
(208,-16,cs)
);
},
{
closed = 1;
nodes = (
(190,97,o),
(158,173,o),
(174,256,cs),
(189,333,o),
(243,403,o),
(322,403,cs),
(405,403,o),
(436,327,o),
(420,244,cs),
(405,168,o),
(352,97,o),
(272,97,cs)
);
},
{
closed = 1;
nodes = (
(469,-200,l),
(605,500,l),
(470,500,l),
(334,-200,l)
);
}
);
width = 621;
},
{
layerId = m006;
shapes = (
{
closed = 1;
nodes = (
(332,-16,o),
(420,60,o),
(440,170,cs),
(471,330,ls),
(491,435,o),
(420,516,o),
(307,516,cs),
(168,516,o),
(78,392,o),
(52,262,cs),
(23,114,o),
(82,-16,o),
(224,-16,cs)
);
},
{
closed = 1;
nodes = (
(123,37,o),
(87,145,o),
(109,257,cs),
(129,362,o),
(199,463,o),
(308,463,cs),
(420,463,o),
(456,355,o),
(434,242,cs),
(413,138,o),
(344,37,o),
(235,37,cs)
);
},
{
closed = 1;
nodes = (
(404,-200,l),
(540,500,l),
(485,500,l),
(349,-200,l)
);
}
);
width = 571;
}
);
metricLeft = o;
metricRight = l;
unicode = 113;
},
{
glyphname = r;
kernLeft = m;
kernRight = r;
lastChange = "2022-11-25 14:12:14 +0000";
layers = (
{
layerId = m01;
shapes = (
{
closed = 1;
nodes = (
(150,0,l),
(150,228,ls),
(150,359,o),
(191,427,o),
(271,427,cs),
(353,427,l),
(353,500,l),
(261,500,ls),
(187,500,o),
(142,416,o),
(142,275,c),
(150,335,l),
(150,500,l),
(75,500,l),
(75,0,l)
);
}
);
width = 373;
},
{
layerId = m005;
shapes = (
{
closed = 1;
nodes = (
(200,0,l),
(200,208,ls),
(200,338,o),
(231,387,o),
(321,387,cs),
(403,387,l),
(403,500,l),
(311,500,ls),
(211,500,o),
(182,375,o),
(182,245,c),
(200,314,l),
(200,500,l),
(65,500,l),
(65,0,l)
);
}
);
width = 413;
},
{
layerId = m007;
shapes = (
{
closed = 1;
nodes = (
(135,0,l),
(135,238,ls),
(135,372,o),
(179,447,o),
(266,447,cs),
(338,447,l),
(338,500,l),
(256,500,ls),
(183,500,o),
(127,413,o),
(127,285,c),
(135,346,l),
(135,500,l),
(80,500,l),
(80,0,l)
);
}
);
width = 363;
},
{
layerId = m004;
shapes = (
{
closed = 1;
nodes = (
(102,0,l),
(146,228,ls),
(172,358,o),
(226,427,o),
(306,427,cs),
(388,427,l),
(402,500,l),
(310,500,ls),
(230,500,o),
(173,405,o),
(147,275,c),
(167,335,l),
(199,500,l),
(124,500,l),
(27,0,l)
);
}
);
width = 374;
},
{
layerId = m008;
shapes = (
{
closed = 1;
nodes = (
(152,0,l),
(192,208,ls),
(218,338,o),
(258,387,o),
(348,387,cs),
(430,387,l),
(452,500,l),
(360,500,ls),
(260,500,o),
(207,375,o),
(182,245,c),
(213,314,l),
(249,500,l),
(114,500,l),
(17,0,l)
);
}
);
width = 413;
},
{
layerId = m006;
shapes = (
{
closed = 1;
nodes = (
(87,0,l),
(133,238,ls),
(159,372,o),
(218,447,o),
(305,447,cs),
(377,447,l),
(387,500,l),
(305,500,ls),
(232,500,o),
(159,413,o),
(134,285,c),
(154,346,l),
(184,500,l),
(129,500,l),
(32,0,l)
);
}
);
width = 364;
}
);
metricLeft = m;
unicode = 114;
},
{
glyphname = s;
kernLeft = s;
kernRight = s;
lastChange = "2022-11-28 22:24:03 +0000";
layers = (
{
layerId = m01;
shapes = (
{
closed = 1;
nodes = (
(373,-16,o),
(463,59,o),
(463,151,cs),
(463,371,o),
(139,238,o),
(139,368,cs),
(139,409,o),
(189,443,o),
(251,443,cs),
(317,443,o),
(370,407,o),
(370,362,c),
(443,372,l),
(443,451,o),
(357,516,o),
(251,516,cs),
(146,516,o),
(61,450,o),
(61,368,cs),
(61,158,o),
(385,291,o),
(385,151,cs),
(385,99,o),
(329,57,o),
(261,57,cs),
(179,57,o),
(113,112,o),
(113,180,c),
(40,170,l),
(40,67,o),
(139,-16,o),
(261,-16,cs)
);
}
);
width = 508;
},
{
layerId = m005;
shapes = (
{
closed = 1;
nodes = (
(408,-16,o),
(512,59,o),
(512,151,cs),
(512,361,o),
(188,269,o),
(188,359,cs),
(188,383,o),
(225,403,o),
(270,403,cs),
(318,403,o),
(357,378,o),
(357,347,c),
(491,357,l),
(491,445,o),
(392,516,o),
(270,516,cs),
(149,516,o),
(50,446,o),
(50,359,cs),
(50,149,o),
(374,261,o),
(374,151,cs),
(374,121,o),
(332,97,o),
(280,97,cs),
(215,97,o),
(163,132,o),
(163,176,c),
(30,166,l),
(30,66,o),
(142,-16,o),
(280,-16,cs)
);
}
);
width = 547;
},
{
layerId = m007;
shapes = (
{
closed = 1;
nodes = (
(362,-16,o),
(448,57,o),
(448,146,cs),
(448,336,o),
(124,253,o),
(124,373,cs),
(124,423,o),
(179,463,o),
(246,463,cs),
(313,463,o),
(370,423,o),
(374,373,c),
(428,381,l),
(424,456,o),
(343,516,o),
(246,516,cs),
(147,516,o),
(66,452,o),
(66,373,cs),
(66,203,o),
(390,276,o),
(390,146,cs),
(390,86,o),
(330,37,o),
(256,37,cs),
(174,37,o),
(104,96,o),
(98,169,c),
(45,161,l),
(50,63,o),
(144,-16,o),
(256,-16,cs)
);
}
);
width = 498;
},
{
layerId = m004;
shapes = (
{
closed = 1;
nodes = (
(352,-16,o),
(443,59,o),
(443,151,cs),
(443,331,o),
(176,268,o),
(176,367,cs),
(176,415,o),
(216,443,o),
(282,443,cs),
(341,443,o),
(391,407,o),
(396,362,c),
(471,372,l),
(465,451,o),
(382,516,o),
(287,516,cs),
(183,516,o),
(98,450,o),
(98,368,cs),
(98,198,o),
(365,271,o),
(365,151,cs),
(365,99,o),
(310,57,o),
(243,57,cs),
(168,57,o),
(104,112,o),
(99,180,c),
(24,170,l),
(29,67,o),
(125,-16,o),
(239,-16,cs)
);
}
);
width = 510;
},
{
layerId = m008;
shapes = (
{
closed = 1;
nodes = (
(385,-16,o),
(493,59,o),
(493,151,cs),
(493,341,o),
(220,268,o),
(220,359,cs),
(220,383,o),
(254,403,o),
(295,403,cs),
(342,403,o),
(381,378,o),
(381,347,c),
(517,357,l),
(517,445,o),
(418,516,o),
(295,516,cs),
(177,516,o),
(82,446,o),
(82,359,cs),
(82,179,o),
(355,241,o),
(355,151,cs),
(355,121,o),
(308,97,o),
(251,97,cs),
(195,97,o),
(149,132,o),
(149,176,c),
(14,166,l),
(14,66,o),
(120,-16,o),
(251,-16,cs)
);
}
);
width = 549;
},
{
layerId = m006;
shapes = (
{
closed = 1;
nodes = (
(337,-16,o),
(428,52,o),
(428,136,cs),
(428,316,o),
(153,253,o),
(153,373,cs),
(153,423,o),
(211,463,o),
(283,463,cs),
(349,463,o),
(403,422,o),
(403,371,c),
(459,381,l),
(459,456,o),
(380,516,o),
(283,516,cs),
(179,516,o),
(95,452,o),
(95,373,cs),
(95,203,o),
(370,276,o),
(370,136,cs),
(370,81,o),
(305,37,o),
(225,37,cs),
(147,37,o),
(83,97,o),
(83,171,c),
(28,161,l),
(28,63,o),
(116,-16,o),
(225,-16,cs)
);
}
);
width = 502;
}
);
unicode = 115;
},
{
glyphname = germandbls;
kernLeft = l;
kernRight = o;
lastChange = "2022-12-03 11:09:27 +0000";
layers = (
{
layerId = m01;
shapes = (
{
closed = 1;
nodes = (
(280,0,ls),
(407,0,o),
(512,77,o),
(512,201,cs),
(512,300,o),
(444,363,o),
(349,377,c),
(351,360,l),
(431,380,o),
(478,448,o),
(478,530,cs),
(478,642,o),
(392,716,o),
(280,716,cs),
(156,716,o),
(75,624,o),
(75,500,cs),
(75,0,l),
(150,0,l),
(150,500,ls),
(150,581,o),
(200,643,o),
(280,643,cs),
(349,643,o),
(400,601,o),
(400,530,cs),
(400,459,o),
(349,402,o),
(275,402,cs),
(240,402,l),
(240,329,l),
(290,329,ls),
(370,329,o),
(434,281,o),
(434,201,cs),
(434,121,o),
(370,73,o),
(290,73,cs),
(240,73,l),
(240,0,l)
);
}
);
width = 557;
},
{
layerId = m005;
shapes = (
{
closed = 1;
nodes = (
(329,0,ls),
(464,0,o),
(581,71,o),
(581,201,cs),
(581,309,o),
(501,365,o),
(399,375,c),
(400,363,l),
(489,376,o),
(547,443,o),
(547,533,cs),
(547,655,o),
(438,716,o),
(319,716,cs),
(172,716,o),
(65,624,o),
(65,480,cs),
(65,0,l),
(200,0,l),
(200,480,ls),
(200,550,o),
(246,603,o),
(314,603,cs),
(370,603,o),
(409,566,o),
(409,513,cs),
(409,452,o),
(359,422,o),
(299,422,cs),
(279,422,l),
(279,306,l),
(339,306,ls),
(398,306,o),
(443,270,o),
(443,211,cs),
(443,152,o),
(398,116,o),
(339,116,cs),
(279,116,l),
(279,0,l)
);
}
);
width = 616;
},
{
layerId = m007;
shapes = (
{
closed = 1;
nodes = (
(275,0,ls),
(398,0,o),
(497,75,o),
(497,196,cs),
(497,304,o),
(417,372,o),
(311,371,c),
(312,366,l),
(406,365,o),
(463,443,o),
(463,535,cs),
(463,645,o),
(381,716,o),
(275,716,cs),
(156,716,o),
(83,627,o),
(80,510,cs),
(80,0,l),
(135,0,l),
(135,510,l),
(138,595,o),
(189,663,o),
(275,663,cs),
(350,663,o),
(405,614,o),
(405,535,cs),
(405,457,o),
(351,392,o),
(270,392,cs),
(245,392,l),
(245,339,l),
(285,339,ls),
(372,339,o),
(439,283,o),
(439,196,cs),
(439,109,o),
(372,53,o),
(285,53,cs),
(245,53,l),
(245,0,l)
);
}
);
width = 547;
},
{
layerId = m004;
shapes = (
{
closed = 1;
nodes = (
(232,0,ls),
(360,0,o),
(476,57,o),
(500,180,cs),
(518,277,o),
(469,358,o),
(374,376,c),
(374,360,l),
(457,375,o),
(515,438,o),
(531,518,cs),
(553,635,o),
(471,716,o),
(355,716,cs),
(229,716,o),
(148,622,o),
(124,500,cs),
(27,0,l),
(102,0,l),
(199,500,ls),
(215,580,o),
(269,643,o),
(349,643,cs),
(423,643,o),
(467,591,o),
(453,518,cs),
(439,448,o),
(379,402,o),
(305,402,cs),
(270,402,l),
(256,329,l),
(306,329,ls),
(386,329,o),
(439,271,o),
(423,192,cs),
(407,114,o),
(337,73,o),
(256,73,cs),
(206,73,l),
(192,0,l)
);
}
);
width = 559;
},
{
layerId = m008;
shapes = (
{
closed = 1;
nodes = (
(281,0,ls),
(414,0,o),
(542,47,o),
(567,176,cs),
(588,281,o),
(526,362,o),
(422,376,c),
(422,363,l),
(511,374,o),
(582,428,o),
(599,517,cs),
(624,647,o),
(500,716,o),
(375,716,cs),
(226,716,o),
(137,618,o),
(110,480,cs),
(17,0,l),
(152,0,l),
(245,480,ls),
(258,549,o),
(304,603,o),
(372,603,cs),
(431,603,o),
(470,563,o),
(460,507,cs),
(449,448,o),
(393,422,o),
(333,422,cs),
(313,422,l),
(290,306,l),
(350,306,ls),
(409,306,o),
(447,262,o),
(435,204,cs),
(424,147,o),
(373,116,o),
(314,116,cs),
(254,116,l),
(231,0,l)
);
}
);
width = 616;
},
{
layerId = m006;
shapes = (
{
closed = 1;
nodes = (
(227,0,ls),
(350,0,o),
(460,59,o),
(484,178,cs),
(506,286,o),
(443,374,o),
(334,369,c),
(335,365,l),
(429,367,o),
(499,433,o),
(517,522,cs),
(540,637,o),
(456,716,o),
(345,716,cs),
(225,716,o),
(156,625,o),
(131,510,cs),
(32,0,l),
(87,0,l),
(186,510,l),
(206,594,o),
(260,663,o),
(345,663,cs),
(427,663,o),
(474,600,o),
(458,520,cs),
(443,442,o),
(378,392,o),
(298,392,cs),
(273,392,l),
(263,339,l),
(303,339,ls),
(390,339,o),
(444,272,o),
(427,186,cs),
(410,101,o),
(335,53,o),
(247,53,cs),
(207,53,l),
(197,0,l)
);
}
);
width = 548;
}
);
metricLeft = l;
metricRight = o;
unicode = 223;
},
{
glyphname = t;
kernLeft = t;
kernRight = t;
lastChange = "2022-11-29 07:50:25 +0000";
layers = (
{
layerId = m01;
shapes = (
{
closed = 1;
nodes = (
(348,0,l),
(348,73,l),
(258,73,ls),
(218,73,o),
(198,93,o),
(198,133,cs),
(198,660,l),
(123,660,l),
(123,140,ls),
(123,46,o),
(169,0,o),
(263,0,cs)
);
},
{
closed = 1;
nodes = (
(348,427,l),
(348,500,l),
(15,500,l),
(15,427,l)
);
}
);
width = 378;
},
{
layerId = m005;
shapes = (
{
closed = 1;
nodes = (
(398,0,l),
(398,113,l),
(308,113,ls),
(268,113,o),
(248,133,o),
(248,173,cs),
(248,661,l),
(113,661,l),
(113,160,ls),
(113,53,o),
(169,0,o),
(283,0,cs)
);
},
{
closed = 1;
nodes = (
(398,387,l),
(398,500,l),
(5,500,l),
(5,387,l)
);
}
);
width = 418;
},
{
layerId = m007;
shapes = (
{
closed = 1;
nodes = (
(333,0,l),
(333,53,l),
(253,53,ls),
(206,53,o),
(183,76,o),
(183,123,cs),
(183,660,l),
(128,660,l),
(128,130,ls),
(128,43,o),
(171,0,o),
(258,0,cs)
);
},
{
closed = 1;
nodes = (
(333,447,l),
(333,500,l),
(20,500,l),
(20,447,l)
);
}
);
width = 368;
},
{
layerId = m004;
shapes = (
{
closed = 1;
nodes = (
(300,0,l),
(314,73,l),
(224,73,ls),
(184,73,o),
(168,93,o),
(176,133,cs),
(278,660,l),
(203,660,l),
(102,140,ls),
(84,46,o),
(125,0,o),
(225,0,cs)
);
},
{
closed = 1;
nodes = (
(383,427,l),
(397,500,l),
(64,500,l),
(50,427,l)
);
}
);
width = 379;
},
{
layerId = m008;
shapes = (
{
closed = 1;
nodes = (
(350,0,l),
(372,113,l),
(282,113,ls),
(242,113,o),
(226,133,o),
(234,173,cs),
(328,661,l),
(193,661,l),
(96,160,ls),
(76,53,o),
(122,0,o),
(235,0,cs)
);
},
{
closed = 1;
nodes = (
(425,387,l),
(447,500,l),
(54,500,l),
(32,387,l)
);
}
);
width = 419;
},
{
layerId = m006;
shapes = (
{
closed = 1;
nodes = (
(285,0,l),
(295,53,l),
(215,53,ls),
(170,53,o),
(150,78,o),
(159,123,cs),
(263,660,l),
(208,660,l),
(105,130,ls),
(89,44,o),
(124,0,o),
(210,0,cs)
);
},
{
closed = 1;
nodes = (
(372,447,l),
(382,500,l),
(69,500,l),
(59,447,l)
);
}
);
width = 369;
}
);
unicode = 116;
},
{
glyphname = tbar;
kernLeft = t;
kernRight = t;
lastChange = "2022-11-25 14:12:14 +0000";
layers = (
{
layerId = m01;
shapes = (
{
closed = 1;
nodes = (
(348,260,l),
(348,320,l),
(15,320,l),
(15,260,l)
);
},
{
ref = t;
}
);
width = 378;
},
{
layerId = m005;
shapes = (
{
closed = 1;
nodes = (
(398,220,l),
(398,310,l),
(5,310,l),
(5,220,l)
);
},
{
ref = t;
}
);
width = 418;
},
{
layerId = m007;
shapes = (
{
closed = 1;
nodes = (
(333,270,l),
(333,310,l),
(20,310,l),
(20,270,l)
);
},
{
ref = t;
}
);
width = 368;
},
{
layerId = m004;
shapes = (
{
closed = 1;
nodes = (
(351,260,l),
(362,320,l),
(29,320,l),
(18,260,l)
);
},
{
pos = (20,0);
ref = t;
}
);
width = 399;
},
{
layerId = m008;
shapes = (
{
closed = 1;
nodes = (
(393,220,l),
(410,310,l),
(17,310,l),
(0,220,l)
);
},
{
pos = (20,0);
ref = t;
}
);
width = 439;
},
{
layerId = m006;
shapes = (
{
closed = 1;
nodes = (
(337,270,l),
(345,310,l),
(32,310,l),
(24,270,l)
);
},
{
pos = (20,0);
ref = t;
}
);
width = 389;
}
);
metricLeft = t;
metricRight = t;
unicode = 359;
},
{
glyphname = u;
kernLeft = u;
kernRight = u;
lastChange = "2022-11-25 14:12:14 +0000";
layers = (
{
layerId = m01;
shapes = (
{
closed = 1;
nodes = (
(324,-16,o),
(408,45,o),
(408,151,c),
(393,257,l),
(393,153,o),
(347,57,o),
(243,57,cs),
(175,57,o),
(140,113,o),
(140,181,cs),
(140,500,l),
(65,500,l),
(65,151,ls),
(65,56,o),
(123,-16,o),
(218,-16,cs)
);
},
{
closed = 1;
nodes = (
(468,0,l),
(468,500,l),
(393,500,l),
(393,0,l)
);
}
);
width = 543;
},
{
layerId = m005;
shapes = (
{
closed = 1;
nodes = (
(336,-16,o),
(409,82,o),
(409,207,c),
(383,257,l),
(383,176,o),
(353,97,o),
(272,97,cs),
(218,97,o),
(190,143,o),
(190,197,cs),
(190,500,l),
(55,500,l),
(55,181,ls),
(55,76,o),
(106,-16,o),
(211,-16,cs)
);
},
{
closed = 1;
nodes = (
(518,0,l),
(518,500,l),
(383,500,l),
(383,0,l)
);
}
);
width = 583;
},
{
layerId = m007;
shapes = (
{
closed = 1;
nodes = (
(340,-16,o),
(418,65,o),
(418,181,c),
(398,257,l),
(398,144,o),
(351,37,o),
(238,37,cs),
(158,37,o),
(125,111,o),
(125,191,cs),
(125,500,l),
(70,500,l),
(70,161,ls),
(70,63,o),
(126,-16,o),
(224,-16,cs)
);
},
{
closed = 1;
nodes = (
(453,0,l),
(453,500,l),
(398,500,l),
(398,0,l)
);
}
);
width = 533;
},
{
layerId = m004;
shapes = (
{
closed = 1;
nodes = (
(288,-16,o),
(374,50,o),
(389,151,c),
(395,257,l),
(375,152,o),
(313,57,o),
(206,57,cs),
(134,57,o),
(117,129,o),
(131,200,cs),
(189,500,l),
(114,500,l),
(52,182,ls),
(32,77,o),
(79,-16,o),
(186,-16,cs)
);
},
{
closed = 1;
nodes = (
(420,0,l),
(517,500,l),
(442,500,l),
(345,0,l)
);
}
);
width = 544;
},
{
layerId = m008;
shapes = (
{
closed = 1;
nodes = (
(311,-16,o),
(378,88,o),
(401,207,c),
(385,257,l),
(369,175,o),
(327,97,o),
(243,97,cs),
(190,97,o),
(170,145,o),
(180,197,cs),
(239,500,l),
(104,500,l),
(42,181,ls),
(21,71,o),
(78,-16,o),
(190,-16,cs)
);
},
{
closed = 1;
nodes = (
(470,0,l),
(567,500,l),
(432,500,l),
(335,0,l)
);
}
);
width = 584;
},
{
layerId = m006;
shapes = (
{
closed = 1;
nodes = (
(299,-16,o),
(383,67,o),
(405,181,c),
(400,257,l),
(377,142,o),
(315,37,o),
(197,37,cs),
(117,37,o),
(99,113,o),
(114,191,cs),
(174,500,l),
(119,500,l),
(53,161,ls),
(34,64,o),
(84,-16,o),
(183,-16,cs)
);
},
{
closed = 1;
nodes = (
(405,0,l),
(502,500,l),
(447,500,l),
(350,0,l)
);
}
);
width = 534;
}
);
unicode = 117;
},
{
glyphname = v;
kernLeft = v;
kernRight = v;
lastChange = "2022-11-25 14:12:14 +0000";
layers = (
{
layerId = m01;
shapes = (
{
closed = 1;
nodes = (
(287,0,l),
(475,500,l),
(397,500,l),
(225,43,l),
(256,43,l),
(93,500,l),
(15,500,l),
(193,0,l)
);
}
);
width = 490;
},
{
layerId = m005;
shapes = (
{
closed = 1;
nodes = (
(361,0,l),
(554,500,l),
(410,500,l),
(259,109,l),
(290,109,l),
(148,500,l),
(5,500,l),
(187,0,l)
);
}
);
width = 559;
},
{
layerId = m007;
shapes = (
{
closed = 1;
nodes = (
(266,0,l),
(452,500,l),
(395,500,l),
(216,19,l),
(247,19,l),
(77,500,l),
(20,500,l),
(196,0,l)
);
}
);
width = 472;
},
{
layerId = m004;
shapes = (
{
closed = 1;
nodes = (
(239,0,l),
(524,500,l),
(442,500,l),
(183,46,l),
(212,41,l),
(138,500,l),
(64,500,l),
(145,0,l)
);
}
);
width = 490;
},
{
layerId = m008;
shapes = (
{
closed = 1;
nodes = (
(313,0,l),
(603,500,l),
(457,500,l),
(224,98,l),
(255,93,l),
(185,500,l),
(54,500,l),
(139,0,l)
);
}
);
width = 559;
},
{
layerId = m006;
shapes = (
{
closed = 1;
nodes = (
(218,0,l),
(501,500,l),
(442,500,l),
(171,22,l),
(200,17,l),
(124,500,l),
(69,500,l),
(148,0,l)
);
}
);
width = 472;
}
);
unicode = 118;
},
{
glyphname = w;
kernLeft = w;
kernRight = w;
lastChange = "2022-11-25 14:12:14 +0000";
layers = (
{
layerId = m01;
shapes = (
{
closed = 1;
nodes = (
(250,0,l),
(396,446,l),
(368,446,l),
(513,0,l),
(611,0,l),
(733,500,l),
(655,500,l),
(543,40,l),
(568,41,l),
(418,500,l),
(345,500,l),
(195,41,l),
(220,40,l),
(108,500,l),
(30,500,l),
(152,0,l)
);
}
);
width = 763;
},
{
layerId = m005;
shapes = (
{
closed = 1;
nodes = (
(295,0,l),
(405,352,l),
(379,352,l),
(488,0,l),
(641,0,l),
(763,500,l),
(620,500,l),
(535,152,l),
(559,153,l),
(451,500,l),
(332,500,l),
(224,153,l),
(248,152,l),
(163,500,l),
(20,500,l),
(142,0,l)
);
}
);
width = 783;
},
{
layerId = m007;
shapes = (
{
closed = 1;
nodes = (
(235,0,l),
(384,446,l),
(374,446,l),
(522,0,l),
(600,0,l),
(722,500,l),
(665,500,l),
(553,41,l),
(560,40,l),
(407,500,l),
(350,500,l),
(197,40,l),
(204,41,l),
(92,500,l),
(35,500,l),
(157,0,l)
);
}
);
width = 757;
},
{
layerId = m004;
shapes = (
{
closed = 1;
nodes = (
(202,0,l),
(435,446,l),
(402,446,l),
(460,0,l),
(563,0,l),
(782,500,l),
(699,500,l),
(498,40,l),
(524,41,l),
(463,500,l),
(386,500,l),
(147,41,l),
(175,40,l),
(152,500,l),
(79,500,l),
(104,0,l)
);
}
);
width = 763;
},
{
layerId = m008;
shapes = (
{
closed = 1;
nodes = (
(242,0,l),
(420,352,l),
(394,352,l),
(435,0,l),
(593,0,l),
(812,500,l),
(674,500,l),
(522,152,l),
(536,153,l),
(495,500,l),
(375,500,l),
(200,153,l),
(214,152,l),
(196,500,l),
(69,500,l),
(94,0,l)
);
}
);
width = 783;
},
{
layerId = m006;
shapes = (
{
closed = 1;
nodes = (
(187,0,l),
(423,446,l),
(413,446,l),
(474,0,l),
(552,0,l),
(771,500,l),
(714,500,l),
(513,41,l),
(520,40,l),
(456,500,l),
(394,500,l),
(152,40,l),
(159,41,l),
(136,500,l),
(84,500,l),
(109,0,l)
);
}
);
width = 757;
}
);
metricLeft = "=v+15";
metricRight = "=v+15";
unicode = 119;
},
{
glyphname = x;
kernLeft = x;
kernRight = x;
lastChange = "2022-11-25 14:12:14 +0000";
layers = (
{
layerId = m01;
shapes = (
{
closed = 1;
nodes = (
(20,500,l),
(106,500,l),
(462,0,l),
(376,0,l)
);
},
{
closed = 1;
nodes = (
(376,500,l),
(462,500,l),
(106,0,l),
(20,0,l)
);
}
);
width = 482;
},
{
layerId = m005;
shapes = (
{
closed = 1;
nodes = (
(10,500,l),
(172,500,l),
(536,0,l),
(374,0,l)
);
},
{
closed = 1;
nodes = (
(374,500,l),
(536,500,l),
(172,0,l),
(10,0,l)
);
}
);
width = 546;
},
{
layerId = m007;
shapes = (
{
closed = 1;
nodes = (
(25,500,l),
(87,500,l),
(439,0,l),
(377,0,l)
);
},
{
closed = 1;
nodes = (
(377,500,l),
(439,500,l),
(87,0,l),
(25,0,l)
);
}
);
width = 464;
},
{
layerId = m004;
shapes = (
{
closed = 1;
nodes = (
(62,0,l),
(515,500,l),
(424,500,l),
(-29,0,l)
);
},
{
closed = 1;
nodes = (
(413,0,l),
(154,500,l),
(73,500,l),
(332,0,l)
);
}
);
width = 486;
},
{
layerId = m008;
shapes = (
{
closed = 1;
nodes = (
(123,0,l),
(584,500,l),
(422,500,l),
(-39,0,l)
);
},
{
closed = 1;
nodes = (
(487,0,l),
(220,500,l),
(68,500,l),
(335,0,l)
);
}
);
width = 546;
},
{
layerId = m006;
shapes = (
{
closed = 1;
nodes = (
(41,0,l),
(490,500,l),
(425,500,l),
(-24,0,l)
);
},
{
closed = 1;
nodes = (
(390,0,l),
(135,500,l),
(76,500,l),
(331,0,l)
);
}
);
width = 466;
}
);
unicode = 120;
},
{
glyphname = y;
kernLeft = y;
kernRight = y;
lastChange = "2022-11-25 14:12:14 +0000";
layers = (
{
layerId = m01;
shapes = (
{
closed = 1;
nodes = (
(198,-200,l),
(491,500,l),
(413,500,l),
(120,-200,l)
);
},
{
closed = 1;
nodes = (
(281,0,l),
(92,500,l),
(15,500,l),
(204,0,l)
);
}
);
width = 506;
},
{
layerId = m005;
shapes = (
{
closed = 1;
nodes = (
(261,-200,l),
(570,500,l),
(430,500,l),
(121,-200,l)
);
},
{
closed = 1;
nodes = (
(347,0,l),
(143,500,l),
(5,500,l),
(209,0,l)
);
}
);
width = 575;
},
{
layerId = m007;
shapes = (
{
closed = 1;
nodes = (
(182,-200,l),
(467,500,l),
(411,500,l),
(126,-200,l)
);
},
{
closed = 1;
nodes = (
(263,0,l),
(77,500,l),
(20,500,l),
(207,0,l)
);
}
);
width = 487;
},
{
layerId = m004;
shapes = (
{
closed = 1;
nodes = (
(111,-200,l),
(540,500,l),
(457,500,l),
(28,-200,l)
);
},
{
closed = 1;
nodes = (
(228,0,l),
(136,500,l),
(64,500,l),
(156,0,l)
);
}
);
width = 506;
},
{
layerId = m008;
shapes = (
{
closed = 1;
nodes = (
(174,-200,l),
(619,500,l),
(469,500,l),
(24,-200,l)
);
},
{
closed = 1;
nodes = (
(289,0,l),
(182,500,l),
(54,500,l),
(161,0,l)
);
}
);
width = 575;
},
{
layerId = m006;
shapes = (
{
closed = 1;
nodes = (
(95,-200,l),
(516,500,l),
(460,500,l),
(39,-200,l)
);
},
{
closed = 1;
nodes = (
(215,0,l),
(126,500,l),
(69,500,l),
(159,0,l)
);
}
);
width = 487;
}
);
metricLeft = v;
metricRight = v;
unicode = 121;
},
{
glyphname = z;
kernLeft = z;
kernRight = z;
lastChange = "2022-11-25 14:12:14 +0000";
layers = (
{
layerId = m01;
shapes = (
{
closed = 1;
nodes = (
(123,68,l),
(432,432,l),
(345,432,l),
(35,68,l)
);
},
{
closed = 1;
nodes = (
(432,0,l),
(432,68,l),
(35,68,l),
(35,0,l)
);
},
{
closed = 1;
nodes = (
(432,432,l),
(432,500,l),
(35,500,l),
(35,432,l)
);
}
);
width = 467;
},
{
layerId = m005;
shapes = (
{
closed = 1;
nodes = (
(189,108,l),
(462,392,l),
(299,392,l),
(25,108,l)
);
},
{
closed = 1;
nodes = (
(462,0,l),
(462,108,l),
(25,108,l),
(25,0,l)
);
},
{
closed = 1;
nodes = (
(462,392,l),
(462,500,l),
(25,500,l),
(25,392,l)
);
}
);
width = 487;
},
{
layerId = m007;
shapes = (
{
closed = 1;
nodes = (
(101,48,l),
(417,452,l),
(357,452,l),
(40,48,l)
);
},
{
closed = 1;
nodes = (
(417,0,l),
(417,48,l),
(40,48,l),
(40,0,l)
);
},
{
closed = 1;
nodes = (
(417,452,l),
(417,500,l),
(40,500,l),
(40,452,l)
);
}
);
width = 457;
},
{
layerId = m004;
shapes = (
{
closed = 1;
nodes = (
(88,68,l),
(468,432,l),
(381,432,l),
(0,68,l)
);
},
{
closed = 1;
nodes = (
(384,0,l),
(397,68,l),
(0,68,l),
(-13,0,l)
);
},
{
closed = 1;
nodes = (
(468,432,l),
(481,500,l),
(84,500,l),
(71,432,l)
);
}
);
width = 468;
},
{
layerId = m008;
shapes = (
{
closed = 1;
nodes = (
(162,108,l),
(490,392,l),
(327,392,l),
(-2,108,l)
);
},
{
closed = 1;
nodes = (
(414,0,l),
(435,108,l),
(-2,108,l),
(-23,0,l)
);
},
{
closed = 1;
nodes = (
(490,392,l),
(511,500,l),
(74,500,l),
(53,392,l)
);
}
);
width = 488;
},
{
layerId = m006;
shapes = (
{
closed = 1;
nodes = (
(67,48,l),
(457,452,l),
(392,452,l),
(1,48,l)
);
},
{
closed = 1;
nodes = (
(369,0,l),
(378,48,l),
(1,48,l),
(-8,0,l)
);
},
{
closed = 1;
nodes = (
(457,452,l),
(466,500,l),
(89,500,l),
(80,452,l)
);
}
);
width = 458;
}
);
unicode = 122;
},
{
glyphname = y.ss02;
kernLeft = y;
kernRight = y;
lastChange = "2022-11-29 07:51:14 +0000";
layers = (
{
layerId = m01;
shapes = (
{
closed = 1;
nodes = (
(117,-200,ls),
(183,-200,o),
(227,-170,o),
(252,-109,cs),
(499,500,l),
(421,500,l),
(240,55,l),
(274,55,l),
(93,500,l),
(15,500,l),
(218,1,l),
(185,-80,ls),
(172,-111,o),
(150,-127,o),
(116,-127,cs),
(37,-127,l),
(37,-200,l)
);
}
);
width = 514;
},
{
layerId = m005;
shapes = (
{
closed = 1;
nodes = (
(161,-200,ls),
(240,-200,o),
(295,-164,o),
(327,-91,cs),
(584,500,l),
(435,500,l),
(274,132,l),
(309,132,l),
(154,500,l),
(5,500,l),
(217,0,l),
(202,-33,ls),
(189,-62,o),
(167,-77,o),
(135,-77,cs),
(35,-77,l),
(35,-200,l)
);
}
);
width = 589;
},
{
layerId = m007;
shapes = (
{
closed = 1;
nodes = (
(107,-200,ls),
(169,-200,o),
(211,-172,o),
(233,-115,cs),
(474,500,l),
(418,500,l),
(245,65,l),
(249,65,l),
(76,500,l),
(20,500,l),
(219,1,l),
(184,-94,ls),
(171,-129,o),
(146,-147,o),
(106,-147,cs),
(37,-147,l),
(37,-200,l)
);
}
);
width = 494;
},
{
layerId = m004;
shapes = (
{
closed = 1;
nodes = (
(25,-200,ls),
(94,-200,o),
(147,-170,o),
(183,-109,cs),
(548,500,l),
(465,500,l),
(198,55,l),
(232,55,l),
(137,500,l),
(64,500,l),
(170,1,l),
(116,-80,ls),
(95,-111,o),
(70,-127,o),
(38,-127,cs),
(-41,-127,l),
(-55,-200,l)
);
}
);
width = 514;
},
{
layerId = m008;
shapes = (
{
closed = 1;
nodes = (
(60,-200,ls),
(145,-200,o),
(210,-164,o),
(256,-91,cs),
(628,500,l),
(470,500,l),
(238,132,l),
(271,132,l),
(187,500,l),
(54,500,l),
(169,0,l),
(144,-33,ls),
(122,-62,o),
(93,-77,o),
(58,-77,cs),
(-42,-77,l),
(-66,-200,l)
);
}
);
width = 584;
},
{
layerId = m006;
shapes = (
{
closed = 1;
nodes = (
(20,-200,ls),
(82,-200,o),
(129,-172,o),
(163,-115,cs),
(523,500,l),
(467,500,l),
(210,65,l),
(214,65,l),
(125,500,l),
(69,500,l),
(171,1,l),
(118,-94,ls),
(98,-129,o),
(69,-147,o),
(29,-147,cs),
(-40,-147,l),
(-50,-200,l)
);
}
);
width = 494;
}
);
metricLeft = y;
metricRight = y;
},
{
glyphname = oslash.ss03;
kernLeft = o;
kernRight = o;
lastChange = "2022-11-25 14:12:14 +0000";
layers = (
{
layerId = m01;
shapes = (
{
closed = 1;
nodes = (
(98,0,l),
(591,500,l),
(513,500,l),
(20,0,l)
);
},
{
pos = (25,0);
ref = o;
}
);
width = 611;
},
{
layerId = m005;
shapes = (
{
closed = 1;
nodes = (
(129,0,l),
(633,500,l),
(514,500,l),
(10,0,l)
);
},
{
pos = (26,0);
ref = o;
}
);
width = 643;
},
{
layerId = m007;
shapes = (
{
closed = 1;
nodes = (
(75,0,l),
(548,500,l),
(498,500,l),
(25,0,l)
);
},
{
pos = (11,0);
ref = o;
}
);
width = 573;
},
{
layerId = m004;
shapes = (
{
closed = 1;
nodes = (
(49,0,l),
(639,500,l),
(561,500,l),
(-29,0,l)
);
},
{
pos = (25,0);
ref = o;
}
);
width = 610;
},
{
layerId = m008;
shapes = (
{
closed = 1;
nodes = (
(90,0,l),
(691,500,l),
(562,500,l),
(-39,0,l)
);
},
{
pos = (30,0);
ref = o;
}
);
width = 652;
},
{
layerId = m006;
shapes = (
{
closed = 1;
nodes = (
(26,0,l),
(596,500,l),
(546,500,l),
(-24,0,l)
);
},
{
pos = (11,0);
ref = o;
}
);
width = 572;
}
);
metricLeft = "=o-25";
metricRight = "=o-25";
},
{
glyphname = a.ss04;
kernLeft = o;
kernRight = u;
lastChange = "2022-11-29 07:30:19 +0000";
layers = (
{
layerId = m007;
shapes = (
{
closed = 1;
nodes = (
(371,-16,o),
(456,61,o),
(456,170,cs),
(456,330,ls),
(456,439,o),
(371,516,o),
(262,516,cs),
(122,516,o),
(50,390,o),
(50,250,cs),
(50,110,o),
(122,-16,o),
(262,-16,cs)
);
},
{
closed = 1;
nodes = (
(161,37,o),
(108,139,o),
(108,250,cs),
(108,361,o),
(161,463,o),
(272,463,cs),
(382,463,o),
(436,360,o),
(436,250,cs),
(436,140,o),
(382,37,o),
(272,37,cs)
);
},
{
closed = 1;
nodes = (
(491,0,l),
(491,500,l),
(436,500,l),
(436,0,l)
);
}
);
width = 571;
},
{
layerId = m01;
shapes = (
{
closed = 1;
nodes = (
(374,-16,o),
(446,63,o),
(446,170,cs),
(446,330,ls),
(446,437,o),
(374,516,o),
(267,516,cs),
(124,516,o),
(45,393,o),
(45,250,cs),
(45,107,o),
(124,-16,o),
(267,-16,cs)
);
},
{
closed = 1;
nodes = (
(175,57,o),
(123,148,o),
(123,250,cs),
(123,352,o),
(175,443,o),
(277,443,cs),
(379,443,o),
(431,352,o),
(431,250,cs),
(431,148,o),
(379,57,o),
(277,57,cs)
);
},
{
closed = 1;
nodes = (
(506,0,l),
(506,500,l),
(431,500,l),
(431,0,l)
);
}
);
width = 581;
},
{
layerId = m005;
shapes = (
{
closed = 1;
nodes = (
(380,-16,o),
(446,87,o),
(446,210,cs),
(446,290,ls),
(446,413,o),
(380,516,o),
(257,516,cs),
(113,516,o),
(35,394,o),
(35,250,cs),
(35,106,o),
(113,-16,o),
(257,-16,cs)
);
},
{
closed = 1;
nodes = (
(215,97,o),
(173,168,o),
(173,250,cs),
(173,332,o),
(215,403,o),
(297,403,cs),
(379,403,o),
(421,332,o),
(421,250,cs),
(421,168,o),
(379,97,o),
(297,97,cs)
);
},
{
closed = 1;
nodes = (
(556,0,l),
(556,500,l),
(421,500,l),
(421,0,l)
);
}
);
width = 621;
},
{
layerId = m006;
shapes = (
{
closed = 1;
nodes = (
(334,-16,o),
(420,59,o),
(441,170,cs),
(472,330,ls),
(492,434,o),
(420,516,o),
(314,516,cs),
(168,516,o),
(79,394,o),
(50,250,cs),
(24,116,o),
(84,-16,o),
(221,-16,cs)
);
},
{
closed = 1;
nodes = (
(122,37,o),
(88,143,o),
(108,250,cs),
(130,363,o),
(198,463,o),
(314,463,cs),
(423,463,o),
(458,357,o),
(436,250,cs),
(414,136,o),
(347,37,o),
(231,37,cs)
);
},
{
closed = 1;
nodes = (
(443,0,l),
(540,500,l),
(485,500,l),
(388,0,l)
);
}
);
width = 572;
},
{
layerId = m004;
shapes = (
{
closed = 1;
nodes = (
(322,-16,o),
(410,59,o),
(430,170,cs),
(461,330,ls),
(482,436,o),
(404,516,o),
(296,516,cs),
(156,516,o),
(73,393,o),
(46,255,cs),
(21,120,o),
(72,-16,o),
(209,-16,cs)
);
},
{
closed = 1;
nodes = (
(138,57,o),
(106,156,o),
(125,255,cs),
(145,354,o),
(205,443,o),
(306,443,cs),
(406,443,o),
(448,348,o),
(429,250,cs),
(409,147,o),
(344,57,o),
(239,57,cs)
);
},
{
closed = 1;
nodes = (
(456,0,l),
(553,500,l),
(478,500,l),
(381,0,l)
);
}
);
width = 580;
},
{
layerId = m008;
shapes = (
{
closed = 1;
nodes = (
(334,-16,o),
(416,84,o),
(439,210,cs),
(454,290,ls),
(477,411,o),
(422,516,o),
(299,516,cs),
(153,516,o),
(64,393,o),
(35,250,cs),
(9,114,o),
(67,-16,o),
(206,-16,cs)
);
},
{
closed = 1;
nodes = (
(188,97,o),
(158,171,o),
(173,250,cs),
(189,333,o),
(242,403,o),
(327,403,cs),
(407,403,o),
(436,329,o),
(421,250,cs),
(405,167,o),
(353,97,o),
(268,97,cs)
);
},
{
closed = 1;
nodes = (
(508,0,l),
(605,500,l),
(470,500,l),
(373,0,l)
);
}
);
width = 622;
}
);
metricLeft = o;
metricRight = u;
},
{
glyphname = ae.ss04;
kernLeft = o;
kernRight = o;
lastChange = "2022-11-29 07:38:17 +0000";
layers = (
{
layerId = m007;
shapes = (
{
closed = 1;
nodes = (
(766,-16,o),
(843,39,o),
(867,135,c),
(808,143,l),
(788,75,o),
(738,37,o),
(667,37,cs),
(558,37,o),
(499,131,o),
(499,240,c),
(872,240,l),
(872,248,ls),
(872,428,o),
(778,516,o),
(658,516,cs),
(538,516,o),
(451,418,o),
(451,248,cs),
(451,107,o),
(526,-16,o),
(667,-16,cs)
);
},
{
closed = 1;
nodes = (
(371,-16,o),
(456,61,o),
(456,170,cs),
(456,330,ls),
(456,439,o),
(371,516,o),
(262,516,cs),
(122,516,o),
(50,390,o),
(50,250,cs),
(50,110,o),
(122,-16,o),
(262,-16,cs)
);
},
{
closed = 1;
nodes = (
(161,37,o),
(108,139,o),
(108,250,cs),
(108,361,o),
(161,463,o),
(272,463,cs),
(382,463,o),
(436,360,o),
(436,250,cs),
(436,140,o),
(382,37,o),
(272,37,cs)
);
},
{
closed = 1;
nodes = (
(486,0,l),
(486,500,l),
(436,500,l),
(436,0,l)
);
},
{
closed = 1;
nodes = (
(499,389,o),
(557,463,o),
(658,463,cs),
(758,463,o),
(814,388,o),
(814,288,c),
(499,288,l)
);
}
);
width = 917;
},
{
layerId = m01;
shapes = (
{
closed = 1;
nodes = (
(777,-16,o),
(863,41,o),
(884,144,c),
(806,154,l),
(790,91,o),
(737,57,o),
(672,57,cs),
(575,57,o),
(514,133,o),
(514,230,c),
(887,230,l),
(887,248,ls),
(887,410,o),
(798,516,o),
(663,516,cs),
(535,516,o),
(446,406,o),
(446,248,cs),
(446,104,o),
(528,-16,o),
(672,-16,cs)
);
},
{
closed = 1;
nodes = (
(374,-16,o),
(446,63,o),
(446,170,cs),
(446,330,ls),
(446,437,o),
(374,516,o),
(267,516,cs),
(124,516,o),
(45,393,o),
(45,250,cs),
(45,107,o),
(124,-16,o),
(267,-16,cs)
);
},
{
closed = 1;
nodes = (
(175,57,o),
(123,148,o),
(123,250,cs),
(123,352,o),
(175,443,o),
(277,443,cs),
(379,443,o),
(431,352,o),
(431,250,cs),
(431,148,o),
(379,57,o),
(277,57,cs)
);
},
{
closed = 1;
nodes = (
(501,0,l),
(501,500,l),
(431,500,l),
(431,0,l)
);
},
{
closed = 1;
nodes = (
(514,384,o),
(577,443,o),
(663,443,cs),
(748,443,o),
(809,383,o),
(809,298,c),
(514,298,l)
);
}
);
width = 927;
},
{
layerId = m005;
shapes = (
{
closed = 1;
nodes = (
(842,-16,o),
(945,37,o),
(961,147,c),
(825,157,l),
(808,114,o),
(767,97,o),
(721,97,cs),
(652,97,o),
(599,141,o),
(599,210,c),
(961,210,l),
(961,248,ls),
(961,418,o),
(852,516,o),
(722,516,cs),
(592,516,o),
(480,418,o),
(480,248,cs),
(480,97,o),
(580,-16,o),
(731,-16,cs)
);
},
{
closed = 1;
nodes = (
(380,-16,o),
(446,87,o),
(446,210,cs),
(446,290,ls),
(446,413,o),
(380,516,o),
(257,516,cs),
(113,516,o),
(35,394,o),
(35,250,cs),
(35,106,o),
(113,-16,o),
(257,-16,cs)
);
},
{
closed = 1;
nodes = (
(214,97,o),
(172,168,o),
(172,250,cs),
(172,332,o),
(214,403,o),
(296,403,cs),
(378,403,o),
(420,332,o),
(420,250,cs),
(420,168,o),
(378,97,o),
(296,97,cs)
);
},
{
closed = 1;
nodes = (
(550,0,l),
(550,500,l),
(420,500,l),
(420,0,l)
);
},
{
closed = 1;
nodes = (
(599,369,o),
(651,403,o),
(712,403,cs),
(772,403,o),
(822,368,o),
(822,308,c),
(599,308,l)
);
}
);
width = 991;
},
{
layerId = m006;
shapes = (
{
closed = 1;
nodes = (
(734,-16,o),
(805,46,o),
(845,135,c),
(788,145,l),
(756,81,o),
(708,37,o),
(636,37,cs),
(528,37,o),
(478,134,o),
(498,240,c),
(871,240,l),
(872,248,ls),
(892,406,o),
(817,516,o),
(690,516,cs),
(570,516,o),
(474,415,o),
(445,268,cs),
(416,121,o),
(487,-16,o),
(636,-16,cs)
);
},
{
closed = 1;
nodes = (
(334,-16,o),
(420,59,o),
(441,170,cs),
(472,330,ls),
(492,434,o),
(420,516,o),
(314,516,cs),
(168,516,o),
(79,394,o),
(50,250,cs),
(24,116,o),
(84,-16,o),
(221,-16,cs)
);
},
{
closed = 1;
nodes = (
(122,37,o),
(88,143,o),
(108,250,cs),
(130,363,o),
(198,463,o),
(314,463,cs),
(423,463,o),
(458,357,o),
(436,250,cs),
(414,136,o),
(347,37,o),
(231,37,cs)
);
},
{
closed = 1;
nodes = (
(438,0,l),
(535,500,l),
(485,500,l),
(388,0,l)
);
},
{
closed = 1;
nodes = (
(526,385,o),
(591,463,o),
(690,463,cs),
(786,463,o),
(840,382,o),
(822,288,c),
(507,288,l)
);
}
);
width = 918;
},
{
layerId = m004;
shapes = (
{
closed = 1;
nodes = (
(749,-16,o),
(825,51,o),
(862,144,c),
(786,154,l),
(759,93,o),
(710,57,o),
(643,57,cs),
(548,57,o),
(490,137,o),
(509,230,c),
(882,230,l),
(888,265,ls),
(915,423,o),
(809,516,o),
(709,516,cs),
(579,516,o),
(480,432,o),
(447,265,cs),
(419,116,o),
(498,-16,o),
(649,-16,cs)
);
},
{
closed = 1;
nodes = (
(322,-16,o),
(410,59,o),
(430,170,cs),
(461,330,ls),
(482,436,o),
(404,516,o),
(296,516,cs),
(156,516,o),
(73,393,o),
(46,255,cs),
(21,120,o),
(72,-16,o),
(209,-16,cs)
);
},
{
closed = 1;
nodes = (
(138,57,o),
(106,156,o),
(125,255,cs),
(145,354,o),
(205,443,o),
(306,443,cs),
(406,443,o),
(448,348,o),
(429,250,cs),
(409,147,o),
(344,57,o),
(239,57,cs)
);
},
{
closed = 1;
nodes = (
(451,0,l),
(548,500,l),
(478,500,l),
(381,0,l)
);
},
{
closed = 1;
nodes = (
(539,384,o),
(602,443,o),
(689,443,cs),
(775,443,o),
(833,383,o),
(817,298,c),
(522,298,l)
);
}
);
width = 926;
},
{
layerId = m008;
shapes = (
{
closed = 1;
nodes = (
(813,-16,o),
(909,43,o),
(945,147,c),
(810,157,l),
(786,115,o),
(743,97,o),
(695,97,cs),
(628,97,o),
(582,144,o),
(595,210,c),
(957,210,l),
(964,248,ls),
(991,396,o),
(887,516,o),
(757,516,cs),
(607,516,o),
(516,415,o),
(489,278,cs),
(458,119,o),
(541,-16,o),
(703,-16,cs)
);
},
{
closed = 1;
nodes = (
(334,-16,o),
(416,84,o),
(439,210,cs),
(454,290,ls),
(477,411,o),
(422,516,o),
(299,516,cs),
(153,516,o),
(64,393,o),
(35,250,cs),
(9,114,o),
(67,-16,o),
(206,-16,cs)
);
},
{
closed = 1;
nodes = (
(188,97,o),
(158,171,o),
(173,250,cs),
(189,333,o),
(242,403,o),
(327,403,cs),
(407,403,o),
(436,329,o),
(421,250,cs),
(405,167,o),
(353,97,o),
(268,97,cs)
);
},
{
closed = 1;
nodes = (
(498,0,l),
(595,500,l),
(470,500,l),
(373,0,l)
);
},
{
closed = 1;
nodes = (
(625,367,o),
(675,403,o),
(735,403,cs),
(797,403,o),
(848,369,o),
(837,308,c),
(614,308,l)
);
}
);
width = 995;
}
);
metricLeft = o;
metricRight = e;
},
{
glyphname = Delta;
lastChange = "2022-11-25 14:12:14 +0000";
layers = (
{
layerId = m01;
shapes = (
{
closed = 1;
nodes = (
(678,0,l),
(445,700,l),
(343,700,l),
(100,0,l)
);
},
{
closed = 1;
nodes = (
(408,664,l),
(379,664,l),
(590,30,l),
(621,73,l),
(158,73,l),
(188,30,l)
);
}
);
width = 778;
},
{
layerId = m005;
shapes = (
{
closed = 1;
nodes = (
(724,0,l),
(477,700,l),
(347,700,l),
(90,0,l)
);
},
{
closed = 1;
nodes = (
(459,679,l),
(364,679,l),
(580,70,l),
(611,113,l),
(204,113,l),
(234,70,l)
);
}
);
width = 814;
},
{
layerId = m007;
shapes = (
{
closed = 1;
nodes = (
(655,0,l),
(419,700,l),
(351,700,l),
(105,0,l)
);
},
{
closed = 1;
nodes = (
(395,664,l),
(374,664,l),
(584,42,l),
(592,53,l),
(168,53,l),
(176,42,l)
);
}
);
width = 760;
},
{
layerId = m004;
shapes = (
{
closed = 1;
nodes = (
(629,0,l),
(532,700,l),
(430,700,l),
(51,0,l)
);
},
{
closed = 1;
nodes = (
(493,664,l),
(459,664,l),
(547,30,l),
(586,73,l),
(123,73,l),
(150,30,l)
);
}
);
width = 778;
},
{
layerId = m008;
shapes = (
{
closed = 1;
nodes = (
(665,0,l),
(554,700,l),
(424,700,l),
(31,0,l)
);
},
{
closed = 1;
nodes = (
(542,679,l),
(437,679,l),
(535,70,l),
(574,113,l),
(167,113,l),
(199,70,l)
);
}
);
width = 794;
},
{
layerId = m006;
shapes = (
{
closed = 1;
nodes = (
(606,0,l),
(506,700,l),
(438,700,l),
(56,0,l)
);
},
{
closed = 1;
nodes = (
(480,664,l),
(454,664,l),
(543,42,l),
(553,53,l),
(129,53,l),
(140,42,l)
);
}
);
width = 760;
}
);
unicode = 916;
},
{
glyphname = Omega;
lastChange = "2022-12-03 10:31:18 +0000";
layers = (
{
layerId = m01;
shapes = (
{
closed = 1;
nodes = (
(330,0,l),
(330,74,l),
(229,158,o),
(140,262,o),
(140,394,cs),
(140,538,o),
(247,643,o),
(390,643,cs),
(534,643,o),
(641,538,o),
(640,394,cs),
(639,264,o),
(551,158,o),
(450,74,c),
(450,0,l),
(740,0,l),
(740,74,l),
(520,74,l),
(520,54,l),
(637,133,o),
(718,253,o),
(718,394,cs),
(718,581,o),
(577,716,o),
(390,716,cs),
(203,716,o),
(62,581,o),
(62,394,cs),
(62,253,o),
(143,133,o),
(260,54,c),
(260,74,l),
(40,74,l),
(40,0,l)
);
}
);
width = 780;
},
{
layerId = m005;
shapes = (
{
closed = 1;
nodes = (
(350,0,l),
(350,104,l),
(250,168,o),
(190,282,o),
(190,394,cs),
(190,529,o),
(279,623,o),
(405,623,cs),
(535,623,o),
(620,528,o),
(620,394,cs),
(620,281,o),
(560,168,o),
(460,104,c),
(460,0,l),
(780,0,l),
(780,114,l),
(540,114,l),
(540,70,l),
(673,136,o),
(768,253,o),
(768,404,cs),
(768,602,o),
(606,736,o),
(405,736,cs),
(206,736,o),
(42,602,o),
(42,404,cs),
(42,253,o),
(137,136,o),
(270,70,c),
(270,114,l),
(30,114,l),
(30,0,l)
);
}
);
width = 810;
},
{
layerId = m007;
shapes = (
{
closed = 1;
nodes = (
(315,0,l),
(315,59,l),
(211,147,o),
(125,258,o),
(125,394,cs),
(125,546,o),
(233,663,o),
(385,663,cs),
(537,663,o),
(646,548,o),
(645,394,cs),
(644,260,o),
(559,147,o),
(455,59,c),
(455,0,l),
(725,0,l),
(725,54,l),
(525,54,l),
(515,43,l),
(626,131,o),
(703,253,o),
(703,394,cs),
(703,579,o),
(569,716,o),
(385,716,cs),
(200,716,o),
(67,579,o),
(67,394,cs),
(67,254,o),
(144,131,o),
(255,43,c),
(245,54,l),
(45,54,l),
(45,0,l)
);
}
);
width = 770;
},
{
layerId = m004;
shapes = (
{
closed = 1;
nodes = (
(282,0,l),
(296,74,l),
(208,162,o),
(145,272,o),
(170,401,cs),
(198,541,o),
(317,643,o),
(458,643,cs),
(606,643,o),
(697,530,o),
(667,384,cs),
(641,255,o),
(531,157,o),
(416,74,c),
(402,0,l),
(692,0,l),
(706,74,l),
(486,74,l),
(482,54,l),
(612,132,o),
(718,245,o),
(745,384,cs),
(781,573,o),
(653,716,o),
(460,716,cs),
(276,716,o),
(128,585,o),
(93,406,cs),
(65,263,o),
(118,137,o),
(222,54,c),
(226,74,l),
(6,74,l),
(-8,0,l)
);
}
);
width = 781;
},
{
layerId = m008;
shapes = (
{
closed = 1;
nodes = (
(312,0,l),
(332,104,l),
(240,170,o),
(207,283,o),
(229,393,cs),
(255,525,o),
(354,623,o),
(481,623,cs),
(613,623,o),
(683,517,o),
(656,380,cs),
(634,269,o),
(554,166,o),
(442,104,c),
(422,0,l),
(742,0,l),
(764,114,l),
(524,114,l),
(516,70,l),
(660,136,o),
(778,248,o),
(806,394,cs),
(845,597,o),
(687,736,o),
(482,736,cs),
(284,736,o),
(122,606,o),
(85,419,cs),
(55,265,o),
(122,138,o),
(246,70,c),
(254,114,l),
(14,114,l),
(-8,0,l)
);
}
);
width = 831;
},
{
layerId = m006;
shapes = (
{
closed = 1;
nodes = (
(269,0,l),
(280,59,l),
(189,151,o),
(129,268,o),
(155,403,cs),
(184,550,o),
(305,663,o),
(455,663,cs),
(612,663,o),
(703,539,o),
(671,383,cs),
(644,251,o),
(539,144,o),
(420,59,c),
(409,0,l),
(679,0,l),
(689,54,l),
(489,54,l),
(481,43,l),
(605,128,o),
(703,247,o),
(729,381,cs),
(767,571,o),
(644,716,o),
(455,716,cs),
(273,716,o),
(132,582,o),
(98,405,cs),
(71,262,o),
(122,136,o),
(219,43,c),
(209,54,l),
(9,54,l),
(-1,0,l)
);
}
);
width = 771;
}
);
unicode = 937;
},
{
glyphname = mu;
lastChange = "2022-11-25 14:14:59 +0000";
layers = (
{
layerId = m01;
shapes = (
{
closed = 1;
nodes = (
(329,-16,o),
(408,62,o),
(408,161,c),
(403,257,l),
(403,129,o),
(349,57,o),
(253,57,cs),
(185,57,o),
(150,99,o),
(150,181,cs),
(150,500,l),
(75,500,l),
(75,151,ls),
(75,47,o),
(133,-16,o),
(228,-16,cs)
);
},
{
closed = 1;
nodes = (
(150,-200,l),
(150,500,l),
(75,500,l),
(75,-200,l)
);
},
{
closed = 1;
nodes = (
(478,0,l),
(478,500,l),
(403,500,l),
(403,0,l)
);
}
);
width = 553;
},
{
layerId = m005;
shapes = (
{
closed = 1;
nodes = (
(351,-16,o),
(409,87,o),
(409,207,c),
(393,257,l),
(393,146,o),
(342,97,o),
(282,97,cs),
(242,97,o),
(200,107,o),
(200,197,cs),
(200,500,l),
(65,500,l),
(65,181,ls),
(65,41,o),
(131,-16,o),
(221,-16,cs)
);
},
{
closed = 1;
nodes = (
(200,-200,l),
(200,500,l),
(65,500,l),
(65,-200,l)
);
},
{
closed = 1;
nodes = (
(528,0,l),
(528,500,l),
(393,500,l),
(393,0,l)
);
}
);
width = 593;
},
{
layerId = m007;
shapes = (
{
closed = 1;
nodes = (
(333,-16,o),
(418,51,o),
(418,181,c),
(408,257,l),
(408,97,o),
(333,47,o),
(248,47,cs),
(168,47,o),
(135,91,o),
(135,191,cs),
(135,500,l),
(80,500,l),
(80,161,ls),
(80,41,o),
(143,-16,o),
(233,-16,cs)
);
},
{
closed = 1;
nodes = (
(135,-200,l),
(135,500,l),
(80,500,l),
(80,-200,l)
);
},
{
closed = 1;
nodes = (
(463,0,l),
(463,500,l),
(408,500,l),
(408,0,l)
);
}
);
width = 543;
},
{
layerId = m004;
shapes = (
{
closed = 1;
nodes = (
(306,-16,o),
(387,72,o),
(399,151,c),
(405,257,l),
(376,110,o),
(286,57,o),
(216,57,cs),
(156,57,o),
(122,102,o),
(141,200,cs),
(199,500,l),
(124,500,l),
(62,182,ls),
(35,45,o),
(116,-16,o),
(196,-16,cs)
);
},
{
closed = 1;
nodes = (
(64,-200,l),
(199,500,l),
(124,500,l),
(-12,-200,l)
);
},
{
closed = 1;
nodes = (
(430,0,l),
(527,500,l),
(452,500,l),
(355,0,l)
);
}
);
width = 554;
},
{
layerId = m008;
shapes = (
{
closed = 1;
nodes = (
(310,-16,o),
(388,89,o),
(411,207,c),
(395,257,l),
(373,146,o),
(313,97,o),
(253,97,cs),
(213,97,o),
(177,128,o),
(190,197,cs),
(249,500,l),
(114,500,l),
(52,181,ls),
(29,63,o),
(90,-16,o),
(200,-16,cs)
);
},
{
closed = 1;
nodes = (
(113,-200,l),
(249,500,l),
(114,500,l),
(-22,-200,l)
);
},
{
closed = 1;
nodes = (
(480,0,l),
(577,500,l),
(442,500,l),
(345,0,l)
);
}
);
width = 594;
},
{
layerId = m006;
shapes = (
{
closed = 1;
nodes = (
(292,-16,o),
(390,51,o),
(415,181,c),
(410,257,l),
(379,97,o),
(292,37,o),
(207,37,cs),
(127,37,o),
(105,91,o),
(124,191,cs),
(184,500,l),
(129,500,l),
(63,161,ls),
(40,41,o),
(102,-16,o),
(192,-16,cs)
);
},
{
closed = 1;
nodes = (
(48,-200,l),
(184,500,l),
(129,500,l),
(-7,-200,l)
);
},
{
closed = 1;
nodes = (
(415,0,l),
(512,500,l),
(457,500,l),
(360,0,l)
);
}
);
width = 544;
}
);
metricLeft = m;
metricRight = u;
unicode = 956;
},
{
glyphname = pi;
lastChange = "2022-11-25 14:16:16 +0000";
layers = (
{
layerId = m01;
shapes = (
{
closed = 1;
nodes = (
(615,0,l),
(615,73,l),
(575,73,ls),
(535,73,o),
(515,93,o),
(515,133,cs),
(515,500,l),
(440,500,l),
(440,140,ls),
(440,50,o),
(490,0,o),
(580,0,cs)
);
},
{
closed = 1;
nodes = (
(250,0,l),
(250,500,l),
(175,500,l),
(175,0,l)
);
},
{
closed = 1;
nodes = (
(615,437,l),
(615,500,l),
(75,500,l),
(75,437,l)
);
}
);
width = 690;
},
{
layerId = m005;
shapes = (
{
closed = 1;
nodes = (
(675,0,l),
(675,113,l),
(635,113,ls),
(595,113,o),
(575,133,o),
(575,173,cs),
(575,500,l),
(440,500,l),
(440,160,ls),
(440,50,o),
(500,0,o),
(610,0,cs)
);
},
{
closed = 1;
nodes = (
(300,0,l),
(300,500,l),
(165,500,l),
(165,0,l)
);
},
{
closed = 1;
nodes = (
(675,397,l),
(675,500,l),
(65,500,l),
(65,397,l)
);
}
);
width = 740;
},
{
layerId = m007;
shapes = (
{
closed = 1;
nodes = (
(600,0,l),
(600,53,l),
(570,53,ls),
(525,53,o),
(500,78,o),
(500,123,cs),
(500,500,l),
(445,500,l),
(445,130,ls),
(445,44,o),
(489,0,o),
(575,0,cs)
);
},
{
closed = 1;
nodes = (
(235,0,l),
(235,500,l),
(180,500,l),
(180,0,l)
);
},
{
closed = 1;
nodes = (
(600,447,l),
(600,500,l),
(80,500,l),
(80,447,l)
);
}
);
width = 680;
},
{
layerId = m004;
shapes = (
{
closed = 1;
nodes = (
(567,0,l),
(581,73,l),
(541,73,ls),
(506,73,o),
(486,98,o),
(493,133,cs),
(564,500,l),
(489,500,l),
(419,140,ls),
(403,55,o),
(456,0,o),
(542,0,cs)
);
},
{
closed = 1;
nodes = (
(202,0,l),
(299,500,l),
(224,500,l),
(127,0,l)
);
},
{
closed = 1;
nodes = (
(652,437,l),
(664,500,l),
(124,500,l),
(112,437,l)
);
}
);
width = 691;
},
{
layerId = m008;
shapes = (
{
closed = 1;
nodes = (
(627,0,l),
(649,113,l),
(609,113,ls),
(574,113,o),
(554,138,o),
(561,173,cs),
(624,500,l),
(489,500,l),
(423,160,ls),
(405,64,o),
(464,0,o),
(562,0,cs)
);
},
{
closed = 1;
nodes = (
(252,0,l),
(349,500,l),
(214,500,l),
(117,0,l)
);
},
{
closed = 1;
nodes = (
(704,397,l),
(724,500,l),
(114,500,l),
(94,397,l)
);
}
);
width = 741;
},
{
layerId = m006;
shapes = (
{
closed = 1;
nodes = (
(552,0,l),
(562,53,l),
(532,53,ls),
(491,53,o),
(468,83,o),
(476,123,cs),
(549,500,l),
(494,500,l),
(422,130,ls),
(408,55,o),
(450,0,o),
(527,0,cs)
);
},
{
closed = 1;
nodes = (
(187,0,l),
(284,500,l),
(229,500,l),
(132,0,l)
);
},
{
closed = 1;
nodes = (
(639,447,l),
(649,500,l),
(129,500,l),
(119,447,l)
);
}
);
width = 681;
}
);
metricLeft = m;
metricRight = q;
unicode = 960;
},
{
glyphname = zero;
kernLeft = zero;
kernRight = zero;
lastChange = "2022-12-03 14:06:23 +0000";
layers = (
{
layerId = m01;
shapes = (
{
closed = 1;
nodes = (
(500,-16,o),
(606,126,o),
(606,350,cs),
(606,574,o),
(500,716,o),
(333,716,cs),
(166,716,o),
(60,574,o),
(60,350,cs),
(60,126,o),
(166,-16,o),
(333,-16,cs)
);
},
{
closed = 1;
nodes = (
(213,57,o),
(138,170,o),
(138,350,cs),
(138,530,o),
(213,643,o),
(333,643,cs),
(453,643,o),
(528,530,o),
(528,350,cs),
(528,170,o),
(453,57,o),
(333,57,cs)
);
}
);
width = 666;
},
{
layerId = m005;
shapes = (
{
closed = 1;
nodes = (
(558,-16,o),
(666,130,o),
(666,350,cs),
(666,570,o),
(558,716,o),
(358,716,cs),
(158,716,o),
(50,570,o),
(50,350,cs),
(50,130,o),
(158,-16,o),
(358,-16,cs)
);
},
{
closed = 1;
nodes = (
(248,97,o),
(198,210,o),
(198,350,cs),
(198,490,o),
(248,603,o),
(358,603,cs),
(468,603,o),
(518,490,o),
(518,350,cs),
(518,210,o),
(468,97,o),
(358,97,cs)
);
}
);
width = 716;
},
{
layerId = m007;
shapes = (
{
closed = 1;
nodes = (
(498,-16,o),
(591,130,o),
(591,350,cs),
(591,570,o),
(498,716,o),
(328,716,cs),
(158,716,o),
(65,570,o),
(65,350,cs),
(65,130,o),
(158,-16,o),
(328,-16,cs)
);
},
{
closed = 1;
nodes = (
(178,37,o),
(123,180,o),
(123,350,cs),
(123,520,o),
(178,663,o),
(328,663,cs),
(478,663,o),
(533,520,o),
(533,350,cs),
(533,180,o),
(478,37,o),
(328,37,cs)
);
}
);
width = 656;
},
{
layerId = m004;
shapes = (
{
closed = 1;
nodes = (
(480,-16,o),
(586,152,o),
(619,323,cs),
(657,519,o),
(598,716,o),
(404,716,cs),
(224,716,o),
(118,548,o),
(85,377,cs),
(47,181,o),
(106,-16,o),
(300,-16,cs)
);
},
{
closed = 1;
nodes = (
(157,57,o),
(131,215,o),
(160,364,cs),
(186,497,o),
(260,643,o),
(401,643,cs),
(547,643,o),
(573,485,o),
(544,336,cs),
(518,203,o),
(444,57,o),
(303,57,cs)
);
}
);
width = 665;
},
{
layerId = m008;
shapes = (
{
closed = 1;
nodes = (
(514,-16,o),
(643,141,o),
(678,324,cs),
(718,528,o),
(631,716,o),
(426,716,cs),
(238,716,o),
(109,559,o),
(74,376,cs),
(34,172,o),
(121,-16,o),
(326,-16,cs)
);
},
{
closed = 1;
nodes = (
(209,97,o),
(194,233,o),
(218,359,cs),
(240,473,o),
(299,603,o),
(420,603,cs),
(543,603,o),
(558,467,o),
(534,341,cs),
(512,227,o),
(453,97,o),
(332,97,cs)
);
}
);
width = 714;
},
{
layerId = m006;
shapes = (
{
closed = 1;
nodes = (
(471,-16,o),
(574,157,o),
(607,327,cs),
(644,519,o),
(594,716,o),
(404,716,cs),
(225,716,o),
(122,543,o),
(89,373,cs),
(52,181,o),
(102,-16,o),
(292,-16,cs)
);
},
{
closed = 1;
nodes = (
(141,37,o),
(115,211,o),
(146,371,cs),
(174,511,o),
(250,663,o),
(397,663,cs),
(555,663,o),
(581,489,o),
(550,329,cs),
(522,189,o),
(446,37,o),
(299,37,cs)
);
}
);
width = 657;
}
);
unicode = 48;
},
{
glyphname = one;
kernLeft = one;
kernRight = one;
lastChange = "2022-12-03 15:02:11 +0000";
layers = (
{
layerId = m01;
shapes = (
{
closed = 1;
nodes = (
(338,43,l),
(338,700,l),
(260,700,l),
(260,594,o),
(215,500,o),
(109,500,cs),
(80,500,l),
(80,427,l),
(109,427,ls),
(195,427,o),
(267,474,o),
(267,560,c),
(260,560,l),
(260,43,l)
);
},
{
closed = 1;
nodes = (
(518,0,l),
(518,73,l),
(80,73,l),
(80,0,l)
);
}
);
width = 548;
},
{
layerId = m005;
shapes = (
{
closed = 1;
nodes = (
(398,0,l),
(398,700,l),
(250,700,l),
(250,603,o),
(231,500,o),
(134,500,cs),
(70,500,l),
(70,387,l),
(134,387,ls),
(238,387,o),
(267,486,o),
(267,590,c),
(250,590,l),
(250,0,l)
);
},
{
closed = 1;
nodes = (
(578,0,l),
(578,113,l),
(70,113,l),
(70,0,l)
);
}
);
width = 598;
},
{
layerId = m007;
shapes = (
{
closed = 1;
nodes = (
(323,33,l),
(323,700,l),
(265,700,l),
(265,596,o),
(218,500,o),
(114,500,cs),
(85,500,l),
(85,447,l),
(114,447,ls),
(210,447,o),
(272,524,o),
(272,620,c),
(265,600,l),
(265,33,l)
);
},
{
closed = 1;
nodes = (
(503,0,l),
(503,53,l),
(85,53,l),
(85,0,l)
);
}
);
width = 538;
},
{
layerId = m004;
shapes = (
{
closed = 1;
nodes = (
(298,43,l),
(426,700,l),
(348,700,l),
(327,592,o),
(268,500,o),
(158,500,cs),
(129,500,l),
(115,427,l),
(144,427,ls),
(233,427,o),
(310,472,o),
(328,560,c),
(321,560,l),
(220,43,l)
);
},
{
closed = 1;
nodes = (
(470,0,l),
(484,73,l),
(46,73,l),
(32,0,l)
);
}
);
width = 549;
},
{
layerId = m008;
shapes = (
{
closed = 1;
nodes = (
(350,0,l),
(486,700,l),
(338,700,l),
(319,602,o),
(283,500,o),
(183,500,cs),
(119,500,l),
(97,387,l),
(161,387,ls),
(268,387,o),
(313,485,o),
(334,590,c),
(317,590,l),
(202,0,l)
);
},
{
closed = 1;
nodes = (
(530,0,l),
(552,113,l),
(44,113,l),
(22,0,l)
);
}
);
width = 599;
},
{
layerId = m006;
shapes = (
{
closed = 1;
nodes = (
(281,33,l),
(411,700,l),
(353,700,l),
(332,594,o),
(271,500,o),
(163,500,cs),
(134,500,l),
(124,447,l),
(153,447,ls),
(257,447,o),
(325,518,o),
(344,620,c),
(334,600,l),
(223,33,l)
);
},
{
closed = 1;
nodes = (
(455,0,l),
(465,53,l),
(47,53,l),
(37,0,l)
);
}
);
width = 539;
}
);
unicode = 49;
},
{
glyphname = two;
kernLeft = two;
kernRight = two;
lastChange = "2022-12-03 15:39:56 +0000";
layers = (
{
layerId = m01;
shapes = (
{
closed = 1;
nodes = (
(541,0,l),
(541,73,l),
(132,73,l),
(162,56,l),
(352,147,o),
(525,317,o),
(525,499,cs),
(525,630,o),
(435,716,o),
(302,716,cs),
(173,716,o),
(60,634,o),
(60,500,c),
(138,490,l),
(138,583,o),
(212,643,o),
(301,643,cs),
(392,643,o),
(447,581,o),
(447,488,cs),
(447,312,o),
(249,168,o),
(61,73,c),
(61,0,l)
);
}
);
width = 601;
},
{
layerId = m005;
shapes = (
{
closed = 1;
nodes = (
(601,0,l),
(601,113,l),
(174,113,l),
(174,64,l),
(377,149,o),
(585,272,o),
(585,472,cs),
(585,618,o),
(473,716,o),
(319,716,cs),
(180,716,o),
(50,636,o),
(50,490,c),
(198,480,l),
(198,553,o),
(255,603,o),
(323,603,cs),
(399,603,o),
(437,542,o),
(437,468,cs),
(437,295,o),
(226,208,o),
(51,113,c),
(51,0,l)
);
}
);
width = 651;
},
{
layerId = m007;
shapes = (
{
closed = 1;
nodes = (
(525,0,l),
(525,53,l),
(123,53,l),
(153,48,l),
(338,147,o),
(509,315,o),
(509,498,cs),
(509,626,o),
(425,716,o),
(294,716,cs),
(173,716,o),
(65,638,o),
(65,510,c),
(123,501,l),
(123,599,o),
(201,663,o),
(295,663,cs),
(393,663,o),
(451,594,o),
(451,495,cs),
(451,313,o),
(256,154,o),
(65,53,c),
(65,0,l)
);
}
);
width = 590;
},
{
layerId = m004;
shapes = (
{
closed = 1;
nodes = (
(493,0,l),
(507,73,l),
(98,73,l),
(125,56,l),
(325,145,o),
(528,265,o),
(564,450,cs),
(594,601,o),
(496,716,o),
(361,716,cs),
(241,716,o),
(132,625,o),
(109,500,c),
(185,490,l),
(203,578,o),
(279,643,o),
(361,643,cs),
(450,643,o),
(509,565,o),
(487,454,cs),
(451,267,o),
(221,177,o),
(27,73,c),
(13,0,l)
);
}
);
width = 602;
},
{
layerId = m008;
shapes = (
{
closed = 1;
nodes = (
(553,0,l),
(575,113,l),
(148,113,l),
(118,64,l),
(344,146,o),
(586,251,o),
(625,450,cs),
(656,609,o),
(536,716,o),
(388,716,cs),
(252,716,o),
(123,626,o),
(97,490,c),
(243,480,l),
(257,550,o),
(315,603,o),
(381,603,cs),
(448,603,o),
(496,548,o),
(478,457,cs),
(444,282,o),
(215,207,o),
(25,113,c),
(3,0,l)
);
}
);
width = 652;
},
{
layerId = m006;
shapes = (
{
closed = 1;
nodes = (
(477,0,l),
(487,53,l),
(85,53,l),
(119,48,l),
(316,143,o),
(513,269,o),
(549,453,cs),
(578,603,o),
(485,716,o),
(355,716,cs),
(241,716,o),
(139,629,o),
(116,510,c),
(172,501,l),
(190,593,o),
(269,663,o),
(355,663,cs),
(451,663,o),
(516,577,o),
(492,456,cs),
(454,266,o),
(228,159,o),
(27,53,c),
(17,0,l)
);
}
);
width = 591;
}
);
unicode = 50;
},
{
glyphname = three;
kernLeft = three;
kernRight = three;
lastChange = "2022-12-03 14:53:00 +0000";
layers = (
{
layerId = m01;
shapes = (
{
closed = 1;
nodes = (
(437,-16,o),
(554,61,o),
(554,191,cs),
(554,304,o),
(466,374,o),
(357,374,c),
(357,354,l),
(457,354,o),
(528,427,o),
(528,526,cs),
(528,648,o),
(421,716,o),
(299,716,cs),
(184,716,o),
(78,655,o),
(74,539,c),
(152,529,l),
(156,604,o),
(225,643,o),
(300,643,cs),
(379,643,o),
(452,600,o),
(452,521,cs),
(452,439,o),
(374,400,o),
(292,400,cs),
(222,400,l),
(222,327,l),
(292,327,ls),
(385,327,o),
(476,285,o),
(476,192,cs),
(476,102,o),
(390,57,o),
(304,57,cs),
(208,57,o),
(128,112,o),
(128,204,c),
(50,194,l),
(50,60,o),
(169,-16,o),
(303,-16,cs)
);
}
);
width = 614;
},
{
layerId = m005;
shapes = (
{
closed = 1;
nodes = (
(472,-16,o),
(616,48,o),
(616,189,cs),
(616,321,o),
(491,380,o),
(363,380,c),
(363,347,l),
(480,347,o),
(590,405,o),
(590,525,cs),
(590,655,o),
(460,716,o),
(330,716,cs),
(191,716,o),
(64,646,o),
(64,510,c),
(212,500,l),
(212,563,o),
(264,603,o),
(329,603,cs),
(387,603,o),
(444,572,o),
(444,512,cs),
(444,452,o),
(387,421,o),
(327,421,cs),
(252,421,l),
(252,308,l),
(327,308,ls),
(399,308,o),
(468,275,o),
(468,203,cs),
(468,131,o),
(399,97,o),
(332,97,cs),
(248,97,o),
(188,150,o),
(188,229,c),
(40,219,l),
(40,68,o),
(176,-16,o),
(334,-16,cs)
);
}
);
width = 666;
},
{
layerId = m007;
shapes = (
{
closed = 1;
nodes = (
(429,-16,o),
(541,59,o),
(541,188,cs),
(541,292,o),
(467,368,o),
(364,368,c),
(364,360,l),
(457,360,o),
(517,434,o),
(517,526,cs),
(517,645,o),
(417,716,o),
(299,716,cs),
(191,716,o),
(95,657,o),
(82,550,c),
(140,540,l),
(150,618,o),
(220,663,o),
(300,663,cs),
(385,663,o),
(459,613,o),
(459,527,cs),
(459,438,o),
(378,391,o),
(289,391,cs),
(229,391,l),
(229,338,l),
(289,338,ls),
(389,338,o),
(483,289,o),
(483,189,cs),
(483,92,o),
(396,39,o),
(301,39,cs),
(202,39,o),
(120,97,o),
(113,193,c),
(55,183,l),
(55,54,o),
(170,-16,o),
(297,-16,cs)
);
}
);
width = 606;
},
{
layerId = m004;
shapes = (
{
closed = 1;
nodes = (
(413,-16,o),
(519,69,o),
(541,184,cs),
(564,302,o),
(483,374,o),
(371,374,c),
(377,354,l),
(479,354,o),
(561,421,o),
(580,521,cs),
(603,637,o),
(526,716,o),
(388,716,cs),
(258,716,o),
(153,645,o),
(130,539,c),
(206,529,l),
(222,597,o),
(292,643,o),
(379,643,cs),
(468,643,o),
(519,595,o),
(505,524,cs),
(491,450,o),
(417,400,o),
(321,400,cs),
(251,400,l),
(237,327,l),
(307,327,ls),
(416,327,o),
(481,278,o),
(465,197,cs),
(450,117,o),
(367,57,o),
(268,57,cs),
(170,57,o),
(122,116,o),
(119,204,c),
(39,194,l),
(35,94,o),
(111,-16,o),
(272,-16,cs)
);
}
);
width = 614;
},
{
layerId = m008;
shapes = (
{
closed = 1;
nodes = (
(465,-16,o),
(580,65,o),
(602,177,cs),
(624,291,o),
(538,380,o),
(398,380,c),
(391,347,l),
(501,347,o),
(618,394,o),
(641,510,cs),
(664,630,o),
(567,716,o),
(407,716,cs),
(237,716,o),
(135,620,o),
(114,510,c),
(260,500,l),
(272,559,o),
(325,603,o),
(401,603,cs),
(465,603,o),
(506,571,o),
(494,512,cs),
(483,453,o),
(430,421,o),
(360,421,cs),
(285,421,l),
(263,308,l),
(338,308,ls),
(408,308,o),
(474,281,o),
(459,204,cs),
(445,133,o),
(377,97,o),
(305,97,cs),
(227,97,o),
(193,140,o),
(183,229,c),
(34,219,l),
(36,109,o),
(115,-16,o),
(309,-16,cs)
);
}
);
width = 666;
},
{
layerId = m006;
shapes = (
{
closed = 1;
nodes = (
(407,-16,o),
(505,71,o),
(525,169,cs),
(546,277,o),
(466,366,o),
(396,366,c),
(405,362,l),
(465,362,o),
(553,436,o),
(570,524,cs),
(589,625,o),
(509,716,o),
(377,716,cs),
(239,716,o),
(161,617,o),
(140,550,c),
(196,540,l),
(218,609,o),
(289,663,o),
(377,663,cs),
(469,663,o),
(527,603,o),
(512,525,cs),
(497,450,o),
(420,391,o),
(316,391,cs),
(256,391,l),
(246,338,l),
(306,338,ls),
(399,338,o),
(490,286,o),
(470,184,cs),
(452,92,o),
(358,39,o),
(261,39,cs),
(168,39,o),
(108,88,o),
(101,193,c),
(42,183,l),
(42,103,o),
(97,-16,o),
(264,-16,cs)
);
}
);
width = 606;
}
);
unicode = 51;
},
{
glyphname = four;
kernLeft = four;
kernRight = four;
lastChange = "2022-12-01 22:28:42 +0000";
layers = (
{
layerId = m01;
shapes = (
{
closed = 1;
nodes = (
(664,193,l),
(664,266,l),
(92,266,l),
(66,216,l),
(243,308,o),
(316,450,o),
(316,700,c),
(238,700,l),
(238,483,o),
(180,357,o),
(40,266,c),
(40,193,l)
);
},
{
closed = 1;
nodes = (
(544,0,l),
(544,700,l),
(466,700,l),
(466,0,l)
);
}
);
width = 709;
},
{
layerId = m005;
shapes = (
{
closed = 1;
nodes = (
(714,173,l),
(714,286,l),
(90,286,l),
(73,209,l),
(343,334,o),
(366,530,o),
(366,700,c),
(228,700,l),
(228,530,o),
(223,391,o),
(30,286,c),
(30,173,l)
);
},
{
closed = 1;
nodes = (
(594,0,l),
(594,700,l),
(456,700,l),
(456,0,l)
);
}
);
width = 749;
},
{
layerId = m007;
shapes = (
{
closed = 1;
nodes = (
(649,203,l),
(649,256,l),
(94,256,l),
(83,231,l),
(288,360,o),
(301,530,o),
(301,700,c),
(243,700,l),
(243,530,o),
(227,380,o),
(45,256,c),
(45,203,l)
);
},
{
closed = 1;
nodes = (
(529,0,l),
(529,700,l),
(471,700,l),
(471,0,l)
);
}
);
width = 699;
},
{
layerId = m004;
shapes = (
{
closed = 1;
nodes = (
(653,193,l),
(668,266,l),
(96,266,l),
(60,216,l),
(263,312,o),
(354,441,o),
(404,700,c),
(326,700,l),
(282,472,o),
(210,361,o),
(44,266,c),
(29,193,l)
);
},
{
closed = 1;
nodes = (
(496,0,l),
(632,700,l),
(554,700,l),
(418,0,l)
);
}
);
width = 710;
},
{
layerId = m008;
shapes = (
{
closed = 1;
nodes = (
(699,173,l),
(721,286,l),
(97,286,l),
(65,229,l),
(286,293,o),
(402,434,o),
(453,700,c),
(315,700,l),
(272,474,o),
(201,367,o),
(37,286,c),
(15,173,l)
);
},
{
closed = 1;
nodes = (
(545,0,l),
(681,700,l),
(543,700,l),
(407,0,l)
);
}
);
width = 749;
},
{
layerId = m006;
shapes = (
{
closed = 1;
nodes = (
(640,203,l),
(651,256,l),
(96,256,l),
(80,231,l),
(258,331,o),
(342,459,o),
(389,700,c),
(331,700,l),
(287,473,o),
(212,355,o),
(47,256,c),
(36,203,l)
);
},
{
closed = 1;
nodes = (
(481,0,l),
(617,700,l),
(559,700,l),
(423,0,l)
);
}
);
width = 700;
}
);
unicode = 52;
},
